<svg xmlns="http://www.w3.org/2000/svg" xmlns:xlink="http://www.w3.org/1999/xlink" width="1080" zoomAndPan="magnify" viewBox="0 0 810 809.999993" height="1080" preserveAspectRatio="xMidYMid meet" version="1.0"><defs><clipPath id="7c6f909a90"><path d="M 96 282 L 169 282 L 169 671.457031 L 96 671.457031 Z M 96 282 " clip-rule="nonzero"/></clipPath><clipPath id="dd95115223"><path d="M 628 221 L 706 221 L 706 671.457031 L 628 671.457031 Z M 628 221 " clip-rule="nonzero"/></clipPath><clipPath id="bf7c3a17cd"><path d="M 627.367188 148.796875 L 809.726562 148.796875 L 809.726562 221 L 627.367188 221 Z M 627.367188 148.796875 " clip-rule="nonzero"/></clipPath></defs><path fill="#7a5e3e" d="M 494.1875 550.523438 C 467.234375 571.773438 434.992188 583.144531 402.367188 584.476562 C 434.402344 583.101562 465.589844 571.582031 490.820312 551.6875 C 512.367188 534.707031 532.992188 515.742188 552.4375 495.054688 C 500.859375 524.335938 443.53125 539.652344 384.609375 539.652344 C 338.652344 539.652344 293.621094 530.023438 252.582031 511.589844 C 270.355469 528.378906 289.109375 543.664062 308.59375 557.234375 C 331.847656 573.429688 358.746094 582.71875 386.878906 584.355469 C 358.347656 582.734375 330.121094 573.414062 305.492188 556.261719 C 277.269531 536.605469 249.988281 518.449219 224.472656 490.921875 C 249.988281 518.449219 277.269531 552.910156 305.492188 572.5625 C 362.746094 612.441406 439.394531 610.023438 494.1875 566.828125 C 524.910156 542.609375 554.613281 502.898438 582.246094 469.441406 C 554.613281 502.898438 524.910156 526.304688 494.1875 550.523438 " fill-opacity="1" fill-rule="nonzero"/><path fill="#7a5e3e" d="M 232.554688 495.679688 C 233.429688 496.175781 234.34375 496.765625 235.371094 497.296875 C 236.390625 497.839844 237.476562 498.417969 238.621094 499.023438 C 239.765625 499.636719 240.972656 500.277344 242.238281 500.949219 C 243.511719 501.613281 244.8125 502.363281 246.234375 503.019531 C 249.050781 504.386719 252.097656 505.859375 255.351562 507.4375 C 258.664062 508.890625 262.191406 510.441406 265.90625 512.070312 C 267.78125 512.851562 269.730469 513.582031 271.714844 514.363281 C 273.707031 515.128906 275.726562 515.953125 277.816406 516.714844 C 286.21875 519.679688 295.375 522.785156 305.289062 525.28125 C 306.523438 525.609375 307.769531 525.933594 309.019531 526.265625 C 309.648438 526.425781 310.269531 526.601562 310.90625 526.753906 C 311.542969 526.894531 312.179688 527.035156 312.820312 527.179688 C 315.378906 527.753906 317.96875 528.332031 320.585938 528.921875 C 321.890625 529.234375 323.21875 529.464844 324.554688 529.710938 C 325.886719 529.957031 327.226562 530.203125 328.574219 530.449219 C 329.921875 530.695312 331.273438 530.941406 332.632812 531.191406 C 333.992188 531.457031 335.375 531.609375 336.75 531.824219 C 339.511719 532.226562 342.292969 532.628906 345.09375 533.039062 C 347.910156 533.34375 350.746094 533.652344 353.597656 533.964844 C 356.449219 534.316406 359.332031 534.480469 362.226562 534.695312 C 365.125 534.878906 368.027344 535.160156 370.957031 535.210938 C 373.886719 535.308594 376.824219 535.402344 379.769531 535.503906 C 382.71875 535.5 385.675781 535.492188 388.640625 535.492188 C 391.605469 535.527344 394.570312 535.363281 397.542969 535.257812 C 400.511719 535.136719 403.488281 535.078125 406.453125 534.808594 C 409.417969 534.578125 412.386719 534.347656 415.347656 534.121094 C 418.304688 533.789062 421.253906 533.457031 424.199219 533.125 C 427.148438 532.839844 430.066406 532.328125 432.984375 531.914062 C 435.898438 531.476562 438.8125 531.082031 441.6875 530.503906 C 444.566406 529.96875 447.433594 529.4375 450.285156 528.90625 C 453.117188 528.269531 455.933594 527.636719 458.730469 527.003906 C 461.542969 526.417969 464.292969 525.660156 467.03125 524.945312 C 468.402344 524.585938 469.765625 524.222656 471.125 523.871094 C 471.804688 523.691406 472.484375 523.511719 473.160156 523.335938 C 473.835938 523.148438 474.5 522.933594 475.171875 522.738281 C 477.839844 521.933594 480.488281 521.140625 483.105469 520.351562 C 483.761719 520.148438 484.417969 519.964844 485.066406 519.75 C 485.710938 519.53125 486.355469 519.3125 486.996094 519.089844 C 488.277344 518.652344 489.550781 518.214844 490.820312 517.777344 C 495.921875 516.105469 500.792969 514.148438 505.566406 512.328125 C 506.160156 512.097656 506.757812 511.871094 507.347656 511.640625 C 507.929688 511.394531 508.511719 511.148438 509.09375 510.902344 C 510.25 510.410156 511.402344 509.921875 512.542969 509.433594 C 514.820312 508.453125 517.082031 507.53125 519.273438 506.539062 C 521.449219 505.523438 523.585938 504.523438 525.6875 503.539062 C 527.78125 502.554688 529.855469 501.613281 531.824219 500.566406 C 533.804688 499.554688 535.746094 498.558594 537.644531 497.585938 C 538.589844 497.101562 539.527344 496.621094 540.453125 496.148438 C 541.359375 495.636719 542.257812 495.132812 543.140625 494.636719 C 544.90625 493.640625 546.628906 492.667969 548.304688 491.722656 C 549.140625 491.25 549.964844 490.785156 550.777344 490.324219 C 551.589844 489.867188 552.363281 489.367188 553.136719 488.898438 C 556.21875 487.011719 559.105469 485.242188 561.773438 483.609375 C 564.382812 481.878906 566.78125 480.292969 568.941406 478.859375 C 570.027344 478.140625 571.046875 477.460938 572.011719 476.824219 C 572.949219 476.148438 573.828125 475.519531 574.644531 474.929688 C 576.277344 473.75 577.667969 472.746094 578.792969 471.9375 C 581.046875 470.308594 582.246094 469.441406 582.246094 469.441406 C 582.246094 469.441406 581.015625 470.265625 578.710938 471.8125 C 577.554688 472.589844 576.132812 473.542969 574.460938 474.664062 C 573.625 475.226562 572.726562 475.828125 571.765625 476.472656 C 570.785156 477.082031 569.746094 477.734375 568.648438 478.421875 C 566.457031 479.796875 564.023438 481.316406 561.382812 482.972656 C 558.675781 484.535156 555.753906 486.222656 552.632812 488.027344 C 546.339844 491.550781 539.140625 495.34375 531.152344 499.199219 C 529.175781 500.210938 527.105469 501.117188 524.996094 502.0625 C 522.894531 503.007812 520.75 503.96875 518.570312 504.945312 C 516.378906 505.898438 514.113281 506.78125 511.832031 507.71875 C 510.6875 508.183594 509.539062 508.65625 508.378906 509.128906 C 507.796875 509.363281 507.214844 509.597656 506.632812 509.835938 C 506.039062 510.050781 505.445312 510.269531 504.851562 510.488281 C 500.074219 512.226562 495.207031 514.09375 490.113281 515.671875 C 488.847656 516.089844 487.574219 516.503906 486.292969 516.921875 C 485.65625 517.132812 485.015625 517.34375 484.371094 517.554688 C 483.726562 517.761719 483.070312 517.941406 482.421875 518.132812 C 479.808594 518.898438 477.175781 519.664062 474.519531 520.441406 C 473.851562 520.632812 473.191406 520.835938 472.519531 521.019531 C 471.84375 521.1875 471.171875 521.359375 470.496094 521.53125 C 469.144531 521.875 467.785156 522.21875 466.425781 522.5625 C 463.699219 523.257812 460.960938 523.988281 458.167969 524.546875 C 455.386719 525.148438 452.585938 525.757812 449.773438 526.367188 C 446.941406 526.882812 444.09375 527.402344 441.230469 527.921875 C 438.382812 528.488281 435.488281 528.871094 432.597656 529.296875 C 429.699219 529.699219 426.804688 530.203125 423.878906 530.476562 C 420.957031 530.792969 418.027344 531.117188 415.097656 531.4375 C 412.160156 531.660156 409.214844 531.878906 406.273438 532.101562 C 403.332031 532.367188 400.382812 532.4375 397.4375 532.566406 C 394.488281 532.679688 391.546875 532.851562 388.609375 532.820312 C 385.667969 532.828125 382.734375 532.84375 379.808594 532.855469 C 376.886719 532.765625 373.972656 532.675781 371.066406 532.585938 C 368.160156 532.546875 365.277344 532.277344 362.40625 532.105469 C 359.535156 531.914062 356.671875 531.773438 353.839844 531.445312 C 351.007812 531.160156 348.191406 530.875 345.394531 530.59375 C 342.609375 530.210938 339.84375 529.835938 337.105469 529.460938 C 335.734375 529.253906 334.363281 529.113281 333.011719 528.863281 C 331.664062 528.625 330.316406 528.390625 328.976562 528.160156 C 327.636719 527.925781 326.304688 527.691406 324.980469 527.460938 C 323.652344 527.234375 322.328125 527.019531 321.03125 526.726562 C 318.421875 526.179688 315.84375 525.636719 313.292969 525.101562 C 312.660156 524.96875 312.023438 524.835938 311.390625 524.703125 C 310.757812 524.5625 310.136719 524.394531 309.511719 524.242188 C 308.261719 523.933594 307.023438 523.625 305.792969 523.316406 C 295.914062 520.949219 286.757812 518.035156 278.339844 515.246094 C 276.242188 514.527344 274.21875 513.742188 272.222656 513.019531 C 270.234375 512.277344 268.285156 511.578125 266.394531 510.859375 C 262.652344 509.328125 259.101562 507.875 255.765625 506.511719 C 252.480469 505.023438 249.40625 503.632812 246.5625 502.34375 C 245.128906 501.726562 243.808594 501.011719 242.523438 500.386719 C 241.242188 499.746094 240.023438 499.132812 238.867188 498.558594 C 236.546875 497.398438 234.46875 496.382812 232.714844 495.394531 C 230.945312 494.433594 229.441406 493.617188 228.21875 492.953125 C 225.777344 491.628906 224.472656 490.921875 224.472656 490.921875 C 224.472656 490.921875 225.75 491.671875 228.144531 493.082031 C 229.34375 493.789062 230.820312 494.65625 232.554688 495.679688 " fill-opacity="1" fill-rule="nonzero"/><path fill="#7a5e3e" d="M 230.777344 489.871094 C 230.160156 489.449219 229.335938 489.503906 228.777344 490.003906 L 224.371094 493.980469 C 223.597656 494.679688 223.675781 495.917969 224.535156 496.507812 C 225.148438 496.9375 225.976562 496.878906 226.535156 496.378906 L 230.941406 492.402344 C 231.714844 491.699219 231.636719 490.464844 230.777344 489.871094 " fill-opacity="1" fill-rule="nonzero"/><path fill="#7a5e3e" d="M 228.046875 487.988281 C 227.429688 487.5625 226.601562 487.617188 226.046875 488.117188 L 221.640625 492.097656 C 220.863281 492.796875 220.945312 494.03125 221.800781 494.625 C 222.421875 495.050781 223.246094 494.996094 223.800781 494.496094 L 228.210938 490.515625 C 228.984375 489.816406 228.902344 488.582031 228.046875 487.988281 " fill-opacity="1" fill-rule="nonzero"/><path fill="#7a5e3e" d="M 225.3125 486.101562 C 224.699219 485.675781 223.871094 485.734375 223.3125 486.234375 L 218.90625 490.210938 C 218.132812 490.910156 218.214844 492.148438 219.074219 492.742188 C 219.6875 493.167969 220.515625 493.109375 221.070312 492.609375 L 225.480469 488.632812 C 226.253906 487.933594 226.171875 486.695312 225.3125 486.101562 " fill-opacity="1" fill-rule="nonzero"/><path fill="#7a5e3e" d="M 222.582031 484.21875 C 221.964844 483.792969 221.136719 483.847656 220.585938 484.347656 L 216.175781 488.328125 C 215.398438 489.027344 215.480469 490.261719 216.339844 490.855469 C 216.957031 491.28125 217.78125 491.226562 218.339844 490.726562 L 222.746094 486.746094 C 223.519531 486.046875 223.4375 484.808594 222.582031 484.21875 " fill-opacity="1" fill-rule="nonzero"/><path fill="#7a5e3e" d="M 215.125 484.921875 L 214.84375 485.179688 Z M 219.851562 482.335938 C 219.234375 481.90625 218.410156 481.960938 217.851562 482.464844 L 216.628906 483.566406 L 217.28125 482.976562 C 218.058594 482.277344 217.976562 481.039062 217.117188 480.449219 C 216.503906 480.023438 215.675781 480.078125 215.121094 480.578125 L 214.964844 480.71875 L 133.71875 364.15625 L 132.007812 365.15625 L 213.460938 482.078125 L 212.574219 482.875 L 118.074219 407.640625 L 116.660156 409.027344 L 211.101562 484.203125 L 210.710938 484.558594 C 209.9375 485.253906 210.019531 486.492188 210.875 487.085938 C 211.492188 487.511719 212.320312 487.457031 212.875 486.957031 L 213.371094 486.507812 C 212.683594 487.222656 212.777344 488.398438 213.609375 488.972656 C 214.222656 489.394531 215.050781 489.339844 215.605469 488.839844 L 220.015625 484.859375 C 220.789062 484.164062 220.710938 482.925781 219.851562 482.335938 " fill-opacity="1" fill-rule="nonzero"/><path fill="#7a5e3e" d="M 572.527344 471.128906 C 573.144531 470.703125 573.972656 470.757812 574.527344 471.257812 L 578.933594 475.238281 C 579.710938 475.9375 579.628906 477.175781 578.773438 477.769531 C 578.15625 478.191406 577.328125 478.136719 576.773438 477.636719 L 572.363281 473.65625 C 571.589844 472.960938 571.671875 471.722656 572.527344 471.128906 " fill-opacity="1" fill-rule="nonzero"/><path fill="#7a5e3e" d="M 575.261719 469.242188 C 575.875 468.820312 576.707031 468.875 577.261719 469.375 L 581.667969 473.355469 C 582.441406 474.050781 582.363281 475.292969 581.503906 475.882812 C 580.886719 476.308594 580.0625 476.253906 579.503906 475.75 L 575.09375 471.773438 C 574.324219 471.074219 574.402344 469.835938 575.261719 469.242188 " fill-opacity="1" fill-rule="nonzero"/><path fill="#7a5e3e" d="M 577.992188 467.359375 C 578.609375 466.9375 579.4375 466.988281 579.992188 467.488281 L 584.398438 471.472656 C 585.171875 472.167969 585.09375 473.40625 584.234375 473.996094 C 583.617188 474.421875 582.792969 474.371094 582.238281 473.867188 L 577.828125 469.886719 C 577.054688 469.191406 577.136719 467.953125 577.992188 467.359375 " fill-opacity="1" fill-rule="nonzero"/><path fill="#7a5e3e" d="M 580.726562 465.476562 C 581.339844 465.050781 582.167969 465.105469 582.726562 465.605469 L 587.132812 469.582031 C 587.90625 470.285156 587.824219 471.519531 586.964844 472.113281 C 586.351562 472.539062 585.523438 472.484375 584.96875 471.980469 L 580.558594 468.003906 C 579.785156 467.304688 579.867188 466.066406 580.726562 465.476562 " fill-opacity="1" fill-rule="nonzero"/><path fill="#7a5e3e" d="M 588.464844 466.433594 L 588.179688 466.179688 Z M 583.292969 466.117188 L 587.699219 470.097656 C 588.257812 470.601562 589.082031 470.652344 589.699219 470.226562 C 590.527344 469.65625 590.625 468.480469 589.929688 467.773438 C 589.9375 467.765625 590.433594 468.210938 590.433594 468.210938 C 590.988281 468.714844 591.8125 468.765625 592.429688 468.34375 C 593.289062 467.75 593.367188 466.515625 592.59375 465.816406 L 592.203125 465.460938 L 683.347656 372.464844 L 681.933594 371.074219 L 590.730469 464.132812 L 589.84375 463.332031 L 675.261719 339.816406 L 673.546875 338.8125 L 588.34375 461.976562 L 588.1875 461.835938 C 587.632812 461.332031 586.804688 461.28125 586.1875 461.707031 C 585.328125 462.296875 585.25 463.535156 586.023438 464.234375 L 586.679688 464.824219 L 585.453125 463.71875 C 584.902344 463.21875 584.074219 463.167969 583.457031 463.589844 C 582.597656 464.183594 582.519531 465.417969 583.292969 466.117188 " fill-opacity="1" fill-rule="nonzero"/><g clip-path="url(#7c6f909a90)"><path fill="#7a5e3e" d="M 168.945312 282.015625 C 114.714844 405.917969 114.714844 547.882812 168.945312 671.785156 C 150.984375 671.785156 133.023438 671.785156 115.066406 671.785156 C 78.796875 547.882812 96.753906 405.917969 168.945312 282.015625 " fill-opacity="1" fill-rule="nonzero"/></g><path fill="#7a5e3e" d="M 203.699219 411.035156 L 195.5 409.046875 L 204.472656 407.222656 C 207.824219 389.988281 210.480469 366.136719 206.195312 343.742188 C 205.871094 342.066406 205.515625 340.429688 205.128906 338.824219 L 186.183594 334.238281 L 202.894531 330.832031 C 192.28125 297.886719 169.4375 281.398438 169.4375 281.398438 C 169.4375 281.398438 166.976562 288.605469 164.472656 299.871094 L 174.84375 302.359375 L 163.457031 304.679688 C 159.976562 322.003906 157.066406 346.53125 161.464844 369.523438 C 161.746094 370.996094 162.058594 372.433594 162.390625 373.855469 L 182.671875 378.726562 L 164.746094 382.375 C 175.355469 415.359375 198.222656 431.867188 198.222656 431.867188 C 198.222656 431.867188 201.03125 423.644531 203.699219 411.035156 " fill-opacity="1" fill-rule="nonzero"/><path fill="#7a5e3e" d="M 244.882812 222.371094 C 242.765625 222.910156 240.6875 223.519531 238.648438 224.191406 L 239.566406 239.835938 L 233.296875 226.140625 C 193.121094 242.058594 169.410156 281.679688 169.441406 281.53125 C 169.414062 281.652344 190.570312 275.59375 221.21875 267.457031 L 215.199219 256.148438 L 231.632812 264.710938 C 238.660156 262.867188 246.070312 260.949219 253.746094 258.996094 C 260.171875 257.320312 266.433594 255.714844 272.4375 254.1875 L 275.097656 234.503906 L 279.433594 252.417969 C 313.941406 243.734375 338.523438 238.117188 338.441406 238.015625 C 338.542969 238.140625 291.980469 210.097656 244.882812 222.371094 " fill-opacity="1" fill-rule="nonzero"/><path fill="#7a5e3e" d="M 260.332031 309.199219 C 258.660156 307.757812 256.949219 306.394531 255.214844 305.097656 L 243.542969 315.125 L 250.527344 301.804688 C 214.300781 277.839844 169.308594 281.59375 169.441406 281.53125 C 169.332031 281.582031 186.59375 295.582031 211.101562 316.234375 L 216.371094 304.535156 L 219.417969 323.265625 C 225.019531 328.015625 230.902344 333.039062 236.972656 338.257812 C 242.089844 342.609375 247.050781 346.859375 251.800781 350.949219 L 268.75 341.503906 L 257.324219 355.714844 C 284.546875 379.253906 303.492188 396.359375 303.523438 396.234375 C 303.488281 396.386719 297.8125 341.078125 260.332031 309.199219 " fill-opacity="1" fill-rule="nonzero"/><path fill="#7a5e3e" d="M 93.996094 222.371094 C 96.113281 222.910156 98.191406 223.519531 100.230469 224.191406 L 99.308594 239.835938 L 105.578125 226.140625 C 145.753906 242.058594 169.46875 281.679688 169.441406 281.53125 C 169.464844 281.652344 148.304688 275.59375 117.660156 267.457031 L 123.675781 256.148438 L 107.242188 264.710938 C 100.214844 262.867188 92.808594 260.949219 85.132812 258.996094 C 78.707031 257.320312 72.445312 255.714844 66.441406 254.1875 L 63.777344 234.503906 L 59.445312 252.417969 C 24.9375 243.734375 0.355469 238.117188 0.4375 238.015625 C 0.335938 238.140625 46.898438 210.097656 93.996094 222.371094 " fill-opacity="1" fill-rule="nonzero"/><path fill="#7a5e3e" d="M 78.542969 309.199219 C 80.21875 307.757812 81.929688 306.394531 83.664062 305.097656 L 95.332031 315.125 L 88.347656 301.804688 C 124.578125 277.839844 169.570312 281.59375 169.441406 281.53125 C 169.546875 281.582031 152.28125 295.582031 127.777344 316.234375 L 122.507812 304.535156 L 119.460938 323.265625 C 113.859375 328.015625 107.972656 333.039062 101.902344 338.257812 C 96.789062 342.609375 91.824219 346.859375 87.078125 350.949219 L 70.125 341.503906 L 81.550781 355.714844 C 54.328125 379.253906 35.382812 396.359375 35.355469 396.234375 C 35.390625 396.386719 41.0625 341.078125 78.542969 309.199219 " fill-opacity="1" fill-rule="nonzero"/><g clip-path="url(#dd95115223)"><path fill="#7a5e3e" d="M 628.070312 221.324219 C 686.53125 364.515625 686.53125 528.589844 628.070312 671.785156 C 647.433594 671.785156 666.792969 671.785156 686.15625 671.785156 C 725.25 528.589844 705.894531 364.515625 628.070312 221.324219 " fill-opacity="1" fill-rule="nonzero"/></g><path fill="#7a5e3e" d="M 611.660156 374.09375 L 620.101562 370.601562 L 610.226562 369.847656 C 603.890625 350.621094 597.253906 323.714844 598.253906 297.445312 C 598.328125 295.480469 598.449219 293.554688 598.601562 291.65625 L 618.097656 283.582031 L 599.710938 282.179688 C 605.785156 242.886719 627.542969 220.613281 627.542969 220.613281 C 627.542969 220.613281 631.320312 228.492188 635.792969 241.015625 L 625.117188 245.410156 L 637.644531 246.367188 C 644.125 265.679688 651.148438 293.320312 650.125 320.292969 C 650.058594 322.019531 649.957031 323.714844 649.828125 325.390625 L 628.953125 333.980469 L 648.675781 335.492188 C 642.617188 374.828125 620.835938 397.125 620.835938 397.125 C 620.835938 397.125 616.523438 388.136719 611.660156 374.09375 " fill-opacity="1" fill-rule="nonzero"/><path fill="#7a5e3e" d="M 546.210938 152.386719 C 548.492188 153.011719 550.734375 153.71875 552.929688 154.496094 L 551.941406 172.574219 L 558.699219 156.742188 C 602.007812 175.144531 627.570312 220.933594 627.539062 220.765625 C 627.566406 220.902344 604.757812 213.898438 571.722656 204.496094 L 578.207031 191.425781 L 560.492188 201.320312 C 552.917969 199.191406 544.929688 196.976562 536.65625 194.71875 C 529.730469 192.785156 522.980469 190.925781 516.507812 189.164062 L 513.636719 166.414062 L 508.964844 187.117188 C 471.765625 177.078125 445.265625 170.589844 445.355469 170.472656 C 445.242188 170.613281 495.4375 138.203125 546.210938 152.386719 " fill-opacity="1" fill-rule="nonzero"/><path fill="#7a5e3e" d="M 529.554688 252.742188 C 531.359375 251.074219 533.203125 249.5 535.070312 248 L 547.652344 259.589844 L 540.125 244.195312 C 579.179688 216.496094 627.679688 220.835938 627.539062 220.765625 C 627.65625 220.824219 609.046875 237 582.628906 260.867188 L 576.945312 247.347656 L 573.660156 268.996094 C 567.621094 274.488281 561.28125 280.289062 554.738281 286.324219 C 549.222656 291.351562 543.871094 296.265625 538.753906 300.988281 L 520.480469 290.074219 L 532.796875 306.5 C 503.453125 333.703125 483.027344 353.472656 482.996094 353.328125 C 483.035156 353.507812 489.152344 289.585938 529.554688 252.742188 " fill-opacity="1" fill-rule="nonzero"/><g clip-path="url(#bf7c3a17cd)"><path fill="#7a5e3e" d="M 708.871094 152.386719 C 706.585938 153.011719 704.34375 153.71875 702.148438 154.496094 L 703.140625 172.574219 L 696.382812 156.742188 C 653.074219 175.144531 627.503906 220.933594 627.539062 220.765625 C 627.511719 220.902344 650.320312 213.898438 683.355469 204.496094 L 676.867188 191.425781 L 694.585938 201.320312 C 702.160156 199.191406 710.148438 196.976562 718.421875 194.71875 C 725.347656 192.785156 732.101562 190.925781 738.574219 189.164062 L 741.445312 166.414062 L 746.113281 187.117188 C 783.316406 177.078125 809.8125 170.589844 809.726562 170.472656 C 809.832031 170.613281 759.636719 138.203125 708.871094 152.386719 " fill-opacity="1" fill-rule="nonzero"/></g><path fill="#7a5e3e" d="M 725.523438 252.742188 C 723.722656 251.074219 721.878906 249.5 720.007812 248 L 707.425781 259.589844 L 714.957031 244.195312 C 675.898438 216.496094 627.398438 220.835938 627.539062 220.765625 C 627.425781 220.824219 646.035156 237 672.449219 260.867188 L 678.128906 247.347656 L 681.417969 268.996094 C 687.453125 274.488281 693.800781 280.289062 700.34375 286.324219 C 705.855469 291.351562 711.210938 296.265625 716.328125 300.988281 L 734.601562 290.074219 L 722.285156 306.5 C 751.628906 333.703125 772.050781 353.472656 772.085938 353.328125 C 772.042969 353.507812 765.925781 289.585938 725.523438 252.742188 " fill-opacity="1" fill-rule="nonzero"/></svg>