<svg xmlns="http://www.w3.org/2000/svg" xmlns:xlink="http://www.w3.org/1999/xlink" width="1080" zoomAndPan="magnify" viewBox="0 0 810 809.999993" height="1080" preserveAspectRatio="xMidYMid meet" version="1.0"><defs><clipPath id="2d854bceaa"><path d="M 242 0.261719 L 573 0.261719 L 573 809.765625 L 242 809.765625 Z M 242 0.261719 " clip-rule="nonzero"/></clipPath></defs><g clip-path="url(#2d854bceaa)"><path fill="#d1b68d" d="M 572.394531 405.035156 C 571.5625 328.242188 563.214844 251.210938 542.464844 177.269531 C 531.925781 140.460938 517.898438 104.308594 497.644531 72.035156 C 477.800781 40.832031 448.835938 9.335938 411.429688 8.753906 C 374.136719 10.492188 346.71875 42.324219 327.90625 73.675781 C 308.664062 106.066406 296.171875 142.332031 286.179688 178.882812 C 266.394531 252.339844 258.972656 328.882812 258.902344 405.035156 C 258.914062 481.195312 266.382812 557.738281 286.152344 631.195312 C 296.082031 667.769531 308.628906 704.023438 327.863281 736.425781 C 346.683594 767.777344 374.109375 799.621094 411.429688 801.359375 C 448.863281 800.773438 477.824219 769.265625 497.671875 738.054688 C 517.914062 705.769531 531.960938 669.617188 542.472656 632.808594 C 563.222656 558.863281 571.5625 481.832031 572.394531 405.035156 Z M 572.394531 405.035156 C 572.375 481.84375 564.863281 559.023438 544.832031 633.464844 C 534.695312 670.539062 522.03125 707.375 502.175781 740.804688 C 491.761719 757.078125 481.054688 773.734375 465.679688 786.367188 C 450.878906 799.113281 432.246094 809.25 411.429688 809.765625 C 390.613281 809.789062 371.492188 800.085938 356.171875 787.558594 C 340.253906 775.152344 329 758.644531 318.011719 742.4375 C 297.148438 709.121094 282.980469 672.386719 272.265625 635.078125 C 251.253906 560.144531 242.875 482.484375 242.035156 405.035156 C 242.8125 327.589844 251.242188 249.921875 272.242188 174.988281 C 282.890625 137.65625 297.113281 100.9375 317.972656 67.609375 C 328.960938 51.40625 340.21875 34.890625 356.140625 22.480469 C 371.46875 9.949219 390.601562 0.242188 411.429688 0.265625 C 432.257812 0.789062 450.898438 10.929688 465.703125 23.683594 C 481.082031 36.316406 491.785156 52.976562 502.203125 69.253906 C 522.050781 102.691406 534.730469 139.523438 544.835938 176.601562 C 564.867188 251.050781 572.375 328.234375 572.394531 405.035156 " fill-opacity="1" fill-rule="nonzero"/></g><path fill="#d1b68d" d="M 464.886719 80.0625 C 464.886719 57.613281 483.085938 39.410156 505.53125 39.410156 C 527.980469 39.410156 546.183594 57.613281 546.183594 80.0625 C 546.183594 102.507812 527.980469 120.703125 505.53125 120.703125 C 483.085938 120.703125 464.886719 102.507812 464.886719 80.0625 " fill-opacity="1" fill-rule="nonzero"/><path fill="#d1b68d" d="M 330.953125 265.644531 C 264.859375 304.761719 202.320312 350.5 148.664062 405.441406 C 122.054688 432.96875 97.765625 463.199219 79.933594 496.875 C 62.832031 529.664062 50.039062 570.492188 68.242188 603.175781 C 88.390625 634.605469 129.664062 642.4375 166.226562 643.050781 C 203.898438 643.519531 241.550781 636.207031 278.199219 626.582031 C 351.707031 606.992188 421.707031 575.144531 487.695312 537.125 C 553.644531 499.042969 616.199219 454.300781 669.925781 400.449219 C 696.640625 373.5625 721.761719 344.570312 740.207031 311.714844 C 757.949219 279.734375 771.8125 240.066406 754.652344 206.878906 C 735.429688 174.75 693.664062 165.425781 656.714844 163.839844 C 618.628906 162.449219 580.300781 168.359375 543.167969 177.667969 C 468.753906 196.667969 397.875 227.957031 330.953125 265.644531 Z M 330.953125 265.644531 C 397.476562 227.25 468.070312 195.164062 542.558594 175.292969 C 579.730469 165.53125 617.960938 158.082031 656.84375 158.566406 C 676.140625 159.449219 695.921875 160.390625 714.542969 167.390625 C 732.984375 173.839844 751.078125 184.902344 761.9375 202.671875 C 772.363281 220.691406 773.519531 242.101562 770.335938 261.628906 C 767.546875 281.617188 758.878906 299.617188 750.335938 317.238281 C 731.914062 351.972656 707.191406 382.597656 680.234375 410.539062 C 625.847656 466.195312 562.777344 512.289062 496.128906 551.738281 C 428.667969 589.789062 357.191406 621.320312 281.796875 640.601562 C 244.140625 650.046875 205.234375 656.089844 165.941406 654.6875 C 146.40625 653.273438 126.476562 651.78125 107.773438 644.199219 C 89.253906 637.1875 71.285156 625.472656 60.886719 607.425781 C 50.921875 589.121094 50.386719 567.910156 54.03125 548.710938 C 57.285156 529.078125 66.359375 511.476562 75.246094 494.316406 C 94.28125 460.410156 119.839844 431.011719 146.902344 403.71875 C 201.351562 349.148438 264.445312 304.054688 330.953125 265.644531 " fill-opacity="1" fill-rule="nonzero"/><path fill="#d1b68d" d="M 103.265625 521.226562 C 83.828125 532.457031 58.960938 525.792969 47.742188 506.355469 C 36.511719 486.910156 43.175781 462.050781 62.613281 450.828125 C 82.058594 439.605469 106.917969 446.269531 118.144531 465.707031 C 129.367188 485.144531 122.703125 510.011719 103.265625 521.226562 " fill-opacity="1" fill-rule="nonzero"/><path fill="#d1b68d" d="M 330.953125 544.429688 C 397.875 582.109375 468.753906 613.398438 543.167969 632.398438 C 580.304688 641.679688 618.636719 647.601562 656.714844 646.199219 C 693.660156 644.621094 735.414062 635.28125 754.617188 603.175781 C 771.761719 570.011719 757.90625 530.355469 740.164062 498.382812 C 721.734375 465.523438 696.570312 436.570312 669.910156 409.640625 C 616.191406 355.785156 553.609375 311.082031 487.695312 272.945312 C 421.738281 234.871094 351.707031 203.070312 278.207031 183.464844 C 241.570312 173.777344 203.898438 166.511719 166.226562 166.96875 C 129.65625 167.589844 88.371094 175.421875 68.207031 206.878906 C 49.996094 239.585938 62.804688 280.425781 79.910156 313.214844 C 97.746094 346.886719 122.03125 377.128906 148.65625 404.636719 C 202.316406 459.578125 264.855469 505.320312 330.953125 544.429688 Z M 330.953125 544.429688 C 264.445312 506.015625 201.359375 460.921875 146.90625 406.347656 C 119.863281 379.035156 94.296875 349.652344 75.277344 315.738281 C 66.386719 298.582031 57.320312 280.984375 54.0625 261.355469 C 50.425781 242.15625 50.964844 220.957031 60.921875 202.671875 C 71.3125 184.636719 89.277344 172.925781 107.785156 165.914062 C 126.488281 158.339844 146.410156 156.851562 165.941406 155.4375 C 205.226562 154.023438 244.121094 160.125 281.789062 169.5 C 357.191406 188.761719 428.640625 220.34375 496.128906 258.335938 C 562.8125 297.730469 625.855469 343.863281 680.25 399.523438 C 707.257812 427.410156 731.949219 458.085938 750.378906 492.8125 C 758.921875 510.4375 767.59375 528.4375 770.378906 548.429688 C 773.566406 567.972656 772.402344 589.394531 761.972656 607.425781 C 751.105469 625.199219 733.003906 636.269531 714.554688 642.714844 C 695.925781 649.714844 676.148438 650.65625 656.84375 651.539062 C 617.957031 652.007812 579.722656 644.574219 542.558594 634.785156 C 468.070312 614.914062 397.476562 582.820312 330.953125 544.429688 " fill-opacity="1" fill-rule="nonzero"/><path fill="#d1b68d" d="M 666.140625 613.820312 C 685.582031 625.042969 692.246094 649.902344 681.019531 669.34375 C 669.796875 688.785156 644.9375 695.445312 625.492188 684.222656 C 606.054688 672.996094 599.390625 648.136719 610.613281 628.699219 C 621.839844 609.253906 646.699219 602.597656 666.140625 613.820312 " fill-opacity="1" fill-rule="nonzero"/><path fill="#d1b68d" d="M 333.652344 405.035156 C 333.652344 362.082031 368.476562 327.261719 411.429688 327.261719 C 454.382812 327.261719 489.207031 362.082031 489.207031 405.035156 C 489.207031 447.988281 454.382812 482.8125 411.429688 482.8125 C 368.476562 482.8125 333.652344 447.988281 333.652344 405.035156 " fill-opacity="1" fill-rule="nonzero"/></svg>