<svg xmlns="http://www.w3.org/2000/svg" xmlns:xlink="http://www.w3.org/1999/xlink" width="500" zoomAndPan="magnify" viewBox="0 0 375 374.999991" height="500" preserveAspectRatio="xMidYMid meet" version="1.0"><path fill="#000000" d="M 138.621094 152.019531 C 136.203125 152.019531 134.226562 150.042969 134.226562 147.628906 L 134.226562 117.96875 C 134.226562 111.160156 128.734375 105.667969 121.925781 105.667969 C 115.113281 105.667969 109.621094 111.160156 109.621094 117.96875 L 109.621094 147.628906 C 109.621094 150.042969 107.644531 152.019531 105.226562 152.019531 C 102.8125 152.019531 100.835938 150.042969 100.835938 147.628906 L 100.835938 117.96875 C 100.835938 106.328125 110.28125 96.878906 121.925781 96.878906 C 133.566406 96.878906 143.015625 106.328125 143.015625 117.96875 L 143.015625 147.628906 C 143.015625 150.042969 141.035156 152.019531 138.621094 152.019531 Z M 138.621094 152.019531 " fill-opacity="1" fill-rule="evenodd"/><path fill="#000000" d="M 138.621094 137.082031 L 105.226562 137.082031 C 102.8125 137.082031 100.835938 135.105469 100.835938 132.6875 C 100.835938 130.273438 102.8125 128.296875 105.226562 128.296875 L 138.621094 128.296875 C 141.035156 128.296875 143.015625 130.273438 143.015625 132.6875 C 143.015625 135.105469 141.035156 137.082031 138.621094 137.082031 Z M 138.621094 137.082031 " fill-opacity="1" fill-rule="evenodd"/><path fill="#000000" d="M 213.972656 151.800781 C 212.875 151.800781 211.996094 151.582031 211.117188 150.703125 L 192.664062 135.105469 L 174.210938 150.703125 C 172.890625 151.800781 171.351562 152.242188 169.816406 151.582031 C 168.277344 150.921875 167.179688 149.605469 166.960938 148.066406 L 160.148438 101.933594 C 159.929688 99.515625 161.46875 97.320312 163.882812 96.878906 C 166.300781 96.660156 168.496094 98.199219 168.9375 100.613281 L 174.429688 139.058594 L 189.808594 125.878906 C 191.34375 124.5625 193.761719 124.5625 195.519531 125.878906 L 210.675781 139.058594 L 216.386719 100.613281 C 216.828125 98.199219 219.023438 96.660156 221.441406 96.878906 C 223.859375 97.320312 225.394531 99.515625 225.175781 101.933594 L 218.367188 148.066406 C 218.144531 149.605469 217.046875 150.921875 215.507812 151.582031 C 215.070312 151.800781 214.410156 151.800781 213.972656 151.800781 Z M 213.972656 151.800781 " fill-opacity="1" fill-rule="evenodd"/><path fill="#000000" d="M 258.128906 151.800781 C 252.636719 151.800781 247.582031 149.164062 244.726562 144.332031 C 243.410156 142.355469 244.070312 139.71875 246.046875 138.402344 C 248.242188 137.082031 250.878906 137.742188 252.195312 139.71875 C 253.515625 141.914062 255.710938 143.015625 258.128906 143.015625 C 262.082031 143.015625 265.378906 139.9375 265.378906 135.984375 C 265.378906 132.03125 262.082031 128.734375 258.128906 128.734375 C 249.339844 128.734375 242.3125 121.703125 242.3125 112.917969 C 242.3125 103.910156 249.339844 96.878906 258.128906 96.878906 C 258.128906 96.878906 258.347656 96.878906 258.347656 96.878906 C 264.28125 96.878906 269.773438 100.175781 272.628906 105.449219 C 273.726562 107.644531 272.847656 110.28125 270.648438 111.378906 C 268.453125 112.476562 265.816406 111.597656 264.71875 109.402344 C 263.621094 107.207031 260.984375 105.667969 258.347656 105.667969 C 254.175781 105.667969 251.097656 108.742188 251.097656 112.917969 C 251.097656 116.871094 254.394531 119.945312 258.128906 119.945312 C 266.914062 119.945312 274.164062 127.195312 274.164062 135.984375 C 274.164062 144.773438 266.914062 151.800781 258.128906 151.800781 Z M 258.128906 151.800781 " fill-opacity="1" fill-rule="evenodd"/><path fill="#000000" d="M 250.4375 210.238281 L 124.5625 210.238281 C 122.144531 210.238281 120.167969 208.261719 120.167969 205.84375 C 120.167969 203.425781 122.144531 201.449219 124.5625 201.449219 L 250.4375 201.449219 C 252.855469 201.449219 254.832031 203.425781 254.832031 205.84375 C 254.832031 208.261719 252.855469 210.238281 250.4375 210.238281 Z M 272.40625 175.964844 L 102.59375 175.964844 C 100.175781 175.964844 98.199219 173.988281 98.199219 171.574219 C 98.199219 169.15625 100.175781 167.179688 102.59375 167.179688 L 272.40625 167.179688 C 274.824219 167.179688 276.800781 169.15625 276.800781 171.574219 C 276.800781 173.988281 274.824219 175.964844 272.40625 175.964844 Z M 272.40625 175.964844 " fill-opacity="1" fill-rule="evenodd"/><path fill="#000000" d="M 344.464844 260.984375 L 30.535156 260.984375 C 28.121094 260.984375 26.140625 259.007812 26.140625 256.589844 L 26.140625 72.933594 C 26.140625 58.214844 38.003906 46.132812 52.945312 46.132812 L 322.054688 46.132812 C 336.773438 46.132812 348.859375 58.214844 348.859375 72.933594 L 348.859375 256.589844 C 348.859375 259.007812 346.878906 260.984375 344.464844 260.984375 Z M 34.929688 252.195312 L 340.070312 252.195312 L 340.070312 72.933594 C 340.070312 63.050781 331.941406 54.921875 322.054688 54.921875 L 52.945312 54.921875 C 42.839844 54.921875 34.929688 63.050781 34.929688 72.933594 Z M 34.929688 252.195312 " fill-opacity="1" fill-rule="evenodd"/><path fill="#000000" d="M 336.554688 328.867188 L 38.226562 328.867188 C 17.136719 328.867188 0 311.511719 0 290.421875 L 0 256.589844 C 0 254.175781 1.976562 252.195312 4.394531 252.195312 L 370.605469 252.195312 C 373.023438 252.195312 375 254.175781 375 256.589844 L 375 290.421875 C 375 311.511719 357.644531 328.867188 336.554688 328.867188 Z M 8.789062 260.984375 L 8.789062 290.421875 C 8.789062 306.679688 21.96875 320.078125 38.226562 320.078125 L 336.554688 320.078125 C 352.8125 320.078125 366.210938 306.679688 366.210938 290.421875 L 366.210938 260.984375 Z M 8.789062 260.984375 " fill-opacity="1" fill-rule="evenodd"/><path fill="#000000" d="M 226.054688 296.351562 L 148.726562 296.351562 C 147.40625 296.351562 146.089844 295.695312 145.210938 294.597656 L 119.949219 259.007812 C 119.070312 257.6875 118.847656 255.929688 119.726562 254.394531 C 120.386719 253.074219 121.925781 252.195312 123.460938 252.195312 L 251.316406 252.195312 C 253.074219 252.195312 254.613281 253.074219 255.273438 254.394531 C 255.929688 255.929688 255.929688 257.6875 255.050781 259.007812 L 229.789062 294.597656 C 228.910156 295.695312 227.59375 296.351562 226.054688 296.351562 Z M 151.140625 287.566406 L 223.859375 287.566406 L 242.96875 260.984375 L 132.03125 260.984375 Z M 151.140625 287.566406 " fill-opacity="1" fill-rule="evenodd"/><path fill="#000000" d="M 80.84375 294.816406 L 35.808594 294.816406 C 33.390625 294.816406 31.414062 292.839844 31.414062 290.421875 C 31.414062 288.003906 33.390625 286.027344 35.808594 286.027344 L 80.84375 286.027344 C 83.261719 286.027344 85.238281 288.003906 85.238281 290.421875 C 85.238281 292.839844 83.261719 294.816406 80.84375 294.816406 Z M 80.84375 294.816406 " fill-opacity="1" fill-rule="evenodd"/><path fill="#000000" d="M 339.191406 294.816406 L 294.15625 294.816406 C 291.738281 294.816406 289.761719 292.839844 289.761719 290.421875 C 289.761719 288.003906 291.738281 286.027344 294.15625 286.027344 L 339.191406 286.027344 C 341.609375 286.027344 343.585938 288.003906 343.585938 290.421875 C 343.585938 292.839844 341.609375 294.816406 339.191406 294.816406 Z M 339.191406 294.816406 " fill-opacity="1" fill-rule="evenodd"/></svg>