<svg xmlns="http://www.w3.org/2000/svg" xmlns:xlink="http://www.w3.org/1999/xlink" width="500" zoomAndPan="magnify" viewBox="0 0 375 374.999991" height="500" preserveAspectRatio="xMidYMid meet" version="1.0"><path fill="#000000" d="M 355.226562 340.179688 L 19.550781 340.179688 C 8.789062 340.179688 0 331.394531 0 320.628906 L 0 107.753906 L 31.195312 107.753906 L 31.195312 305.691406 C 31.195312 308.105469 33.171875 310.082031 35.589844 310.082031 L 339.410156 310.082031 C 341.828125 310.082031 343.804688 308.105469 343.585938 305.691406 L 343.585938 107.753906 L 375 107.753906 L 375 320.628906 C 375 331.394531 366.210938 340.179688 355.226562 340.179688 Z M 216.828125 279.765625 L 199.472656 230.339844 L 160.148438 230.339844 L 207.820312 279.765625 Z M 196.398438 221.550781 L 187.390625 196.507812 L 178.601562 221.550781 Z M 169.375 221.550781 L 182.777344 183.324219 L 163.664062 129.285156 L 158.390625 129.285156 L 105.449219 279.765625 L 148.726562 279.765625 L 161.246094 244.179688 L 146.527344 229.019531 C 145.429688 227.703125 144.992188 225.945312 145.648438 224.1875 C 146.308594 222.648438 148.066406 221.550781 149.824219 221.550781 Z M 226.054688 279.765625 L 269.550781 279.765625 L 216.386719 129.285156 L 173.109375 129.285156 L 191.5625 181.789062 L 191.5625 182.007812 L 206.722656 224.40625 L 206.722656 224.625 Z M 302.066406 34.820312 L 355.226562 34.820312 C 366.210938 34.820312 375 43.605469 375 54.589844 L 375 98.96875 L 302.066406 98.96875 Z M 351.273438 75.679688 L 320.957031 75.679688 C 318.542969 75.679688 316.5625 73.703125 316.5625 71.289062 C 316.5625 68.871094 318.542969 66.894531 320.957031 66.894531 L 351.273438 66.894531 C 353.691406 66.894531 355.667969 68.871094 355.667969 71.289062 C 355.667969 73.703125 353.691406 75.679688 351.273438 75.679688 Z M 351.273438 75.679688 " fill-opacity="1" fill-rule="evenodd"/><path fill="#ffffff" d="M 223.636719 123.570312 L 279.875 282.621094 C 280.316406 283.941406 280.097656 285.480469 279.4375 286.578125 C 278.558594 287.894531 277.242188 288.554688 275.703125 288.554688 L 206.0625 288.554688 C 204.746094 288.554688 203.648438 288.113281 202.769531 287.238281 L 168.058594 251.207031 L 155.976562 285.699219 C 155.316406 287.457031 153.777344 288.554688 151.800781 288.554688 L 99.078125 288.554688 C 97.757812 288.554688 96.441406 287.894531 95.5625 286.578125 C 94.683594 285.480469 94.464844 283.941406 94.902344 282.621094 L 151.140625 123.570312 C 151.800781 121.816406 153.558594 120.496094 155.316406 120.496094 L 219.683594 120.496094 C 221.441406 120.496094 223.199219 121.816406 223.636719 123.570312 Z M 297.671875 107.753906 L 39.984375 107.753906 L 39.984375 301.296875 L 334.796875 301.296875 L 334.796875 107.753906 Z M 297.671875 107.753906 " fill-opacity="1" fill-rule="evenodd"/><path fill="#ffffff" d="M 118.847656 66.453125 L 118.847656 76.339844 C 118.847656 77.878906 120.386719 79.414062 121.925781 79.414062 L 131.808594 79.414062 C 133.566406 79.414062 134.886719 77.878906 134.886719 76.339844 L 134.886719 66.453125 C 134.886719 64.695312 133.566406 63.378906 131.808594 63.378906 L 121.925781 63.378906 C 120.386719 63.378906 118.847656 64.695312 118.847656 66.453125 Z M 118.847656 66.453125 " fill-opacity="1" fill-rule="evenodd"/><path fill="#ffffff" d="M 73.15625 66.453125 L 73.15625 76.339844 C 73.15625 77.878906 74.472656 79.414062 76.230469 79.414062 L 86.117188 79.414062 C 87.875 79.414062 89.191406 77.878906 89.191406 76.339844 L 89.191406 66.453125 C 89.191406 64.695312 87.875 63.378906 86.117188 63.378906 L 76.230469 63.378906 C 74.472656 63.378906 73.15625 64.695312 73.15625 66.453125 Z M 73.15625 66.453125 " fill-opacity="1" fill-rule="evenodd"/><path fill="#ffffff" d="M 27.460938 66.453125 L 27.460938 76.339844 C 27.460938 77.878906 28.777344 79.414062 30.535156 79.414062 L 40.421875 79.414062 C 42.179688 79.414062 43.496094 77.878906 43.496094 76.339844 L 43.496094 66.453125 C 43.496094 64.695312 42.179688 63.378906 40.421875 63.378906 L 30.535156 63.378906 C 28.777344 63.378906 27.460938 64.695312 27.460938 66.453125 Z M 27.460938 66.453125 " fill-opacity="1" fill-rule="evenodd"/><path fill="#000000" d="M 293.277344 34.820312 L 19.550781 34.820312 C 8.789062 34.820312 0 43.605469 0 54.589844 L 0 98.96875 L 293.277344 98.96875 Z M 170.472656 66.894531 L 267.355469 66.894531 C 269.773438 66.894531 271.75 68.871094 271.75 71.289062 C 271.75 73.703125 269.773438 75.679688 267.355469 75.679688 L 170.472656 75.679688 C 167.839844 75.679688 166.082031 73.703125 166.082031 71.289062 C 166.082031 68.871094 167.839844 66.894531 170.472656 66.894531 Z M 143.671875 66.453125 L 143.671875 76.339844 C 143.671875 82.710938 138.402344 88.203125 131.808594 88.203125 L 121.925781 88.203125 C 115.554688 88.203125 110.0625 82.710938 110.0625 76.339844 L 110.0625 66.453125 C 110.0625 59.863281 115.554688 54.589844 121.925781 54.589844 L 131.808594 54.589844 C 138.402344 54.589844 143.671875 59.863281 143.671875 66.453125 Z M 97.980469 76.339844 C 97.980469 82.710938 92.707031 88.203125 86.117188 88.203125 L 76.230469 88.203125 C 69.640625 88.203125 64.367188 82.710938 64.367188 76.339844 L 64.367188 66.453125 C 64.367188 59.863281 69.640625 54.589844 76.230469 54.589844 L 86.117188 54.589844 C 92.707031 54.589844 97.980469 59.863281 97.980469 66.453125 Z M 52.285156 76.339844 C 52.285156 82.710938 47.011719 88.203125 40.421875 88.203125 L 30.535156 88.203125 C 23.945312 88.203125 18.671875 82.710938 18.671875 76.339844 L 18.671875 66.453125 C 18.671875 59.863281 23.945312 54.589844 30.535156 54.589844 L 40.421875 54.589844 C 47.011719 54.589844 52.285156 59.863281 52.285156 66.453125 Z M 52.285156 76.339844 " fill-opacity="1" fill-rule="evenodd"/></svg>