<svg xmlns="http://www.w3.org/2000/svg" xmlns:xlink="http://www.w3.org/1999/xlink" width="500" zoomAndPan="magnify" viewBox="0 0 375 374.999991" height="500" preserveAspectRatio="xMidYMid meet" version="1.0"><path fill="#000000" d="M 277.1875 225.375 C 273.9375 224.1875 270.375 225.8125 269.125 229 L 256.25 263.375 L 243.375 229 C 242.1875 225.75 238.5625 224.125 235.3125 225.375 C 232.0625 226.5625 230.4375 230.1875 231.625 233.4375 L 250.375 283.4375 C 251.3125 285.875 253.625 287.5 256.25 287.5 C 258.875 287.5 261.1875 285.875 262.125 283.4375 L 280.875 233.4375 C 282.0625 230.1875 280.4375 226.625 277.1875 225.375 Z M 277.1875 225.375 " fill-opacity="1" fill-rule="nonzero"/><path fill="#000000" d="M 212.5 225 C 209.0625 225 206.25 227.8125 206.25 231.25 L 206.25 262.5 L 180 227.5 C 178.375 225.375 175.5625 224.4375 173 225.3125 C 170.4375 226.1875 168.75 228.5625 168.75 231.25 L 168.75 281.25 C 168.75 284.6875 171.5625 287.5 175 287.5 C 178.4375 287.5 181.25 284.6875 181.25 281.25 L 181.25 250 L 207.5 285 C 208.6875 286.625 210.5625 287.5 212.5 287.5 C 213.1875 287.5 213.8125 287.375 214.5 287.1875 C 217.0625 286.3125 218.75 283.9375 218.75 281.25 L 218.75 231.25 C 218.75 227.8125 215.9375 225 212.5 225 Z M 212.5 225 " fill-opacity="1" fill-rule="nonzero"/><path fill="#000000" d="M 62.5 237.5 L 75 237.5 C 78.4375 237.5 81.25 240.3125 81.25 243.75 C 81.25 247.1875 84.0625 250 87.5 250 C 90.9375 250 93.75 247.1875 93.75 243.75 C 93.75 233.4375 85.3125 225 75 225 L 62.5 225 C 52.1875 225 43.75 233.4375 43.75 243.75 L 43.75 268.75 C 43.75 279.0625 52.1875 287.5 62.5 287.5 L 75 287.5 C 85.3125 287.5 93.75 279.0625 93.75 268.75 C 93.75 265.3125 90.9375 262.5 87.5 262.5 C 84.0625 262.5 81.25 265.3125 81.25 268.75 C 81.25 272.1875 78.4375 275 75 275 L 62.5 275 C 59.0625 275 56.25 272.1875 56.25 268.75 L 56.25 243.75 C 56.25 240.3125 59.0625 237.5 62.5 237.5 Z M 62.5 237.5 " fill-opacity="1" fill-rule="nonzero"/><path fill="#000000" d="M 137.125 229.0625 C 136.1875 226.625 133.875 225 131.25 225 C 128.625 225 126.3125 226.625 125.375 229.0625 L 106.625 279.0625 C 105.4375 282.3125 107.0625 285.875 110.3125 287.125 C 113.5625 288.3125 117.125 286.6875 118.375 283.5 L 121.5625 275.0625 L 141 275.0625 L 144.1875 283.5 C 145.125 286 147.5 287.5625 150.0625 287.5625 C 150.8125 287.5625 151.5625 287.4375 152.25 287.1875 C 155.5 286 157.125 282.375 155.9375 279.125 L 137.1875 229.125 Z M 126.1875 262.5 L 131.25 249.0625 L 136.3125 262.5 Z M 126.1875 262.5 " fill-opacity="1" fill-rule="nonzero"/><path fill="#000000" d="M 318.375 229.0625 C 317.4375 226.625 315.125 225 312.5 225 C 309.875 225 307.5625 226.625 306.625 229.0625 L 287.875 279.0625 C 286.6875 282.3125 288.3125 285.875 291.5625 287.125 C 294.8125 288.3125 298.375 286.6875 299.625 283.5 L 302.8125 275.0625 L 322.25 275.0625 L 325.4375 283.5 C 326.375 286 328.75 287.5625 331.3125 287.5625 C 332.0625 287.5625 332.8125 287.4375 333.5 287.1875 C 336.75 286 338.375 282.375 337.1875 279.125 L 318.4375 229.125 Z M 307.4375 262.5 L 312.5 249.0625 L 317.5625 262.5 Z M 307.4375 262.5 " fill-opacity="1" fill-rule="nonzero"/><path fill="#000000" d="M 306.25 0 L 106.25 0 C 90.9375 0 78.25 11.0625 75.5625 25.5625 C 61.0625 28.25 50 40.9375 50 56.25 L 50 193.75 C 50 197.1875 52.8125 200 56.25 200 L 306.25 200 C 309.6875 200 312.5 197.1875 312.5 193.75 L 312.5 143.75 C 312.5 143.75 312.4375 143.5 312.4375 143.375 C 312.4375 142.8125 312.3125 142.3125 312.125 141.75 C 312.0625 141.5625 312 141.375 311.9375 141.1875 C 311.625 140.5 311.25 139.875 310.6875 139.375 L 198.1875 26.8125 C 197.625 26.25 197 25.875 196.375 25.5625 C 196.1875 25.5 196 25.4375 195.8125 25.375 C 195.25 25.1875 194.75 25.0625 194.1875 25.0625 C 194.0625 25.0625 193.9375 25 193.8125 25 L 88.6875 25 C 91.25 17.75 98.125 12.5 106.3125 12.5 L 306.3125 12.5 C 316.625 12.5 325.0625 20.9375 325.0625 31.25 L 325.0625 193.75 C 325.0625 197.1875 327.875 200 331.3125 200 C 334.75 200 337.5625 197.1875 337.5625 193.75 L 337.5625 31.25 C 337.5625 14 323.5625 0 306.3125 0 Z M 200 46.3125 L 291.1875 137.5 L 231.25 137.5 C 214 137.5 200 123.5 200 106.25 Z M 187.5 37.5 L 187.5 106.25 C 187.5 130.375 207.125 150 231.25 150 L 300 150 L 300 187.5 L 62.5 187.5 L 62.5 56.25 C 62.5 45.9375 70.9375 37.5 81.25 37.5 Z M 187.5 37.5 " fill-opacity="1" fill-rule="nonzero"/><path fill="#000000" d="M 331.25 312.5 C 327.8125 312.5 325 315.3125 325 318.75 L 325 325 C 325 333.125 319.75 340 312.5 342.625 L 312.5 318.75 C 312.5 315.3125 309.6875 312.5 306.25 312.5 L 56.25 312.5 C 52.8125 312.5 50 315.3125 50 318.75 L 50 343.75 C 50 361 64 375 81.25 375 L 281.25 375 C 294.1875 375 305.3125 367.125 310.0625 355.875 C 325.5 354 337.5 340.9375 337.5 325 L 337.5 318.75 C 337.5 315.3125 334.6875 312.5 331.25 312.5 Z M 300 343.75 C 300 354.0625 291.5625 362.5 281.25 362.5 L 81.25 362.5 C 70.9375 362.5 62.5 354.0625 62.5 343.75 L 62.5 325 L 300 325 Z M 300 343.75 " fill-opacity="1" fill-rule="nonzero"/><path fill="#000000" d="M 350 187.5 L 31.25 187.5 C 24.375 187.5 18.75 181.875 18.75 175 C 18.75 171.6875 20.0625 168.5625 22.4375 166.1875 C 24.8125 163.8125 27.9375 162.5 31.25 162.5 L 50 162.5 L 50 150 L 31.25 150 C 24.5625 150 18.3125 152.625 13.5625 157.3125 C 8.8125 162 6.25 168.3125 6.25 175 L 6.25 293.75 C 6.25 311 20.25 325 37.5 325 L 350 325 C 360.3125 325 368.75 316.5625 368.75 306.25 L 368.75 206.25 C 368.75 195.9375 360.3125 187.5 350 187.5 Z M 356.25 306.25 C 356.25 309.6875 353.4375 312.5 350 312.5 L 37.5 312.5 C 27.1875 312.5 18.75 304.0625 18.75 293.75 L 18.75 196.5 C 22.4375 198.625 26.6875 200 31.25 200 L 350 200 C 353.4375 200 356.25 202.8125 356.25 206.25 Z M 356.25 306.25 " fill-opacity="1" fill-rule="nonzero"/></svg>