<svg xmlns="http://www.w3.org/2000/svg" xmlns:xlink="http://www.w3.org/1999/xlink" width="500" zoomAndPan="magnify" viewBox="0 0 375 374.999991" height="500" preserveAspectRatio="xMidYMid meet" version="1.0"><defs><clipPath id="9f29096f7d"><path d="M 12 0 L 362.953125 0 L 362.953125 375 L 12 375 Z M 12 0 " clip-rule="nonzero"/></clipPath></defs><g clip-path="url(#9f29096f7d)"><path fill="#000000" d="M 361.195312 110.34375 L 252.621094 1.71875 C 251.523438 0.617188 250.035156 0 248.480469 0 L 125.503906 0 C 96.878906 0 73.589844 23.296875 73.589844 51.925781 L 73.589844 154.695312 L 28.03125 154.695312 C 19.230469 154.695312 12.070312 161.859375 12.070312 170.664062 L 12.070312 262.449219 C 12.070312 271.253906 19.230469 278.414062 28.03125 278.414062 L 73.589844 278.414062 L 73.589844 323.074219 C 73.589844 351.703125 96.878906 375 125.503906 375 L 311 375 C 339.621094 375 362.910156 351.703125 362.910156 323.074219 L 362.910156 114.480469 C 362.910156 112.929688 362.292969 111.441406 361.195312 110.34375 Z M 254.335938 19.992188 L 342.925781 108.625 L 260.1875 108.625 C 256.960938 108.625 254.335938 105.988281 254.335938 102.75 Z M 23.777344 262.449219 L 23.777344 170.664062 C 23.777344 168.355469 25.726562 166.40625 28.03125 166.40625 L 278.164062 166.40625 C 280.507812 166.40625 282.417969 168.316406 282.417969 170.664062 L 282.417969 262.449219 C 282.417969 264.796875 280.507812 266.703125 278.164062 266.703125 L 28.03125 266.703125 C 25.726562 266.703125 23.777344 264.753906 23.777344 262.449219 Z M 311 363.289062 L 125.503906 363.289062 C 103.332031 363.289062 85.296875 345.246094 85.296875 323.074219 L 85.296875 278.414062 L 278.164062 278.414062 C 286.964844 278.414062 294.125 271.253906 294.125 262.449219 L 294.125 170.664062 C 294.125 161.859375 286.964844 154.695312 278.164062 154.695312 L 85.296875 154.695312 L 85.296875 51.925781 C 85.296875 29.753906 103.332031 11.710938 125.5 11.710938 L 242.628906 11.710938 L 242.628906 102.75 C 242.628906 112.449219 250.503906 120.335938 260.1875 120.335938 L 351.203125 120.335938 L 351.203125 323.074219 C 351.203125 345.246094 333.167969 363.289062 311 363.289062 Z M 77.703125 204.027344 L 77.703125 229.105469 C 77.703125 236.285156 83.539062 242.121094 90.714844 242.121094 C 97.890625 242.121094 103.730469 236.28125 103.730469 229.105469 C 103.730469 225.871094 106.347656 223.25 109.582031 223.25 C 112.816406 223.25 115.4375 225.871094 115.4375 229.105469 C 115.4375 242.738281 104.347656 253.832031 90.714844 253.832031 C 77.082031 253.832031 65.996094 242.738281 65.996094 229.105469 L 65.996094 204.027344 C 65.996094 190.378906 77.085938 179.277344 90.714844 179.277344 C 104.34375 179.277344 115.4375 190.378906 115.4375 204.027344 C 115.4375 207.261719 112.816406 209.882812 109.582031 209.882812 C 106.347656 209.882812 103.730469 207.261719 103.730469 204.027344 C 103.730469 196.835938 97.890625 190.988281 90.714844 190.988281 C 83.539062 190.988281 77.703125 196.835938 77.703125 204.027344 Z M 140.945312 200.847656 C 140.945312 206.246094 142.164062 210.710938 157.132812 210.710938 C 169.027344 210.710938 178.699219 220.378906 178.699219 232.261719 C 178.699219 244.15625 169.027344 253.832031 157.132812 253.832031 L 147.792969 253.832031 C 137.5625 253.832031 129.238281 245.507812 129.238281 235.273438 C 129.238281 232.039062 131.859375 229.417969 135.089844 229.417969 C 138.324219 229.417969 140.945312 232.039062 140.945312 235.273438 C 140.945312 238.984375 144.082031 242.125 147.796875 242.125 L 157.136719 242.125 C 162.570312 242.125 166.992188 237.699219 166.992188 232.261719 C 166.992188 226.835938 162.570312 222.421875 157.136719 222.421875 C 152.179688 222.421875 144.925781 222.0625 139.171875 218.949219 C 134.640625 216.496094 129.238281 211.367188 129.238281 200.847656 C 129.238281 188.957031 138.914062 179.277344 150.804688 179.277344 L 160.144531 179.277344 C 170.375 179.277344 178.699219 187.605469 178.699219 197.839844 C 178.699219 201.074219 176.082031 203.695312 172.847656 203.695312 C 169.613281 203.695312 166.992188 201.074219 166.992188 197.839844 C 166.992188 194.125 163.855469 190.988281 160.144531 190.988281 L 150.804688 190.988281 C 145.367188 190.988281 140.945312 195.410156 140.945312 200.847656 Z M 202.488281 200.847656 C 202.488281 206.246094 203.703125 210.710938 218.65625 210.710938 C 230.546875 210.710938 240.222656 220.378906 240.222656 232.261719 C 240.222656 244.15625 230.546875 253.832031 218.65625 253.832031 L 209.335938 253.832031 C 199.105469 253.832031 190.78125 245.507812 190.78125 235.273438 C 190.78125 232.039062 193.402344 229.417969 196.632812 229.417969 C 199.867188 229.417969 202.488281 232.039062 202.488281 235.273438 C 202.488281 239.050781 205.558594 242.125 209.335938 242.125 L 218.65625 242.125 C 224.09375 242.125 228.515625 237.699219 228.515625 232.261719 C 228.515625 226.835938 224.09375 222.421875 218.65625 222.421875 C 213.699219 222.421875 206.449219 222.0625 200.703125 218.949219 C 196.175781 216.496094 190.78125 211.367188 190.78125 200.847656 C 190.78125 188.957031 200.445312 179.277344 212.324219 179.277344 L 221.664062 179.277344 C 231.898438 179.277344 240.222656 187.605469 240.222656 197.839844 C 240.222656 201.074219 237.601562 203.695312 234.367188 203.695312 C 231.136719 203.695312 228.515625 201.074219 228.515625 197.839844 C 228.515625 194.0625 225.441406 190.988281 221.664062 190.988281 L 212.324219 190.988281 C 206.898438 190.988281 202.488281 195.410156 202.488281 200.847656 Z M 202.488281 200.847656 " fill-opacity="1" fill-rule="nonzero"/></g></svg>