<svg xmlns="http://www.w3.org/2000/svg" xmlns:xlink="http://www.w3.org/1999/xlink" width="500" zoomAndPan="magnify" viewBox="0 0 375 374.999991" height="500" preserveAspectRatio="xMidYMid meet" version="1.0"><defs><clipPath id="9e420b9794"><path d="M 18.75 2.070312 L 356.25 2.070312 L 356.25 374.820312 L 18.75 374.820312 Z M 18.75 2.070312 " clip-rule="nonzero"/></clipPath></defs><g clip-path="url(#9e420b9794)"><path fill="#d1b68d" d="M 205.257812 19.832031 C 112.085938 19.832031 36.554688 95.363281 36.554688 188.535156 C 36.554688 281.707031 112.085938 357.238281 205.257812 357.238281 C 254.269531 357.238281 298.402344 336.34375 329.234375 302.953125 C 249.484375 293.96875 187.5 226.289062 187.5 144.140625 C 187.5 96.171875 208.636719 53.144531 242.078125 23.859375 C 230.230469 21.222656 217.910156 19.832031 205.257812 19.832031 Z M 18.796875 188.535156 C 18.796875 85.554688 102.277344 2.070312 205.257812 2.070312 C 225.847656 2.070312 245.675781 5.414062 264.214844 11.585938 C 267.40625 12.648438 269.722656 15.421875 270.199219 18.75 C 270.675781 22.078125 269.234375 25.390625 266.46875 27.308594 C 229.464844 52.972656 205.257812 95.730469 205.257812 144.140625 C 205.257812 222.601562 268.863281 286.207031 347.324219 286.207031 C 350.691406 286.207031 353.777344 288.109375 355.28125 291.117188 C 356.785156 294.125 356.457031 297.726562 354.4375 300.417969 C 320.433594 345.6875 266.265625 374.996094 205.257812 374.996094 C 102.277344 374.996094 18.796875 291.515625 18.796875 188.535156 Z M 18.796875 188.535156 " fill-opacity="1" fill-rule="evenodd"/></g></svg>