<svg xmlns="http://www.w3.org/2000/svg" xmlns:xlink="http://www.w3.org/1999/xlink" width="500" zoomAndPan="magnify" viewBox="0 0 375 374.999991" height="500" preserveAspectRatio="xMidYMid meet" version="1.0"><defs><clipPath id="9165a00b93"><path d="M 0 40.3125 L 375 40.3125 L 375 265 L 0 265 Z M 0 40.3125 " clip-rule="nonzero"/></clipPath><clipPath id="3a57a2a66e"><path d="M 198 40.3125 L 211 40.3125 L 211 265 L 198 265 Z M 198 40.3125 " clip-rule="nonzero"/></clipPath><clipPath id="44da5d26ac"><path d="M 135 252 L 176 252 L 176 335.0625 L 135 335.0625 Z M 135 252 " clip-rule="nonzero"/></clipPath><clipPath id="c76f537928"><path d="M 199 252 L 240 252 L 240 335.0625 L 199 335.0625 Z M 199 252 " clip-rule="nonzero"/></clipPath><clipPath id="2d2c6d2852"><path d="M 106 322 L 269 322 L 269 335.0625 L 106 335.0625 Z M 106 322 " clip-rule="nonzero"/></clipPath></defs><g clip-path="url(#9165a00b93)"><path fill="#000000" d="M 333.574219 264.636719 L 41.425781 264.636719 C 18.695312 264.636719 0.175781 246.097656 0.175781 223.335938 L 0.175781 81.613281 C 0.175781 58.855469 18.695312 40.3125 41.425781 40.3125 L 333.574219 40.3125 C 356.304688 40.3125 374.824219 58.855469 374.824219 81.613281 L 374.824219 223.335938 C 374.824219 234.320312 370.53125 244.742188 362.742188 252.542969 C 354.875 260.339844 344.542969 264.636719 333.574219 264.636719 Z M 41.425781 52.566406 C 25.449219 52.566406 12.417969 65.617188 12.417969 81.613281 L 12.417969 223.335938 C 12.417969 239.332031 25.449219 252.382812 41.425781 252.382812 L 333.574219 252.382812 C 341.285156 252.382812 348.59375 249.359375 354.078125 243.867188 C 359.5625 238.378906 362.582031 231.054688 362.582031 223.335938 L 362.582031 81.613281 C 362.582031 65.617188 349.550781 52.566406 333.574219 52.566406 Z M 41.425781 52.566406 " fill-opacity="1" fill-rule="nonzero"/></g><path fill="#000000" d="M 47.226562 111.613281 C 45.875 111.613281 44.445312 111.136719 43.332031 110.179688 C 40.710938 108.03125 40.390625 104.210938 42.539062 101.585938 C 43.015625 101.027344 54.21875 87.5 73.292969 78.90625 C 91.097656 70.871094 119.070312 65.777344 151.894531 87.023438 C 154.757812 88.855469 155.550781 92.671875 153.722656 95.457031 C 151.894531 98.324219 148.082031 99.121094 145.300781 97.289062 C 122.886719 82.726562 100.476562 80.257812 78.777344 89.886719 C 62.246094 97.210938 52.152344 109.226562 51.996094 109.382812 C 50.722656 110.898438 48.976562 111.613281 47.226562 111.613281 Z M 47.226562 111.613281 " fill-opacity="1" fill-rule="nonzero"/><path fill="#000000" d="M 31.410156 174.796875 C 28.710938 174.796875 26.246094 172.964844 25.53125 170.261719 C 18.296875 143.203125 31.410156 120.046875 31.96875 119.09375 C 33.636719 116.148438 37.371094 115.195312 40.3125 116.863281 C 43.253906 118.535156 44.207031 122.277344 42.539062 125.21875 C 42.378906 125.539062 31.492188 145.195312 37.292969 167.15625 C 38.167969 170.417969 36.257812 173.761719 33 174.636719 C 32.445312 174.714844 31.96875 174.796875 31.410156 174.796875 Z M 31.410156 174.796875 " fill-opacity="1" fill-rule="nonzero"/><path fill="#000000" d="M 179.234375 162.382812 C 178.917969 162.382812 178.679688 162.382812 178.359375 162.300781 C 175.023438 161.824219 172.71875 158.722656 173.195312 155.378906 C 176.136719 134.847656 157.0625 107.714844 156.824219 107.394531 C 154.835938 104.609375 155.472656 100.871094 158.253906 98.878906 C 161.035156 96.890625 164.769531 97.527344 166.757812 100.3125 C 167.632812 101.585938 188.851562 131.664062 185.273438 157.128906 C 184.796875 160.152344 182.175781 162.382812 179.234375 162.382812 Z M 179.234375 162.382812 " fill-opacity="1" fill-rule="nonzero"/><path fill="#000000" d="M 155.074219 216.414062 C 153.800781 216.414062 152.609375 216.015625 151.496094 215.222656 C 148.796875 213.230469 148.160156 209.410156 150.148438 206.707031 C 153.484375 202.089844 156.027344 181.082031 156.425781 164.054688 C 151.578125 127.765625 132.820312 105.246094 106.277344 103.65625 C 82.355469 102.222656 60.339844 119.410156 53.902344 144.476562 C 53.109375 147.742188 49.769531 149.730469 46.511719 148.855469 C 43.253906 148.058594 41.265625 144.714844 42.140625 141.453125 C 46.113281 125.855469 54.777344 112.726562 67.09375 103.574219 C 78.777344 94.902344 93.003906 90.605469 107.070312 91.398438 C 132.582031 92.914062 162.148438 112.488281 168.664062 162.859375 C 168.742188 163.179688 168.742188 163.496094 168.742188 163.816406 C 168.585938 170.339844 167.472656 203.683594 160.082031 213.789062 C 158.890625 215.539062 156.980469 216.414062 155.074219 216.414062 Z M 155.074219 216.414062 " fill-opacity="1" fill-rule="nonzero"/><path fill="#000000" d="M 51.359375 211.402344 C 49.132812 211.402344 46.988281 210.128906 45.875 208.058594 C 44.367188 205.035156 45.558594 201.375 48.578125 199.863281 C 61.136719 193.574219 61.851562 182.117188 61.929688 163.894531 C 62.007812 145.511719 62.167969 122.59375 88.078125 112.328125 C 107.070312 104.847656 120.898438 111.136719 129.164062 117.738281 C 137.828125 124.664062 142.121094 133.335938 142.277344 133.65625 C 143.789062 136.679688 142.515625 140.339844 139.496094 141.851562 C 136.476562 143.363281 132.820312 142.089844 131.3125 139.066406 C 131.230469 138.90625 127.8125 132.222656 121.296875 127.128906 C 113.03125 120.683594 103.335938 119.570312 92.605469 123.789062 C 74.328125 131.027344 74.25 146.308594 74.167969 164.054688 C 74.089844 181.320312 74.011719 200.898438 54.0625 210.84375 C 53.1875 211.164062 52.3125 211.402344 51.359375 211.402344 Z M 51.359375 211.402344 " fill-opacity="1" fill-rule="nonzero"/><path fill="#000000" d="M 106.992188 232.171875 C 105.800781 232.171875 104.527344 231.773438 103.496094 231.054688 C 100.714844 229.148438 100.078125 225.328125 101.984375 222.542969 C 125.988281 188.246094 125.351562 162.621094 116.765625 150.207031 C 112.953125 144.714844 107.546875 141.851562 102.9375 143.046875 C 97.851562 144.320312 94.355469 150.207031 93.324219 159.199219 C 89.109375 197.632812 72.816406 221.109375 72.101562 222.144531 C 70.195312 224.929688 66.378906 225.566406 63.597656 223.578125 C 60.816406 221.667969 60.179688 217.847656 62.167969 215.0625 C 62.328125 214.824219 77.347656 193.019531 81.164062 157.847656 C 82.753906 143.523438 89.585938 133.734375 99.917969 131.109375 C 109.535156 128.640625 120.105469 133.417969 126.78125 143.203125 C 132.980469 152.195312 135.523438 164.691406 133.855469 178.296875 C 131.867188 194.292969 124.554688 211.558594 112 229.464844 C 110.808594 231.296875 108.898438 232.171875 106.992188 232.171875 Z M 106.992188 232.171875 " fill-opacity="1" fill-rule="nonzero"/><path fill="#000000" d="M 39.757812 196.441406 C 38.085938 196.441406 36.496094 195.804688 35.226562 194.453125 C 32.921875 191.984375 33.082031 188.085938 35.625 185.777344 C 43.015625 179.015625 41.1875 165.566406 41.1875 165.40625 C 40.710938 162.0625 43.015625 158.960938 46.351562 158.484375 C 49.691406 158.003906 52.789062 160.3125 53.265625 163.65625 C 53.425781 164.453125 56.128906 183.628906 43.890625 194.847656 C 42.695312 195.882812 41.1875 196.441406 39.757812 196.441406 Z M 39.757812 196.441406 " fill-opacity="1" fill-rule="nonzero"/><path fill="#000000" d="M 128.53125 229.703125 C 126.621094 229.703125 124.792969 228.828125 123.601562 227.238281 C 121.617188 224.53125 122.171875 220.710938 124.875 218.722656 C 135.363281 211.003906 138.066406 177.5 137.351562 158.246094 C 137.191406 154.902344 139.816406 152.039062 143.234375 151.878906 C 146.570312 151.71875 149.429688 154.34375 149.589844 157.765625 C 149.828125 163.574219 151.257812 214.585938 132.183594 228.589844 C 131.074219 229.304688 129.800781 229.703125 128.53125 229.703125 Z M 128.53125 229.703125 " fill-opacity="1" fill-rule="nonzero"/><path fill="#000000" d="M 101.03125 195.089844 C 100.792969 195.089844 100.476562 195.089844 100.238281 195.007812 C 96.898438 194.53125 94.59375 191.507812 94.992188 188.164062 L 99.757812 153.3125 C 100.238281 149.96875 103.257812 147.660156 106.59375 148.058594 C 109.933594 148.535156 112.238281 151.558594 111.839844 154.902344 L 107.070312 189.757812 C 106.675781 192.859375 104.050781 195.089844 101.03125 195.089844 Z M 101.03125 195.089844 " fill-opacity="1" fill-rule="nonzero"/><path fill="#000000" d="M 82.035156 232.964844 C 80.765625 232.964844 79.414062 232.570312 78.300781 231.691406 C 75.597656 229.625 75.121094 225.804688 77.1875 223.097656 L 91.335938 204.796875 C 93.402344 202.089844 97.214844 201.613281 99.917969 203.683594 C 102.621094 205.75 103.097656 209.570312 101.03125 212.277344 L 86.886719 230.578125 C 85.691406 232.171875 83.863281 232.964844 82.035156 232.964844 Z M 82.035156 232.964844 " fill-opacity="1" fill-rule="nonzero"/><g clip-path="url(#3a57a2a66e)"><path fill="#000000" d="M 204.667969 264.636719 C 201.328125 264.636719 198.546875 261.933594 198.546875 258.511719 L 198.546875 46.441406 C 198.546875 43.097656 201.25 40.3125 204.667969 40.3125 C 208.085938 40.3125 210.785156 43.019531 210.785156 46.441406 L 210.785156 258.511719 C 210.785156 261.933594 208.082031 264.636719 204.667969 264.636719 Z M 204.667969 264.636719 " fill-opacity="1" fill-rule="nonzero"/></g><path fill="#000000" d="M 328.964844 169.78125 L 247.582031 169.78125 C 244.246094 169.78125 241.464844 167.078125 241.464844 163.65625 L 241.464844 136.996094 C 241.464844 118.375 250.761719 103.417969 266.894531 96.015625 C 269.996094 94.582031 273.570312 95.9375 275 99.039062 C 276.433594 102.144531 275.082031 105.722656 271.980469 107.15625 C 265.148438 110.261719 253.625 118.375 253.625 136.996094 L 253.625 157.609375 L 322.765625 157.609375 L 322.765625 136.996094 C 322.765625 118.296875 311.320312 110.261719 304.40625 107.15625 C 301.308594 105.722656 299.957031 102.144531 301.386719 99.039062 C 302.816406 95.9375 306.394531 94.664062 309.492188 96.015625 C 325.707031 103.417969 334.925781 118.375 334.925781 136.996094 L 334.925781 163.65625 C 335.085938 166.996094 332.382812 169.78125 328.964844 169.78125 Z M 328.964844 169.78125 " fill-opacity="1" fill-rule="nonzero"/><path fill="#000000" d="M 288.273438 118.058594 C 272.695312 118.058594 259.980469 105.328125 259.980469 89.730469 C 259.980469 74.132812 272.695312 61.398438 288.273438 61.398438 C 303.851562 61.398438 316.566406 74.132812 316.566406 89.730469 C 316.566406 105.328125 303.851562 118.058594 288.273438 118.058594 Z M 288.273438 73.65625 C 279.453125 73.65625 272.21875 80.894531 272.21875 89.730469 C 272.21875 98.5625 279.453125 105.804688 288.273438 105.804688 C 297.097656 105.804688 304.328125 98.5625 304.328125 89.730469 C 304.328125 80.894531 297.175781 73.65625 288.273438 73.65625 Z M 288.273438 73.65625 " fill-opacity="1" fill-rule="nonzero"/><path fill="#000000" d="M 345.496094 201.375 L 231.050781 201.375 C 227.714844 201.375 224.933594 198.667969 224.933594 195.246094 C 224.933594 191.824219 227.636719 189.121094 231.050781 189.121094 L 345.496094 189.121094 C 348.835938 189.121094 351.617188 191.824219 351.617188 195.246094 C 351.617188 198.667969 348.914062 201.375 345.496094 201.375 Z M 345.496094 201.375 " fill-opacity="1" fill-rule="nonzero"/><path fill="#000000" d="M 345.496094 229.464844 L 231.050781 229.464844 C 227.714844 229.464844 224.933594 226.757812 224.933594 223.335938 C 224.933594 219.914062 227.636719 217.210938 231.050781 217.210938 L 345.496094 217.210938 C 348.835938 217.210938 351.617188 219.914062 351.617188 223.335938 C 351.617188 226.757812 348.914062 229.464844 345.496094 229.464844 Z M 345.496094 229.464844 " fill-opacity="1" fill-rule="nonzero"/><g clip-path="url(#44da5d26ac)"><path fill="#000000" d="M 141.324219 335.0625 C 140.53125 335.0625 139.816406 334.902344 139.019531 334.585938 C 135.921875 333.3125 134.410156 329.730469 135.683594 326.628906 L 164.214844 256.28125 C 165.484375 253.179688 169.0625 251.667969 172.160156 252.941406 C 175.261719 254.214844 176.769531 257.792969 175.5 260.898438 L 146.96875 331.242188 C 146.015625 333.550781 143.710938 335.0625 141.324219 335.0625 Z M 141.324219 335.0625 " fill-opacity="1" fill-rule="nonzero"/></g><g clip-path="url(#c76f537928)"><path fill="#000000" d="M 233.675781 335.0625 C 231.289062 335.0625 228.984375 333.628906 228.03125 331.242188 L 199.5 260.898438 C 198.230469 257.792969 199.738281 254.214844 202.839844 252.941406 C 205.9375 251.667969 209.515625 253.179688 210.785156 256.28125 L 239.316406 326.628906 C 240.589844 329.730469 239.078125 333.3125 235.980469 334.585938 C 235.265625 334.902344 234.46875 335.0625 233.675781 335.0625 Z M 233.675781 335.0625 " fill-opacity="1" fill-rule="nonzero"/></g><g clip-path="url(#2d2c6d2852)"><path fill="#000000" d="M 262.285156 335.0625 L 112.714844 335.0625 C 109.375 335.0625 106.59375 332.355469 106.59375 328.933594 C 106.59375 325.511719 109.296875 322.808594 112.714844 322.808594 L 262.285156 322.808594 C 265.625 322.808594 268.40625 325.511719 268.40625 328.933594 C 268.40625 332.355469 265.625 335.0625 262.285156 335.0625 Z M 262.285156 335.0625 " fill-opacity="1" fill-rule="nonzero"/></g></svg>