<svg xmlns="http://www.w3.org/2000/svg" xmlns:xlink="http://www.w3.org/1999/xlink" width="500" zoomAndPan="magnify" viewBox="0 0 375 374.999991" height="500" preserveAspectRatio="xMidYMid meet" version="1.0"><defs><clipPath id="bcb219c173"><path d="M 2.109375 0 L 300 0 L 300 375 L 2.109375 375 Z M 2.109375 0 " clip-rule="nonzero"/></clipPath><clipPath id="064f48e614"><path d="M 2.109375 304 L 73 304 L 73 375 L 2.109375 375 Z M 2.109375 304 " clip-rule="nonzero"/></clipPath><clipPath id="b805a42cd8"><path d="M 251 94 L 372.609375 94 L 372.609375 286 L 251 286 Z M 251 94 " clip-rule="nonzero"/></clipPath><clipPath id="52626792e5"><path d="M 327 113 L 372.609375 113 L 372.609375 197 L 327 197 Z M 327 113 " clip-rule="nonzero"/></clipPath></defs><g clip-path="url(#bcb219c173)"><path fill="currentColor" d="M 293.457031 375 L 66.925781 375 C 65.40625 375 63.972656 374.410156 62.875 373.3125 L 3.839844 314.398438 C 2.742188 313.300781 2.152344 311.867188 2.152344 310.347656 L 2.152344 5.65625 C 2.152344 2.53125 4.683594 0 7.804688 0 L 293.457031 0 C 296.578125 0 299.109375 2.53125 299.109375 5.65625 L 299.109375 185.9375 C 299.109375 189.0625 296.578125 191.59375 293.457031 191.59375 C 290.335938 191.59375 287.804688 189.0625 287.804688 185.9375 L 287.804688 11.308594 L 13.539062 11.308594 L 13.539062 307.984375 L 69.285156 363.519531 L 287.722656 363.519531 L 287.722656 246.792969 C 287.722656 243.667969 290.253906 241.136719 293.371094 241.136719 C 296.492188 241.136719 299.023438 243.667969 299.023438 246.792969 L 299.023438 369.261719 C 299.109375 372.382812 296.578125 375 293.457031 375 Z M 293.457031 375 " fill-opacity="1" fill-rule="evenodd"/></g><g clip-path="url(#064f48e614)"><path fill="currentColor" d="M 66.925781 375 C 63.804688 375 61.273438 372.46875 61.273438 369.34375 L 61.273438 316.085938 L 7.886719 316.085938 C 4.765625 316.085938 2.238281 313.554688 2.238281 310.433594 C 2.238281 307.308594 4.765625 304.777344 7.886719 304.777344 L 66.925781 304.777344 C 68.441406 304.777344 69.875 305.367188 70.972656 306.464844 C 72.070312 307.5625 72.660156 308.996094 72.660156 310.515625 L 72.660156 369.429688 C 72.660156 372.382812 70.042969 375 66.925781 375 Z M 66.925781 375 " fill-opacity="1" fill-rule="evenodd"/></g><path fill="currentColor" d="M 45.839844 89.804688 L 257.023438 89.804688 L 257.023438 47.179688 L 45.839844 47.179688 Z M 262.671875 101.199219 L 40.1875 101.199219 C 37.066406 101.199219 34.539062 98.667969 34.539062 95.542969 L 34.539062 41.527344 C 34.539062 38.402344 37.066406 35.871094 40.1875 35.871094 L 262.671875 35.871094 C 265.792969 35.871094 268.324219 38.402344 268.324219 41.527344 L 268.324219 95.542969 C 268.410156 98.582031 265.792969 101.199219 262.671875 101.199219 Z M 262.671875 101.199219 " fill-opacity="1" fill-rule="evenodd"/><g clip-path="url(#b805a42cd8)"><path fill="currentColor" d="M 264.867188 245.949219 L 263.601562 268.652344 L 282.238281 254.980469 L 359.578125 119.007812 C 360.757812 116.980469 361.011719 114.535156 360.421875 112.253906 C 359.746094 109.976562 358.3125 108.121094 356.203125 106.9375 C 352.074219 104.660156 346.84375 106.09375 344.480469 110.144531 Z M 257.277344 285.957031 C 256.347656 285.957031 255.421875 285.703125 254.578125 285.28125 C 252.636719 284.265625 251.457031 282.15625 251.625 279.960938 L 253.648438 243.921875 C 253.734375 242.996094 253.988281 242.152344 254.410156 241.390625 L 334.699219 104.488281 C 340.265625 95.039062 352.070312 91.746094 361.6875 97.0625 C 366.492188 99.679688 369.867188 103.984375 371.386719 109.214844 C 372.902344 114.449219 372.230469 119.9375 369.53125 124.664062 L 291.601562 261.730469 C 291.179688 262.40625 290.675781 262.996094 290 263.503906 L 260.648438 284.941406 C 259.636719 285.617188 258.457031 285.957031 257.277344 285.957031 Z M 257.277344 285.957031 " fill-opacity="1" fill-rule="evenodd"/></g><path fill="currentColor" d="M 286.542969 264.601562 C 285.613281 264.601562 284.6875 264.347656 283.84375 263.925781 L 256.515625 249.324219 C 253.734375 247.804688 252.722656 244.429688 254.15625 241.644531 C 255.671875 238.859375 259.046875 237.847656 261.832031 239.28125 L 289.15625 253.882812 C 291.9375 255.402344 292.949219 258.777344 291.515625 261.5625 C 290.589844 263.503906 288.566406 264.601562 286.542969 264.601562 Z M 286.542969 264.601562 " fill-opacity="1" fill-rule="evenodd"/><g clip-path="url(#52626792e5)"><path fill="currentColor" d="M 346.589844 196.996094 C 345.578125 196.996094 344.566406 196.742188 343.636719 196.152344 C 340.941406 194.546875 340.097656 191.003906 341.78125 188.300781 L 358.988281 160.28125 C 363.375 153.191406 361.179688 143.738281 354.179688 139.265625 L 329.722656 123.566406 C 327.109375 121.878906 326.347656 118.332031 328.035156 115.714844 C 329.722656 113.097656 333.265625 112.339844 335.878906 114.027344 L 360.335938 129.726562 C 372.480469 137.574219 376.191406 153.949219 368.6875 166.273438 L 351.480469 194.378906 C 350.386719 196.066406 348.53125 196.996094 346.589844 196.996094 Z M 346.589844 196.996094 " fill-opacity="1" fill-rule="evenodd"/></g><path fill="currentColor" d="M 262.335938 138.335938 L 37.320312 138.335938 C 34.199219 138.335938 31.671875 135.804688 31.671875 132.679688 C 31.671875 129.558594 34.199219 127.027344 37.320312 127.027344 L 262.335938 127.027344 C 265.457031 127.027344 267.988281 129.558594 267.988281 132.679688 C 267.988281 135.804688 265.457031 138.335938 262.335938 138.335938 Z M 262.335938 138.335938 " fill-opacity="1" fill-rule="evenodd"/><path fill="currentColor" d="M 262.335938 169.988281 L 37.320312 169.988281 C 34.199219 169.988281 31.671875 167.453125 31.671875 164.332031 C 31.671875 161.207031 34.199219 158.675781 37.320312 158.675781 L 262.335938 158.675781 C 265.457031 158.675781 267.988281 161.207031 267.988281 164.332031 C 267.988281 167.453125 265.457031 169.988281 262.335938 169.988281 Z M 262.335938 169.988281 " fill-opacity="1" fill-rule="evenodd"/><path fill="currentColor" d="M 262.335938 203.242188 L 37.320312 203.242188 C 34.199219 203.242188 31.671875 200.707031 31.671875 197.585938 C 31.671875 194.464844 34.199219 191.929688 37.320312 191.929688 L 262.335938 191.929688 C 265.457031 191.929688 267.988281 194.464844 267.988281 197.585938 C 267.988281 200.707031 265.457031 203.242188 262.335938 203.242188 Z M 262.335938 203.242188 " fill-opacity="1" fill-rule="evenodd"/><path fill="currentColor" d="M 155.480469 234.976562 L 37.320312 234.976562 C 34.199219 234.976562 31.671875 232.445312 31.671875 229.320312 C 31.671875 226.199219 34.199219 223.667969 37.320312 223.667969 L 155.5625 223.667969 C 158.683594 223.667969 161.214844 226.199219 161.214844 229.320312 C 161.214844 232.445312 158.601562 234.976562 155.480469 234.976562 Z M 155.480469 234.976562 " fill-opacity="1" fill-rule="evenodd"/><path fill="currentColor" d="M 205.238281 334.992188 C 204.058594 334.992188 202.792969 334.824219 201.613281 334.488281 C 194.191406 332.292969 189.300781 323.683594 185.671875 306.550781 C 183.3125 295.324219 179.347656 288.992188 173.863281 287.8125 C 159.273438 284.6875 132.117188 313.132812 118.453125 331.871094 C 116.597656 334.402344 113.058594 334.910156 110.527344 333.050781 C 107.996094 331.195312 107.492188 327.648438 109.347656 325.117188 C 109.769531 324.613281 119.128906 311.78125 131.695312 299.460938 C 149.574219 281.820312 164.589844 274.222656 176.3125 276.753906 C 186.515625 278.949219 193.433594 288.148438 196.804688 304.1875 C 200.515625 321.742188 204.480469 323.429688 204.902344 323.597656 C 207.515625 324.359375 214.433594 317.523438 218.566406 313.46875 C 226.238281 305.875 234.167969 298.023438 243.527344 298.785156 C 248.421875 299.207031 252.804688 301.992188 256.433594 306.972656 C 258.289062 309.503906 257.699219 313.046875 255.167969 314.90625 C 252.636719 316.761719 249.09375 316.171875 247.238281 313.640625 C 245.636719 311.359375 244.035156 310.179688 242.601562 310.09375 C 238.46875 309.757812 231.890625 316.257812 226.578125 321.488281 C 219.828125 328.15625 212.828125 334.992188 205.238281 334.992188 Z M 205.238281 334.992188 " fill-opacity="1" fill-rule="evenodd"/></svg>