<svg xmlns="http://www.w3.org/2000/svg" xmlns:xlink="http://www.w3.org/1999/xlink" width="500" zoomAndPan="magnify" viewBox="0 0 375 374.999991" height="500" preserveAspectRatio="xMidYMid meet" version="1.0"><path fill="#000000" d="M 86.152344 240.585938 C 54.816406 212.445312 52.125 160.542969 86.160156 129.398438 C 75.660156 119.546875 68.355469 107.804688 64.234375 93.882812 C 53.890625 58.917969 73.527344 18.386719 107.828125 5.878906 C 116.140625 2.847656 125.273438 0.707031 134.0625 0.574219 C 171.871094 0 209.691406 0.117188 247.503906 0.386719 C 282.8125 0.640625 313.429688 26.832031 318.855469 61.734375 C 322.675781 86.320312 316.21875 108.160156 298.570312 126.214844 C 297.527344 127.28125 296.246094 128.113281 294.886719 129.210938 C 309.988281 143.910156 318.914062 160.726562 319.714844 181.582031 C 320.421875 199.933594 315.414062 216.246094 304.234375 230.71875 C 285.859375 254.5 248.738281 269.675781 209.625 249.640625 C 209.539062 251.394531 209.421875 252.9375 209.398438 254.484375 C 209.164062 270.992188 209.804688 287.570312 208.539062 304 C 206.1875 334.535156 182.394531 361.078125 152.710938 367.832031 C 121.167969 375.011719 88.664062 361.546875 72.558594 334.628906 C 54.511719 304.472656 58.945312 268.324219 83.765625 243.1875 C 84.589844 242.351562 85.359375 241.453125 86.152344 240.585938 Z M 172.015625 221.96875 L 172.015625 148.152344 C 159.351562 148.152344 147.0625 148.109375 134.769531 148.164062 C 115.484375 148.25 99.242188 164.125 98.558594 183.480469 C 97.855469 203.289062 112.71875 220.792969 132.039062 221.835938 C 145.191406 222.542969 158.414062 221.96875 172.015625 221.96875 Z M 209.714844 111.019531 C 222.394531 111.019531 234.527344 111.121094 246.65625 110.996094 C 266.871094 110.785156 282.839844 94.78125 283.097656 74.644531 C 283.113281 73.441406 283.074219 72.242188 282.972656 71.046875 C 282.875 69.851562 282.71875 68.664062 282.5 67.480469 C 282.285156 66.300781 282.011719 65.132812 281.683594 63.976562 C 281.351562 62.824219 280.964844 61.6875 280.523438 60.574219 C 280.082031 59.457031 279.585938 58.363281 279.039062 57.296875 C 278.492188 56.226562 277.890625 55.191406 277.242188 54.179688 C 276.589844 53.171875 275.890625 52.199219 275.148438 51.257812 C 274.402344 50.316406 273.609375 49.414062 272.777344 48.550781 C 271.941406 47.6875 271.070312 46.867188 270.152344 46.089844 C 269.238281 45.3125 268.289062 44.582031 267.304688 43.898438 C 266.316406 43.214844 265.300781 42.582031 264.25 41.996094 C 263.203125 41.414062 262.128906 40.882812 261.027344 40.402344 C 259.929688 39.925781 258.808594 39.5 257.664062 39.132812 C 256.523438 38.761719 255.367188 38.453125 254.195312 38.195312 C 253.023438 37.941406 251.839844 37.742188 250.648438 37.605469 C 249.457031 37.464844 248.261719 37.382812 247.0625 37.363281 C 235.371094 37.140625 223.671875 37.3125 211.976562 37.324219 C 211.273438 37.324219 210.566406 37.511719 209.71875 37.632812 Z M 171.816406 37.488281 C 158.164062 37.488281 144.792969 36.671875 131.5625 37.679688 C 111.542969 39.207031 97.46875 56.566406 98.605469 76.746094 C 99.683594 95.914062 115.691406 110.894531 135.253906 111.007812 C 143.503906 111.054688 151.75 111.015625 160 111.019531 L 171.816406 111.019531 Z M 171.722656 259.152344 C 159.621094 259.152344 147.5 258.773438 135.417969 259.324219 C 129.882812 259.574219 124.050781 260.8125 119.007812 263.070312 C 103.566406 269.976562 95.308594 288.410156 99.574219 304.863281 C 104.054688 322.152344 119.5 333.613281 137.226562 332.804688 C 154.453125 332.019531 169.972656 319.027344 171.46875 302.140625 C 172.707031 288.183594 171.722656 274.03125 171.722656 259.152344 Z M 209.5 185.101562 C 209.503906 205.71875 225.738281 222.0625 246.21875 222.070312 C 266.496094 222.074219 283.109375 205.40625 283.101562 185.054688 C 283.101562 183.84375 283.039062 182.640625 282.921875 181.433594 C 282.800781 180.230469 282.621094 179.039062 282.386719 177.851562 C 282.148438 176.664062 281.855469 175.496094 281.503906 174.335938 C 281.148438 173.179688 280.742188 172.042969 280.277344 170.925781 C 279.816406 169.808594 279.296875 168.71875 278.726562 167.652344 C 278.15625 166.585938 277.535156 165.550781 276.863281 164.546875 C 276.191406 163.539062 275.472656 162.570312 274.703125 161.636719 C 273.9375 160.703125 273.125 159.808594 272.269531 158.953125 C 271.414062 158.097656 270.519531 157.289062 269.585938 156.523438 C 268.648438 155.753906 267.679688 155.035156 266.675781 154.367188 C 265.667969 153.695312 264.632812 153.074219 263.566406 152.503906 C 262.5 151.9375 261.410156 151.421875 260.292969 150.957031 C 259.175781 150.496094 258.039062 150.089844 256.882812 149.738281 C 255.726562 149.390625 254.554688 149.097656 253.371094 148.859375 C 252.183594 148.625 250.988281 148.449219 249.789062 148.332031 C 248.585938 148.214844 247.378906 148.15625 246.171875 148.15625 C 225.628906 148.171875 209.492188 164.429688 209.5 185.101562 Z M 209.5 185.101562 " fill-opacity="1" fill-rule="nonzero"/></svg>