<svg xmlns="http://www.w3.org/2000/svg" xmlns:xlink="http://www.w3.org/1999/xlink" width="500" zoomAndPan="magnify" viewBox="0 0 375 374.999991" height="500" preserveAspectRatio="xMidYMid meet" version="1.0"><path fill="#ffffff" d="M 91.234375 0 L 283.765625 0 C 285.257812 0 286.75 0.0351562 288.242188 0.109375 C 289.734375 0.183594 291.222656 0.292969 292.707031 0.4375 C 294.195312 0.585938 295.675781 0.769531 297.152344 0.988281 C 298.628906 1.207031 300.101562 1.460938 301.566406 1.753906 C 303.03125 2.042969 304.484375 2.371094 305.933594 2.734375 C 307.382812 3.097656 308.820312 3.496094 310.25 3.929688 C 311.679688 4.363281 313.097656 4.832031 314.5 5.332031 C 315.90625 5.835938 317.300781 6.375 318.679688 6.945312 C 320.058594 7.515625 321.425781 8.121094 322.773438 8.757812 C 324.125 9.398438 325.457031 10.070312 326.773438 10.773438 C 328.089844 11.476562 329.390625 12.210938 330.667969 12.980469 C 331.949219 13.746094 333.210938 14.546875 334.453125 15.375 C 335.695312 16.207031 336.914062 17.066406 338.113281 17.953125 C 339.3125 18.84375 340.488281 19.761719 341.644531 20.710938 C 342.796875 21.65625 343.929688 22.632812 345.035156 23.632812 C 346.140625 24.636719 347.222656 25.664062 348.277344 26.722656 C 349.335938 27.777344 350.363281 28.859375 351.367188 29.964844 C 352.367188 31.070312 353.34375 32.203125 354.289062 33.355469 C 355.238281 34.511719 356.15625 35.6875 357.046875 36.886719 C 357.933594 38.085938 358.792969 39.304688 359.625 40.546875 C 360.453125 41.789062 361.253906 43.050781 362.019531 44.332031 C 362.789062 45.609375 363.523438 46.910156 364.226562 48.226562 C 364.929688 49.542969 365.601562 50.875 366.242188 52.226562 C 366.878906 53.574219 367.484375 54.941406 368.054688 56.320312 C 368.625 57.699219 369.164062 59.09375 369.667969 60.496094 C 370.167969 61.902344 370.636719 63.320312 371.070312 64.75 C 371.503906 66.179688 371.902344 67.617188 372.265625 69.066406 C 372.628906 70.515625 372.957031 71.96875 373.246094 73.433594 C 373.539062 74.898438 373.792969 76.371094 374.011719 77.847656 C 374.230469 79.324219 374.414062 80.804688 374.5625 82.292969 C 374.707031 83.777344 374.816406 85.265625 374.890625 86.757812 C 374.964844 88.25 375 89.742188 375 91.234375 L 375 283.765625 C 375 285.257812 374.964844 286.75 374.890625 288.242188 C 374.816406 289.734375 374.707031 291.222656 374.5625 292.707031 C 374.414062 294.195312 374.230469 295.675781 374.011719 297.152344 C 373.792969 298.628906 373.539062 300.101562 373.246094 301.566406 C 372.957031 303.03125 372.628906 304.484375 372.265625 305.933594 C 371.902344 307.382812 371.503906 308.820312 371.070312 310.25 C 370.636719 311.679688 370.167969 313.097656 369.667969 314.5 C 369.164062 315.90625 368.625 317.300781 368.054688 318.679688 C 367.484375 320.058594 366.878906 321.425781 366.242188 322.773438 C 365.601562 324.125 364.929688 325.457031 364.226562 326.773438 C 363.523438 328.089844 362.789062 329.390625 362.019531 330.667969 C 361.253906 331.949219 360.453125 333.210938 359.625 334.453125 C 358.792969 335.695312 357.933594 336.914062 357.046875 338.113281 C 356.15625 339.3125 355.238281 340.488281 354.289062 341.644531 C 353.34375 342.796875 352.367188 343.929688 351.367188 345.035156 C 350.363281 346.140625 349.332031 347.222656 348.277344 348.277344 C 347.222656 349.335938 346.140625 350.363281 345.035156 351.367188 C 343.929688 352.367188 342.796875 353.34375 341.644531 354.289062 C 340.488281 355.238281 339.3125 356.15625 338.113281 357.046875 C 336.914062 357.933594 335.695312 358.792969 334.453125 359.625 C 333.210938 360.453125 331.949219 361.253906 330.667969 362.019531 C 329.390625 362.789062 328.089844 363.523438 326.773438 364.226562 C 325.457031 364.929688 324.125 365.601562 322.773438 366.242188 C 321.425781 366.878906 320.058594 367.484375 318.679688 368.054688 C 317.300781 368.625 315.90625 369.164062 314.5 369.667969 C 313.097656 370.167969 311.679688 370.636719 310.25 371.070312 C 308.820312 371.503906 307.382812 371.902344 305.933594 372.265625 C 304.484375 372.628906 303.03125 372.957031 301.566406 373.246094 C 300.101562 373.539062 298.628906 373.792969 297.152344 374.011719 C 295.675781 374.230469 294.195312 374.414062 292.707031 374.5625 C 291.222656 374.707031 289.734375 374.816406 288.242188 374.890625 C 286.75 374.964844 285.257812 375 283.765625 375 L 91.234375 375 C 89.742188 375 88.25 374.964844 86.757812 374.890625 C 85.265625 374.816406 83.777344 374.707031 82.292969 374.5625 C 80.804688 374.414062 79.324219 374.230469 77.847656 374.011719 C 76.371094 373.792969 74.898438 373.539062 73.433594 373.246094 C 71.96875 372.957031 70.515625 372.628906 69.066406 372.265625 C 67.617188 371.902344 66.179688 371.503906 64.75 371.070312 C 63.320312 370.636719 61.902344 370.167969 60.496094 369.667969 C 59.09375 369.164062 57.699219 368.625 56.320312 368.054688 C 54.941406 367.484375 53.574219 366.878906 52.226562 366.242188 C 50.875 365.601562 49.542969 364.929688 48.226562 364.226562 C 46.910156 363.523438 45.609375 362.789062 44.332031 362.019531 C 43.050781 361.253906 41.789062 360.453125 40.546875 359.625 C 39.304688 358.792969 38.085938 357.933594 36.886719 357.046875 C 35.6875 356.15625 34.511719 355.238281 33.355469 354.289062 C 32.203125 353.34375 31.070312 352.367188 29.964844 351.367188 C 28.859375 350.363281 27.777344 349.332031 26.722656 348.277344 C 25.664062 347.222656 24.636719 346.140625 23.632812 345.035156 C 22.632812 343.929688 21.65625 342.796875 20.710938 341.644531 C 19.761719 340.488281 18.84375 339.3125 17.953125 338.113281 C 17.066406 336.914062 16.207031 335.695312 15.375 334.453125 C 14.546875 333.210938 13.746094 331.949219 12.980469 330.667969 C 12.210938 329.390625 11.476562 328.089844 10.773438 326.773438 C 10.070312 325.457031 9.398438 324.125 8.757812 322.773438 C 8.121094 321.425781 7.515625 320.058594 6.945312 318.679688 C 6.375 317.300781 5.835938 315.90625 5.332031 314.5 C 4.832031 313.097656 4.363281 311.679688 3.929688 310.25 C 3.496094 308.820312 3.097656 307.382812 2.734375 305.933594 C 2.371094 304.484375 2.042969 303.03125 1.753906 301.566406 C 1.460938 300.101562 1.207031 298.628906 0.988281 297.152344 C 0.769531 295.675781 0.585938 294.195312 0.4375 292.707031 C 0.292969 291.222656 0.183594 289.734375 0.109375 288.242188 C 0.0351562 286.75 0 285.257812 0 283.765625 L 0 91.234375 C 0 89.742188 0.0351562 88.25 0.109375 86.757812 C 0.183594 85.265625 0.292969 83.777344 0.4375 82.292969 C 0.585938 80.804688 0.769531 79.324219 0.988281 77.847656 C 1.207031 76.371094 1.460938 74.898438 1.753906 73.433594 C 2.042969 71.96875 2.371094 70.515625 2.734375 69.066406 C 3.097656 67.617188 3.496094 66.179688 3.929688 64.75 C 4.363281 63.320312 4.832031 61.902344 5.332031 60.496094 C 5.835938 59.09375 6.375 57.699219 6.945312 56.320312 C 7.515625 54.941406 8.121094 53.574219 8.757812 52.226562 C 9.398438 50.875 10.070312 49.542969 10.773438 48.226562 C 11.476562 46.910156 12.210938 45.609375 12.980469 44.332031 C 13.746094 43.050781 14.546875 41.789062 15.375 40.546875 C 16.207031 39.304688 17.066406 38.085938 17.953125 36.886719 C 18.84375 35.6875 19.761719 34.511719 20.710938 33.355469 C 21.65625 32.203125 22.632812 31.070312 23.632812 29.964844 C 24.636719 28.859375 25.664062 27.777344 26.722656 26.722656 C 27.777344 25.664062 28.859375 24.636719 29.964844 23.632812 C 31.070312 22.632812 32.203125 21.65625 33.355469 20.710938 C 34.511719 19.761719 35.6875 18.84375 36.886719 17.953125 C 38.085938 17.066406 39.304688 16.207031 40.546875 15.375 C 41.789062 14.546875 43.050781 13.746094 44.332031 12.980469 C 45.609375 12.210938 46.910156 11.476562 48.226562 10.773438 C 49.542969 10.070312 50.875 9.398438 52.226562 8.757812 C 53.574219 8.121094 54.941406 7.515625 56.320312 6.945312 C 57.699219 6.375 59.09375 5.835938 60.496094 5.332031 C 61.902344 4.832031 63.320312 4.363281 64.75 3.929688 C 66.179688 3.496094 67.617188 3.097656 69.066406 2.734375 C 70.515625 2.371094 71.96875 2.042969 73.433594 1.753906 C 74.898438 1.460938 76.371094 1.207031 77.847656 0.988281 C 79.324219 0.769531 80.804688 0.585938 82.292969 0.4375 C 83.777344 0.292969 85.265625 0.183594 86.757812 0.109375 C 88.25 0.0351562 89.742188 0 91.234375 0 Z M 91.234375 0 " fill-opacity="1" fill-rule="nonzero"/><path fill="#000000" d="M 265.375 309.375 L 109.625 309.375 C 108.183594 309.375 106.746094 309.300781 105.3125 309.160156 C 103.878906 309.015625 102.457031 308.804688 101.042969 308.519531 C 99.628906 308.238281 98.234375 307.886719 96.855469 307.46875 C 95.480469 307.050781 94.125 306.566406 92.792969 306.011719 C 91.464844 305.460938 90.164062 304.84375 88.890625 304.164062 C 87.621094 303.484375 86.386719 302.746094 85.191406 301.945312 C 83.992188 301.144531 82.835938 300.285156 81.722656 299.371094 C 80.609375 298.457031 79.542969 297.492188 78.527344 296.472656 C 77.507812 295.457031 76.542969 294.390625 75.628906 293.277344 C 74.714844 292.164062 73.855469 291.007812 73.054688 289.808594 C 72.253906 288.613281 71.515625 287.378906 70.835938 286.109375 C 70.15625 284.835938 69.539062 283.535156 68.988281 282.207031 C 68.433594 280.875 67.949219 279.519531 67.53125 278.144531 C 67.113281 276.765625 66.761719 275.371094 66.476562 273.957031 C 66.195312 272.542969 65.984375 271.121094 65.839844 269.6875 C 65.699219 268.253906 65.625 266.816406 65.625 265.375 L 65.625 109.625 C 65.625 108.183594 65.699219 106.746094 65.839844 105.3125 C 65.984375 103.878906 66.195312 102.457031 66.476562 101.042969 C 66.761719 99.628906 67.113281 98.234375 67.53125 96.855469 C 67.949219 95.480469 68.433594 94.125 68.988281 92.792969 C 69.539062 91.464844 70.15625 90.164062 70.835938 88.890625 C 71.515625 87.621094 72.253906 86.386719 73.054688 85.191406 C 73.855469 83.992188 74.714844 82.835938 75.628906 81.722656 C 76.542969 80.609375 77.507812 79.542969 78.527344 78.527344 C 79.542969 77.507812 80.609375 76.542969 81.722656 75.628906 C 82.835938 74.714844 83.992188 73.855469 85.191406 73.054688 C 86.386719 72.253906 87.621094 71.515625 88.890625 70.835938 C 90.164062 70.15625 91.464844 69.539062 92.792969 68.988281 C 94.125 68.433594 95.480469 67.949219 96.855469 67.53125 C 98.234375 67.113281 99.628906 66.761719 101.042969 66.476562 C 102.457031 66.195312 103.878906 65.984375 105.3125 65.839844 C 106.746094 65.699219 108.183594 65.625 109.625 65.625 L 265.375 65.625 C 266.816406 65.625 268.253906 65.699219 269.6875 65.839844 C 271.121094 65.984375 272.542969 66.195312 273.957031 66.476562 C 275.371094 66.761719 276.765625 67.113281 278.144531 67.53125 C 279.519531 67.949219 280.875 68.433594 282.207031 68.988281 C 283.535156 69.539062 284.835938 70.15625 286.109375 70.835938 C 287.378906 71.515625 288.613281 72.253906 289.808594 73.054688 C 291.007812 73.855469 292.164062 74.714844 293.277344 75.628906 C 294.390625 76.542969 295.457031 77.507812 296.472656 78.527344 C 297.492188 79.542969 298.457031 80.609375 299.371094 81.722656 C 300.285156 82.835938 301.144531 83.992188 301.945312 85.191406 C 302.746094 86.386719 303.484375 87.621094 304.164062 88.890625 C 304.84375 90.164062 305.460938 91.464844 306.011719 92.792969 C 306.566406 94.125 307.050781 95.480469 307.46875 96.855469 C 307.886719 98.234375 308.238281 99.628906 308.519531 101.042969 C 308.804688 102.457031 309.015625 103.878906 309.160156 105.3125 C 309.300781 106.746094 309.375 108.183594 309.375 109.625 L 309.375 265.375 C 309.375 266.816406 309.300781 268.253906 309.160156 269.6875 C 309.015625 271.121094 308.804688 272.542969 308.519531 273.957031 C 308.238281 275.371094 307.886719 276.765625 307.46875 278.144531 C 307.050781 279.519531 306.566406 280.875 306.011719 282.207031 C 305.460938 283.535156 304.84375 284.835938 304.164062 286.109375 C 303.484375 287.378906 302.746094 288.613281 301.945312 289.808594 C 301.144531 291.007812 300.285156 292.164062 299.371094 293.277344 C 298.457031 294.390625 297.492188 295.457031 296.472656 296.472656 C 295.457031 297.492188 294.390625 298.457031 293.277344 299.371094 C 292.164062 300.285156 291.007812 301.144531 289.808594 301.945312 C 288.613281 302.746094 287.378906 303.484375 286.109375 304.164062 C 284.835938 304.84375 283.535156 305.460938 282.207031 306.011719 C 280.875 306.566406 279.519531 307.050781 278.144531 307.46875 C 276.765625 307.886719 275.371094 308.238281 273.957031 308.519531 C 272.542969 308.804688 271.121094 309.015625 269.6875 309.160156 C 268.253906 309.300781 266.816406 309.375 265.375 309.375 Z M 109.625 73.398438 C 108.4375 73.398438 107.253906 73.460938 106.074219 73.578125 C 104.894531 73.695312 103.722656 73.871094 102.558594 74.101562 C 101.398438 74.335938 100.246094 74.625 99.113281 74.96875 C 97.980469 75.3125 96.863281 75.714844 95.769531 76.167969 C 94.671875 76.621094 93.601562 77.128906 92.554688 77.6875 C 91.511719 78.25 90.496094 78.859375 89.507812 79.515625 C 88.523438 80.175781 87.570312 80.882812 86.65625 81.636719 C 85.738281 82.386719 84.859375 83.183594 84.023438 84.023438 C 83.183594 84.859375 82.386719 85.738281 81.636719 86.65625 C 80.882812 87.570312 80.175781 88.523438 79.515625 89.507812 C 78.859375 90.496094 78.25 91.511719 77.6875 92.554688 C 77.128906 93.601562 76.621094 94.671875 76.167969 95.769531 C 75.714844 96.863281 75.3125 97.980469 74.96875 99.113281 C 74.625 100.246094 74.335938 101.398438 74.101562 102.558594 C 73.871094 103.722656 73.695312 104.894531 73.578125 106.074219 C 73.460938 107.253906 73.398438 108.4375 73.398438 109.625 L 73.398438 265.375 C 73.398438 266.5625 73.460938 267.746094 73.578125 268.925781 C 73.695312 270.105469 73.871094 271.277344 74.101562 272.441406 C 74.335938 273.601562 74.625 274.753906 74.96875 275.886719 C 75.3125 277.019531 75.714844 278.136719 76.167969 279.230469 C 76.621094 280.328125 77.128906 281.398438 77.6875 282.445312 C 78.25 283.488281 78.859375 284.503906 79.515625 285.492188 C 80.175781 286.476562 80.882812 287.429688 81.636719 288.34375 C 82.386719 289.261719 83.183594 290.140625 84.023438 290.976562 C 84.859375 291.816406 85.738281 292.613281 86.65625 293.363281 C 87.570312 294.117188 88.523438 294.824219 89.507812 295.484375 C 90.496094 296.140625 91.511719 296.75 92.554688 297.3125 C 93.601562 297.871094 94.671875 298.378906 95.769531 298.832031 C 96.863281 299.285156 97.980469 299.6875 99.113281 300.03125 C 100.246094 300.375 101.398438 300.664062 102.558594 300.898438 C 103.722656 301.128906 104.894531 301.304688 106.074219 301.421875 C 107.253906 301.539062 108.4375 301.601562 109.625 301.601562 L 265.375 301.601562 C 266.5625 301.601562 267.746094 301.539062 268.925781 301.421875 C 270.105469 301.304688 271.277344 301.128906 272.441406 300.898438 C 273.601562 300.664062 274.753906 300.375 275.886719 300.03125 C 277.019531 299.6875 278.136719 299.285156 279.230469 298.832031 C 280.328125 298.378906 281.398438 297.871094 282.445312 297.3125 C 283.488281 296.75 284.503906 296.140625 285.492188 295.480469 C 286.476562 294.824219 287.429688 294.117188 288.34375 293.363281 C 289.261719 292.613281 290.140625 291.816406 290.976562 290.976562 C 291.816406 290.140625 292.613281 289.261719 293.363281 288.34375 C 294.117188 287.429688 294.824219 286.476562 295.480469 285.492188 C 296.140625 284.503906 296.75 283.488281 297.3125 282.445312 C 297.871094 281.398438 298.378906 280.328125 298.832031 279.230469 C 299.285156 278.136719 299.6875 277.019531 300.03125 275.886719 C 300.375 274.753906 300.664062 273.601562 300.898438 272.441406 C 301.128906 271.277344 301.304688 270.105469 301.421875 268.925781 C 301.539062 267.746094 301.601562 266.5625 301.601562 265.375 L 301.601562 109.625 C 301.601562 108.4375 301.539062 107.253906 301.421875 106.074219 C 301.304688 104.894531 301.128906 103.722656 300.898438 102.558594 C 300.664062 101.398438 300.375 100.246094 300.03125 99.113281 C 299.6875 97.980469 299.285156 96.863281 298.832031 95.769531 C 298.378906 94.671875 297.871094 93.601562 297.3125 92.554688 C 296.75 91.511719 296.140625 90.496094 295.480469 89.507812 C 294.824219 88.523438 294.117188 87.570312 293.363281 86.65625 C 292.613281 85.738281 291.816406 84.859375 290.976562 84.023438 C 290.140625 83.183594 289.261719 82.386719 288.34375 81.636719 C 287.429688 80.882812 286.476562 80.175781 285.492188 79.515625 C 284.503906 78.859375 283.488281 78.25 282.445312 77.6875 C 281.398438 77.128906 280.328125 76.621094 279.230469 76.167969 C 278.136719 75.714844 277.019531 75.3125 275.886719 74.96875 C 274.753906 74.625 273.601562 74.335938 272.441406 74.101562 C 271.277344 73.871094 270.105469 73.695312 268.925781 73.578125 C 267.746094 73.460938 266.5625 73.398438 265.375 73.398438 Z M 109.625 73.398438 " fill-opacity="1" fill-rule="nonzero"/><path fill="#000000" d="M 265.375 289.125 L 109.625 289.125 C 108.847656 289.125 108.070312 289.085938 107.296875 289.007812 C 106.523438 288.933594 105.753906 288.820312 104.992188 288.667969 C 104.230469 288.515625 103.476562 288.324219 102.730469 288.101562 C 101.988281 287.875 101.253906 287.613281 100.539062 287.3125 C 99.820312 287.015625 99.117188 286.683594 98.429688 286.316406 C 97.746094 285.949219 97.078125 285.550781 96.433594 285.117188 C 95.785156 284.6875 95.160156 284.222656 94.5625 283.730469 C 93.960938 283.238281 93.382812 282.714844 92.835938 282.164062 C 92.285156 281.617188 91.761719 281.039062 91.269531 280.4375 C 90.777344 279.839844 90.3125 279.214844 89.878906 278.566406 C 89.449219 277.921875 89.050781 277.253906 88.683594 276.570312 C 88.316406 275.882812 87.984375 275.179688 87.6875 274.460938 C 87.386719 273.746094 87.125 273.011719 86.898438 272.269531 C 86.675781 271.523438 86.484375 270.769531 86.332031 270.007812 C 86.179688 269.246094 86.066406 268.476562 85.992188 267.703125 C 85.914062 266.929688 85.875 266.152344 85.875 265.375 L 85.875 109.625 C 85.875 108.847656 85.914062 108.070312 85.992188 107.296875 C 86.066406 106.523438 86.179688 105.753906 86.332031 104.992188 C 86.484375 104.230469 86.675781 103.476562 86.898438 102.730469 C 87.125 101.988281 87.386719 101.253906 87.6875 100.539062 C 87.984375 99.820312 88.316406 99.117188 88.683594 98.429688 C 89.050781 97.746094 89.449219 97.078125 89.878906 96.433594 C 90.3125 95.785156 90.777344 95.160156 91.269531 94.5625 C 91.761719 93.960938 92.285156 93.382812 92.835938 92.835938 C 93.382812 92.285156 93.960938 91.761719 94.5625 91.269531 C 95.160156 90.777344 95.785156 90.3125 96.433594 89.878906 C 97.078125 89.449219 97.746094 89.050781 98.429688 88.683594 C 99.117188 88.316406 99.820312 87.984375 100.539062 87.6875 C 101.253906 87.386719 101.988281 87.125 102.730469 86.898438 C 103.476562 86.675781 104.230469 86.484375 104.992188 86.332031 C 105.753906 86.179688 106.523438 86.066406 107.296875 85.992188 C 108.070312 85.914062 108.847656 85.875 109.625 85.875 L 265.375 85.875 C 266.152344 85.875 266.929688 85.914062 267.703125 85.992188 C 268.476562 86.066406 269.246094 86.179688 270.007812 86.332031 C 270.769531 86.484375 271.523438 86.675781 272.269531 86.898438 C 273.011719 87.125 273.746094 87.386719 274.460938 87.6875 C 275.179688 87.984375 275.882812 88.316406 276.570312 88.683594 C 277.253906 89.050781 277.921875 89.449219 278.566406 89.878906 C 279.214844 90.3125 279.839844 90.777344 280.4375 91.269531 C 281.039062 91.761719 281.617188 92.285156 282.164062 92.835938 C 282.714844 93.382812 283.238281 93.960938 283.730469 94.5625 C 284.222656 95.160156 284.6875 95.785156 285.121094 96.433594 C 285.550781 97.078125 285.949219 97.746094 286.316406 98.429688 C 286.683594 99.117188 287.015625 99.820312 287.3125 100.539062 C 287.613281 101.253906 287.875 101.988281 288.101562 102.730469 C 288.324219 103.476562 288.515625 104.230469 288.667969 104.992188 C 288.820312 105.753906 288.933594 106.523438 289.007812 107.296875 C 289.085938 108.070312 289.125 108.847656 289.125 109.625 L 289.125 265.375 C 289.125 266.152344 289.085938 266.929688 289.007812 267.703125 C 288.933594 268.476562 288.820312 269.246094 288.667969 270.007812 C 288.515625 270.769531 288.324219 271.523438 288.101562 272.269531 C 287.875 273.011719 287.613281 273.746094 287.3125 274.460938 C 287.015625 275.179688 286.683594 275.882812 286.316406 276.570312 C 285.949219 277.253906 285.550781 277.921875 285.121094 278.566406 C 284.6875 279.214844 284.222656 279.839844 283.730469 280.4375 C 283.238281 281.039062 282.714844 281.617188 282.164062 282.164062 C 281.617188 282.714844 281.039062 283.238281 280.4375 283.730469 C 279.839844 284.222656 279.214844 284.6875 278.566406 285.121094 C 277.921875 285.550781 277.253906 285.949219 276.570312 286.316406 C 275.882812 286.683594 275.179688 287.015625 274.460938 287.3125 C 273.746094 287.613281 273.011719 287.875 272.269531 288.101562 C 271.523438 288.324219 270.769531 288.515625 270.007812 288.667969 C 269.246094 288.820312 268.476562 288.933594 267.703125 289.007812 C 266.929688 289.085938 266.152344 289.125 265.375 289.125 Z M 109.625 93.664062 C 109.101562 93.664062 108.578125 93.691406 108.058594 93.742188 C 107.539062 93.792969 107.023438 93.871094 106.511719 93.972656 C 106 94.074219 105.492188 94.203125 104.992188 94.355469 C 104.492188 94.507812 104 94.683594 103.519531 94.882812 C 103.035156 95.082031 102.566406 95.308594 102.105469 95.554688 C 101.644531 95.800781 101.195312 96.070312 100.761719 96.359375 C 100.328125 96.648438 99.90625 96.960938 99.503906 97.292969 C 99.101562 97.625 98.714844 97.972656 98.34375 98.34375 C 97.972656 98.714844 97.625 99.101562 97.292969 99.503906 C 96.960938 99.90625 96.648438 100.328125 96.359375 100.761719 C 96.070312 101.195312 95.800781 101.644531 95.554688 102.105469 C 95.308594 102.566406 95.082031 103.035156 94.882812 103.519531 C 94.683594 104 94.507812 104.492188 94.355469 104.992188 C 94.203125 105.492188 94.074219 106 93.972656 106.511719 C 93.871094 107.023438 93.792969 107.539062 93.742188 108.058594 C 93.691406 108.578125 93.664062 109.101562 93.664062 109.625 L 93.664062 265.375 C 93.664062 265.898438 93.691406 266.421875 93.742188 266.941406 C 93.792969 267.460938 93.871094 267.976562 93.972656 268.488281 C 94.074219 269 94.203125 269.507812 94.355469 270.007812 C 94.507812 270.507812 94.683594 271 94.882812 271.480469 C 95.082031 271.964844 95.308594 272.433594 95.554688 272.894531 C 95.800781 273.355469 96.070312 273.804688 96.359375 274.238281 C 96.648438 274.671875 96.960938 275.09375 97.292969 275.496094 C 97.625 275.898438 97.972656 276.285156 98.34375 276.65625 C 98.714844 277.027344 99.101562 277.375 99.503906 277.707031 C 99.90625 278.039062 100.328125 278.351562 100.761719 278.640625 C 101.195312 278.929688 101.644531 279.199219 102.105469 279.445312 C 102.566406 279.691406 103.035156 279.917969 103.519531 280.117188 C 104 280.316406 104.492188 280.492188 104.992188 280.644531 C 105.492188 280.796875 106 280.925781 106.511719 281.027344 C 107.023438 281.128906 107.539062 281.207031 108.058594 281.257812 C 108.578125 281.308594 109.101562 281.335938 109.625 281.335938 L 265.375 281.335938 C 265.898438 281.335938 266.421875 281.308594 266.941406 281.257812 C 267.460938 281.207031 267.976562 281.128906 268.488281 281.027344 C 269 280.925781 269.507812 280.796875 270.007812 280.644531 C 270.507812 280.492188 271 280.316406 271.480469 280.117188 C 271.964844 279.917969 272.433594 279.691406 272.894531 279.445312 C 273.355469 279.199219 273.804688 278.929688 274.238281 278.640625 C 274.671875 278.351562 275.09375 278.039062 275.496094 277.707031 C 275.898438 277.375 276.285156 277.027344 276.65625 276.65625 C 277.027344 276.285156 277.375 275.898438 277.707031 275.496094 C 278.039062 275.09375 278.351562 274.671875 278.640625 274.238281 C 278.929688 273.804688 279.199219 273.355469 279.445312 272.894531 C 279.691406 272.433594 279.917969 271.964844 280.117188 271.480469 C 280.316406 271 280.492188 270.507812 280.644531 270.007812 C 280.796875 269.507812 280.925781 269 281.027344 268.488281 C 281.128906 267.976562 281.207031 267.460938 281.257812 266.941406 C 281.308594 266.421875 281.335938 265.898438 281.335938 265.375 L 281.335938 109.625 C 281.335938 109.101562 281.308594 108.578125 281.257812 108.058594 C 281.207031 107.539062 281.128906 107.023438 281.027344 106.511719 C 280.925781 106 280.796875 105.492188 280.644531 104.992188 C 280.492188 104.492188 280.316406 104 280.117188 103.519531 C 279.917969 103.035156 279.691406 102.566406 279.445312 102.105469 C 279.199219 101.644531 278.929688 101.195312 278.640625 100.761719 C 278.351562 100.328125 278.039062 99.90625 277.707031 99.503906 C 277.375 99.101562 277.027344 98.714844 276.65625 98.34375 C 276.285156 97.972656 275.898438 97.625 275.496094 97.292969 C 275.09375 96.960938 274.671875 96.648438 274.238281 96.359375 C 273.804688 96.070312 273.355469 95.800781 272.894531 95.554688 C 272.433594 95.308594 271.964844 95.082031 271.480469 94.882812 C 271 94.683594 270.507812 94.507812 270.007812 94.355469 C 269.507812 94.203125 269 94.074219 268.488281 93.972656 C 267.976562 93.871094 267.460938 93.792969 266.941406 93.742188 C 266.421875 93.691406 265.898438 93.664062 265.375 93.664062 Z M 109.625 93.664062 " fill-opacity="1" fill-rule="nonzero"/><path fill="#000000" d="M 121.609375 258.722656 C 119.746094 258.722656 117.953125 258.371094 116.226562 257.660156 C 114.503906 256.949219 112.984375 255.9375 111.660156 254.625 C 110.261719 253.246094 109.183594 251.652344 108.421875 249.84375 C 107.660156 248.035156 107.277344 246.148438 107.269531 244.183594 L 107.269531 134.308594 C 107.269531 133.71875 107.300781 133.132812 107.355469 132.542969 C 107.414062 131.957031 107.503906 131.375 107.617188 130.792969 C 107.734375 130.214844 107.878906 129.644531 108.050781 129.078125 C 108.222656 128.515625 108.417969 127.960938 108.644531 127.414062 C 108.871094 126.871094 109.125 126.335938 109.402344 125.816406 C 109.679688 125.296875 109.984375 124.789062 110.3125 124.300781 C 110.640625 123.808594 110.992188 123.335938 111.367188 122.878906 C 111.742188 122.421875 112.136719 121.984375 112.554688 121.570312 C 112.972656 121.152344 113.40625 120.753906 113.863281 120.382812 C 114.320312 120.007812 114.792969 119.65625 115.285156 119.328125 C 115.773438 119 116.28125 118.695312 116.800781 118.417969 C 117.320312 118.140625 117.855469 117.886719 118.398438 117.660156 C 118.945312 117.433594 119.5 117.234375 120.0625 117.0625 C 120.628906 116.890625 121.199219 116.75 121.78125 116.632812 C 122.359375 116.519531 122.941406 116.429688 123.527344 116.371094 C 124.117188 116.3125 124.703125 116.285156 125.296875 116.285156 L 154.546875 116.285156 C 181.015625 116.285156 202.609375 137.625 202.675781 163.863281 C 202.679688 165.429688 202.605469 166.988281 202.453125 168.546875 C 202.300781 170.101562 202.074219 171.648438 201.773438 173.183594 C 201.46875 174.71875 201.089844 176.234375 200.640625 177.730469 C 200.1875 179.230469 199.664062 180.703125 199.066406 182.148438 C 198.46875 183.59375 197.804688 185.007812 197.070312 186.386719 C 196.332031 187.769531 195.53125 189.109375 194.664062 190.414062 C 193.796875 191.714844 192.867188 192.96875 191.878906 194.179688 C 190.886719 195.390625 189.839844 196.550781 188.734375 197.660156 C 187.628906 198.765625 186.472656 199.816406 185.265625 200.8125 C 184.058594 201.804688 182.804688 202.738281 181.503906 203.609375 C 180.203125 204.480469 178.863281 205.285156 177.484375 206.023438 C 176.105469 206.761719 174.695312 207.433594 173.25 208.03125 C 171.804688 208.632812 170.335938 209.160156 168.839844 209.617188 C 167.34375 210.074219 165.828125 210.457031 164.292969 210.761719 C 162.761719 211.070312 161.214844 211.300781 159.65625 211.457031 C 158.101562 211.609375 156.539062 211.6875 154.976562 211.691406 L 135.945312 211.691406 L 135.945312 244.386719 C 135.941406 245.316406 135.847656 246.234375 135.664062 247.148438 C 135.480469 248.058594 135.214844 248.941406 134.859375 249.800781 C 134.507812 250.660156 134.074219 251.476562 133.5625 252.253906 C 133.050781 253.027344 132.46875 253.746094 131.820312 254.410156 C 131.167969 255.074219 130.460938 255.667969 129.695312 256.195312 C 128.929688 256.71875 128.121094 257.167969 127.269531 257.539062 C 126.414062 257.90625 125.535156 258.191406 124.628906 258.390625 C 123.722656 258.589844 122.804688 258.703125 121.875 258.722656 Z M 115.042969 193.664062 L 115.042969 244.179688 C 115.046875 245.097656 115.230469 245.980469 115.589844 246.824219 C 115.945312 247.671875 116.453125 248.414062 117.109375 249.054688 C 117.71875 249.667969 118.425781 250.140625 119.230469 250.464844 C 120.03125 250.789062 120.867188 250.945312 121.734375 250.929688 C 122.15625 250.921875 122.578125 250.871094 122.992188 250.78125 C 123.410156 250.6875 123.8125 250.558594 124.203125 250.390625 C 124.589844 250.21875 124.960938 250.015625 125.3125 249.773438 C 125.664062 249.535156 125.988281 249.261719 126.285156 248.957031 C 126.582031 248.652344 126.847656 248.324219 127.082031 247.96875 C 127.316406 247.613281 127.515625 247.242188 127.675781 246.847656 C 127.835938 246.453125 127.960938 246.050781 128.042969 245.632812 C 128.125 245.214844 128.167969 244.792969 128.171875 244.367188 L 128.171875 207.804688 C 128.171875 207.289062 128.269531 206.792969 128.46875 206.316406 C 128.664062 205.839844 128.945312 205.421875 129.308594 205.054688 C 129.675781 204.691406 130.09375 204.410156 130.570312 204.214844 C 131.046875 204.015625 131.542969 203.917969 132.058594 203.917969 L 154.976562 203.917969 C 156.285156 203.917969 157.59375 203.851562 158.894531 203.71875 C 160.199219 203.589844 161.492188 203.398438 162.777344 203.140625 C 164.0625 202.882812 165.328125 202.5625 166.582031 202.183594 C 167.835938 201.800781 169.066406 201.359375 170.277344 200.855469 C 171.484375 200.351562 172.667969 199.792969 173.820312 199.171875 C 174.976562 198.554688 176.097656 197.878906 177.183594 197.152344 C 178.273438 196.421875 179.324219 195.640625 180.335938 194.808594 C 181.347656 193.976562 182.3125 193.097656 183.238281 192.167969 C 184.164062 191.242188 185.042969 190.273438 185.871094 189.257812 C 186.699219 188.246094 187.476562 187.191406 188.203125 186.101562 C 188.929688 185.011719 189.601562 183.890625 190.214844 182.734375 C 190.832031 181.578125 191.390625 180.394531 191.890625 179.183594 C 192.390625 177.972656 192.828125 176.742188 193.207031 175.488281 C 193.585938 174.230469 193.898438 172.964844 194.152344 171.679688 C 194.40625 170.394531 194.597656 169.097656 194.722656 167.796875 C 194.851562 166.492188 194.910156 165.183594 194.910156 163.875 C 194.855469 141.914062 176.75 124.046875 154.550781 124.046875 L 125.300781 124.046875 C 124.628906 124.046875 123.960938 124.113281 123.300781 124.246094 C 122.640625 124.378906 122 124.570312 121.378906 124.828125 C 120.757812 125.089844 120.167969 125.402344 119.609375 125.777344 C 119.046875 126.152344 118.53125 126.578125 118.054688 127.054688 C 117.578125 127.53125 117.152344 128.046875 116.78125 128.605469 C 116.40625 129.167969 116.089844 129.757812 115.832031 130.378906 C 115.574219 131 115.378906 131.640625 115.25 132.300781 C 115.117188 132.960938 115.050781 133.628906 115.050781 134.300781 Z M 115.042969 193.664062 " fill-opacity="1" fill-rule="nonzero"/><path fill="#000000" d="M 154.976562 194.203125 L 128.625 194.203125 C 128.109375 194.203125 127.613281 194.105469 127.136719 193.910156 C 126.664062 193.710938 126.242188 193.429688 125.878906 193.066406 C 125.511719 192.703125 125.234375 192.28125 125.035156 191.808594 C 124.839844 191.332031 124.738281 190.835938 124.738281 190.320312 L 124.738281 137.648438 C 124.738281 137.132812 124.839844 136.636719 125.035156 136.160156 C 125.234375 135.683594 125.511719 135.265625 125.878906 134.898438 C 126.242188 134.535156 126.664062 134.253906 127.136719 134.058594 C 127.613281 133.859375 128.109375 133.761719 128.625 133.761719 L 154.960938 133.761719 C 155.949219 133.761719 156.9375 133.8125 157.921875 133.90625 C 158.910156 134.003906 159.886719 134.148438 160.855469 134.34375 C 161.828125 134.535156 162.785156 134.777344 163.734375 135.0625 C 164.679688 135.351562 165.613281 135.683594 166.527344 136.0625 C 167.441406 136.441406 168.335938 136.863281 169.207031 137.332031 C 170.082031 137.796875 170.929688 138.304688 171.75 138.855469 C 172.574219 139.40625 173.367188 139.996094 174.132812 140.621094 C 174.898438 141.25 175.632812 141.914062 176.332031 142.613281 C 177.03125 143.3125 177.695312 144.046875 178.324219 144.8125 C 178.949219 145.578125 179.539062 146.371094 180.089844 147.195312 C 180.640625 148.015625 181.148438 148.863281 181.613281 149.738281 C 182.082031 150.609375 182.503906 151.503906 182.882812 152.417969 C 183.261719 153.332031 183.59375 154.265625 183.882812 155.210938 C 184.167969 156.15625 184.410156 157.117188 184.601562 158.085938 C 184.792969 159.058594 184.941406 160.035156 185.035156 161.023438 C 185.132812 162.007812 185.183594 162.992188 185.183594 163.984375 C 185.183594 164.972656 185.132812 165.960938 185.035156 166.945312 C 184.941406 167.929688 184.792969 168.910156 184.601562 169.878906 C 184.410156 170.851562 184.167969 171.808594 183.882812 172.757812 C 183.59375 173.703125 183.261719 174.632812 182.882812 175.550781 C 182.503906 176.464844 182.082031 177.355469 181.613281 178.230469 C 181.148438 179.101562 180.640625 179.949219 180.089844 180.773438 C 179.539062 181.597656 178.949219 182.390625 178.324219 183.15625 C 177.695312 183.921875 177.03125 184.652344 176.332031 185.351562 C 175.632812 186.054688 174.898438 186.71875 174.132812 187.34375 C 173.367188 187.972656 172.574219 188.5625 171.75 189.113281 C 170.929688 189.660156 170.082031 190.167969 169.207031 190.636719 C 168.335938 191.101562 167.441406 191.527344 166.527344 191.90625 C 165.613281 192.285156 164.679688 192.617188 163.734375 192.902344 C 162.785156 193.191406 161.828125 193.429688 160.855469 193.625 C 159.886719 193.816406 158.910156 193.960938 157.921875 194.058594 C 156.9375 194.15625 155.949219 194.203125 154.960938 194.203125 Z M 132.527344 186.429688 L 154.976562 186.429688 C 155.710938 186.433594 156.445312 186.394531 157.175781 186.324219 C 157.910156 186.253906 158.636719 186.144531 159.359375 186.003906 C 160.078125 185.859375 160.792969 185.679688 161.496094 185.46875 C 162.199219 185.253906 162.890625 185.007812 163.570312 184.726562 C 164.25 184.445312 164.914062 184.132812 165.5625 183.785156 C 166.210938 183.4375 166.84375 183.0625 167.453125 182.652344 C 168.066406 182.246094 168.65625 181.808594 169.226562 181.339844 C 169.792969 180.875 170.339844 180.382812 170.859375 179.863281 C 171.378906 179.34375 171.871094 178.796875 172.339844 178.230469 C 172.804688 177.660156 173.242188 177.070312 173.652344 176.460938 C 174.0625 175.847656 174.441406 175.21875 174.785156 174.570312 C 175.132812 173.921875 175.449219 173.257812 175.730469 172.578125 C 176.011719 171.898438 176.257812 171.207031 176.472656 170.503906 C 176.683594 169.800781 176.863281 169.085938 177.007812 168.363281 C 177.152344 167.644531 177.257812 166.917969 177.332031 166.183594 C 177.402344 165.453125 177.4375 164.71875 177.4375 163.984375 C 177.4375 163.25 177.402344 162.515625 177.332031 161.78125 C 177.257812 161.050781 177.152344 160.324219 177.007812 159.601562 C 176.863281 158.882812 176.683594 158.167969 176.472656 157.464844 C 176.257812 156.761719 176.011719 156.070312 175.730469 155.390625 C 175.449219 154.710938 175.132812 154.046875 174.785156 153.398438 C 174.441406 152.75 174.0625 152.121094 173.652344 151.507812 C 173.242188 150.894531 172.804688 150.304688 172.339844 149.738281 C 171.871094 149.167969 171.378906 148.625 170.859375 148.105469 C 170.339844 147.585938 169.792969 147.09375 169.226562 146.625 C 168.65625 146.160156 168.066406 145.722656 167.453125 145.3125 C 166.84375 144.90625 166.210938 144.527344 165.5625 144.183594 C 164.914062 143.835938 164.25 143.523438 163.570312 143.242188 C 162.890625 142.960938 162.199219 142.710938 161.496094 142.5 C 160.792969 142.285156 160.078125 142.109375 159.359375 141.964844 C 158.636719 141.820312 157.910156 141.714844 157.175781 141.644531 C 156.445312 141.570312 155.710938 141.535156 154.976562 141.535156 L 132.527344 141.535156 Z M 132.527344 186.429688 " fill-opacity="1" fill-rule="nonzero"/><path fill="#000000" d="M 232.976562 241.839844 L 215.109375 241.839844 C 214.597656 241.839844 214.101562 241.742188 213.625 241.546875 C 213.148438 241.347656 212.726562 241.066406 212.363281 240.703125 C 212 240.339844 211.71875 239.917969 211.523438 239.441406 C 211.324219 238.96875 211.226562 238.472656 211.226562 237.957031 L 211.226562 137.277344 C 211.226562 136.761719 211.324219 136.265625 211.519531 135.789062 C 211.71875 135.3125 212 134.890625 212.363281 134.527344 C 212.726562 134.160156 213.148438 133.882812 213.625 133.683594 C 214.101562 133.484375 214.597656 133.386719 215.109375 133.386719 L 232.976562 133.386719 C 233.492188 133.386719 233.988281 133.484375 234.464844 133.683594 C 234.941406 133.878906 235.363281 134.160156 235.726562 134.527344 C 236.089844 134.890625 236.371094 135.3125 236.570312 135.789062 C 236.765625 136.265625 236.863281 136.761719 236.863281 137.277344 L 236.863281 143.277344 C 243.855469 138.617188 252.988281 133.152344 263.757812 133.152344 L 263.847656 133.152344 C 264.101562 133.148438 264.355469 133.171875 264.609375 133.222656 C 264.859375 133.269531 265.105469 133.34375 265.34375 133.441406 C 265.578125 133.539062 265.804688 133.660156 266.019531 133.800781 C 266.230469 133.941406 266.429688 134.105469 266.609375 134.285156 C 266.792969 134.464844 266.953125 134.664062 267.097656 134.875 C 267.238281 135.089844 267.359375 135.316406 267.457031 135.550781 C 267.554688 135.789062 267.628906 136.035156 267.675781 136.285156 C 267.726562 136.535156 267.75 136.792969 267.75 137.046875 L 267.75 157.445312 C 267.75 157.957031 267.652344 158.453125 267.453125 158.929688 C 267.257812 159.40625 266.976562 159.828125 266.613281 160.191406 C 266.246094 160.554688 265.828125 160.835938 265.351562 161.03125 C 264.875 161.230469 264.378906 161.328125 263.863281 161.328125 L 263.785156 161.328125 C 250.359375 161.328125 243.355469 169.328125 239.585938 173.632812 C 239.210938 174.066406 238.835938 174.484375 238.5 174.855469 C 238.265625 175.324219 238.074219 175.8125 237.925781 176.316406 C 237.226562 178.503906 236.882812 180.746094 236.890625 183.042969 L 236.890625 237.957031 C 236.890625 238.210938 236.867188 238.464844 236.816406 238.71875 C 236.765625 238.96875 236.691406 239.214844 236.59375 239.449219 C 236.492188 239.6875 236.375 239.910156 236.230469 240.125 C 236.085938 240.335938 235.925781 240.535156 235.742188 240.714844 C 235.5625 240.894531 235.363281 241.054688 235.148438 241.195312 C 234.933594 241.339844 234.710938 241.457031 234.472656 241.554688 C 234.234375 241.652344 233.988281 241.722656 233.738281 241.773438 C 233.488281 241.820312 233.234375 241.84375 232.976562 241.839844 Z M 219 234.066406 L 229.089844 234.066406 L 229.089844 183.042969 C 229.082031 179.925781 229.554688 176.886719 230.503906 173.921875 C 231.164062 171.886719 231.808594 170.617188 232.667969 169.6875 C 232.96875 169.359375 233.3125 168.964844 233.714844 168.511719 C 237.636719 164.027344 245.464844 155.09375 259.964844 153.730469 L 259.964844 141.222656 C 251.949219 142.441406 244.859375 147.238281 239.011719 151.199219 C 237.632812 152.128906 236.335938 153.007812 235.074219 153.824219 C 234.472656 154.207031 233.820312 154.40625 233.109375 154.429688 C 232.402344 154.453125 231.738281 154.292969 231.117188 153.949219 C 230.492188 153.609375 230.003906 153.132812 229.640625 152.523438 C 229.28125 151.914062 229.097656 151.253906 229.097656 150.542969 L 229.097656 141.167969 L 219 141.167969 Z M 238.394531 174.945312 Z M 238.5 174.8125 Z M 238.5 174.8125 " fill-opacity="1" fill-rule="nonzero"/></svg>