<svg xmlns="http://www.w3.org/2000/svg" xmlns:xlink="http://www.w3.org/1999/xlink" width="500" zoomAndPan="magnify" viewBox="0 0 375 374.999991" height="500" preserveAspectRatio="xMidYMid meet" version="1.0"><path fill="#000000" d="M 313.269531 181.679688 C 311.511719 181.679688 309.753906 180.578125 309.316406 178.601562 C 308.4375 176.40625 309.753906 173.988281 311.949219 173.109375 L 312.390625 173.109375 C 313.050781 172.890625 313.929688 172.453125 314.367188 172.230469 C 334.140625 164.761719 347.320312 145.648438 347.320312 124.5625 C 347.320312 96.222656 324.253906 73.375 296.132812 73.375 C 293.71875 73.375 291.738281 71.398438 291.738281 68.980469 C 291.738281 40.640625 268.671875 17.792969 240.554688 17.792969 C 225.835938 17.792969 211.996094 23.945312 202.328125 34.929688 C 201.230469 36.027344 199.914062 36.46875 198.59375 36.46875 C 197.054688 36.246094 195.957031 35.367188 195.078125 34.269531 C 186.070312 18.453125 169.15625 8.789062 150.921875 8.789062 C 130.492188 8.789062 111.820312 20.871094 103.910156 39.761719 C 103.25 40.859375 102.371094 41.738281 101.273438 42.179688 C 80.402344 49.210938 66.5625 68.761719 66.5625 90.730469 C 66.5625 93.144531 64.585938 95.121094 62.171875 95.121094 C 59.753906 95.121094 57.777344 93.144531 57.777344 90.730469 C 57.777344 65.683594 73.375 43.277344 96.660156 34.710938 C 106.328125 13.621094 127.636719 0 150.921875 0 C 170.253906 0 188.488281 9.445312 199.691406 25.042969 C 210.675781 14.71875 225.394531 9.007812 240.554688 9.007812 C 272.1875 9.007812 298.109375 33.613281 300.308594 64.585938 C 331.503906 66.785156 356.105469 92.925781 356.105469 124.5625 C 356.105469 149.164062 340.507812 171.574219 317.441406 180.578125 C 317.003906 180.578125 315.90625 181.019531 315.246094 181.238281 L 314.808594 181.457031 C 314.367188 181.679688 313.929688 181.679688 313.269531 181.679688 Z M 313.269531 181.679688 " fill-opacity="1" fill-rule="evenodd"/><path fill="#000000" d="M 70.078125 237.699219 C 69.859375 237.699219 69.640625 237.699219 69.199219 237.699219 C 41.960938 231.765625 21.96875 207.160156 21.96875 179.261719 C 21.96875 174.867188 22.40625 170.472656 23.285156 166.300781 C 20.429688 159.050781 18.894531 151.582031 18.894531 143.671875 C 18.894531 117.96875 34.929688 95.5625 59.09375 87.214844 C 68.980469 66.34375 89.851562 52.945312 113.136719 52.945312 C 132.910156 52.945312 151.363281 62.828125 162.566406 79.304688 C 173.550781 68.980469 188.050781 63.269531 203.207031 63.269531 C 235.0625 63.269531 261.203125 88.09375 262.960938 119.507812 C 293.496094 122.144531 317.882812 148.066406 317.882812 179.261719 C 317.882812 207.160156 298.769531 231.105469 271.527344 237.476562 C 269.113281 237.917969 266.695312 236.597656 266.257812 234.183594 C 265.597656 231.765625 267.136719 229.570312 269.550781 228.910156 C 292.839844 223.636719 309.09375 203.207031 309.09375 179.261719 C 309.09375 151.363281 286.46875 128.515625 258.566406 128.074219 C 256.152344 128.074219 254.175781 126.097656 254.175781 123.683594 L 254.175781 123.242188 C 254.175781 94.902344 231.328125 72.054688 203.207031 72.054688 C 188.707031 72.054688 174.648438 78.207031 164.980469 89.191406 C 164.105469 90.289062 162.566406 90.730469 161.246094 90.730469 C 159.710938 90.507812 158.613281 89.632812 157.953125 88.3125 C 148.945312 72.054688 131.808594 61.730469 112.917969 61.730469 C 92.707031 61.730469 74.253906 73.8125 66.125 92.488281 C 65.683594 93.585938 64.808594 94.464844 63.488281 94.902344 C 41.960938 101.492188 27.679688 121.265625 27.679688 143.671875 C 27.679688 150.703125 29 157.734375 31.855469 164.105469 C 32.292969 165.203125 32.511719 166.082031 32.292969 166.960938 C 31.195312 170.914062 30.753906 175.085938 30.753906 179.261719 C 30.753906 203.207031 47.671875 224.078125 71.175781 229.128906 C 73.375 229.570312 74.914062 231.984375 74.472656 234.402344 C 74.035156 236.378906 72.277344 237.699219 70.078125 237.699219 Z M 70.078125 237.699219 " fill-opacity="1" fill-rule="evenodd"/><path fill="#000000" d="M 266.035156 268.234375 L 74.472656 268.234375 C 73.375 268.234375 72.277344 267.792969 71.398438 267.136719 L 67.003906 262.523438 C 66.34375 261.863281 65.683594 260.765625 65.683594 259.445312 L 65.683594 206.941406 C 65.683594 205.625 66.34375 204.527344 67.003906 203.867188 L 71.398438 199.472656 C 72.277344 198.59375 73.375 198.15625 74.472656 198.15625 L 266.035156 198.15625 C 267.136719 198.15625 268.234375 198.59375 269.113281 199.472656 L 273.507812 203.867188 C 274.386719 204.527344 274.824219 205.625 274.824219 206.941406 L 274.824219 259.445312 C 274.824219 260.765625 274.386719 261.863281 273.507812 262.523438 L 269.113281 267.136719 C 268.234375 267.792969 267.136719 268.234375 266.035156 268.234375 Z M 76.449219 259.667969 L 264.28125 259.667969 L 266.035156 257.6875 L 266.035156 208.699219 L 264.28125 206.941406 L 76.449219 206.941406 L 74.472656 208.699219 L 74.472656 257.6875 Z M 76.449219 259.667969 " fill-opacity="1" fill-rule="evenodd"/><path fill="#000000" d="M 248.460938 206.941406 C 246.703125 206.941406 244.945312 205.625 244.289062 203.648438 L 240.113281 189.367188 L 238.355469 188.050781 L 102.152344 188.050781 L 100.394531 189.367188 L 96.222656 203.648438 C 95.5625 206.0625 93.144531 207.382812 90.949219 206.722656 C 88.53125 206.0625 87.214844 203.648438 87.875 201.230469 L 92.488281 185.632812 C 92.707031 184.753906 93.367188 183.875 94.023438 183.214844 L 98.199219 180.140625 C 98.859375 179.703125 99.738281 179.261719 100.835938 179.261719 L 239.894531 179.261719 C 240.773438 179.261719 241.652344 179.703125 242.53125 180.140625 L 246.484375 183.214844 C 247.363281 183.875 247.804688 184.753906 248.242188 185.632812 L 252.636719 201.230469 C 253.296875 203.648438 251.976562 206.0625 249.78125 206.722656 C 249.339844 206.722656 248.902344 206.941406 248.460938 206.941406 Z M 248.460938 206.941406 " fill-opacity="1" fill-rule="evenodd"/><path fill="#000000" d="M 266.035156 356.105469 L 74.472656 356.105469 C 73.375 356.105469 72.277344 355.667969 71.398438 354.789062 L 67.003906 350.394531 C 66.34375 349.738281 65.683594 348.636719 65.683594 347.320312 L 65.683594 294.816406 C 65.683594 293.496094 66.34375 292.398438 67.003906 291.738281 L 71.398438 287.125 C 72.277344 286.46875 73.375 286.027344 74.472656 286.027344 L 266.035156 286.027344 C 267.136719 286.027344 268.234375 286.46875 269.113281 287.125 L 273.507812 291.738281 C 274.386719 292.398438 274.824219 293.496094 274.824219 294.816406 L 274.824219 347.320312 C 274.824219 348.636719 274.386719 349.738281 273.507812 350.394531 L 269.113281 354.789062 C 268.234375 355.667969 267.136719 356.105469 266.035156 356.105469 Z M 76.449219 347.320312 L 264.28125 347.320312 L 266.035156 345.5625 L 266.035156 296.574219 L 264.28125 294.816406 L 76.449219 294.816406 L 74.472656 296.574219 L 74.472656 345.5625 Z M 76.449219 347.320312 " fill-opacity="1" fill-rule="evenodd"/><path fill="#000000" d="M 97.320312 237.699219 L 88.972656 237.699219 C 86.554688 237.699219 84.578125 235.71875 84.578125 233.304688 C 84.578125 230.886719 86.554688 228.910156 88.972656 228.910156 L 97.320312 228.910156 C 99.738281 228.910156 101.492188 230.886719 101.492188 233.304688 C 101.492188 235.71875 99.738281 237.699219 97.320312 237.699219 Z M 97.320312 237.699219 " fill-opacity="1" fill-rule="evenodd"/><path fill="#000000" d="M 124.339844 237.699219 L 116.210938 237.699219 C 113.796875 237.699219 111.820312 235.71875 111.820312 233.304688 C 111.820312 230.886719 113.796875 228.910156 116.210938 228.910156 L 124.339844 228.910156 C 126.757812 228.910156 128.734375 230.886719 128.734375 233.304688 C 128.734375 235.71875 126.757812 237.699219 124.339844 237.699219 Z M 124.339844 237.699219 " fill-opacity="1" fill-rule="evenodd"/><path fill="#000000" d="M 151.582031 237.699219 L 143.234375 237.699219 C 140.816406 237.699219 138.839844 235.71875 138.839844 233.304688 C 138.839844 230.886719 140.816406 228.910156 143.234375 228.910156 L 151.582031 228.910156 C 154 228.910156 155.976562 230.886719 155.976562 233.304688 C 155.976562 235.71875 154 237.699219 151.582031 237.699219 Z M 151.582031 237.699219 " fill-opacity="1" fill-rule="evenodd"/><path fill="#000000" d="M 195.957031 237.699219 L 187.609375 237.699219 C 185.191406 237.699219 183.214844 235.71875 183.214844 233.304688 C 183.214844 230.886719 185.191406 228.910156 187.609375 228.910156 L 195.957031 228.910156 C 198.375 228.910156 200.351562 230.886719 200.351562 233.304688 C 200.351562 235.71875 198.375 237.699219 195.957031 237.699219 Z M 195.957031 237.699219 " fill-opacity="1" fill-rule="evenodd"/><path fill="#000000" d="M 251.757812 237.699219 L 212.433594 237.699219 C 210.015625 237.699219 208.039062 235.71875 208.039062 233.304688 C 208.039062 230.886719 210.015625 228.910156 212.433594 228.910156 L 251.757812 228.910156 C 254.175781 228.910156 255.929688 230.886719 255.929688 233.304688 C 255.929688 235.71875 253.953125 237.699219 251.757812 237.699219 Z M 251.757812 237.699219 " fill-opacity="1" fill-rule="evenodd"/><path fill="#000000" d="M 97.320312 325.351562 L 88.972656 325.351562 C 86.554688 325.351562 84.578125 323.375 84.578125 320.957031 C 84.578125 318.542969 86.554688 316.785156 88.972656 316.785156 L 97.320312 316.785156 C 99.738281 316.785156 101.492188 318.542969 101.492188 320.957031 C 101.492188 323.375 99.738281 325.351562 97.320312 325.351562 Z M 97.320312 325.351562 " fill-opacity="1" fill-rule="evenodd"/><path fill="#000000" d="M 124.339844 325.351562 L 116.210938 325.351562 C 113.796875 325.351562 111.820312 323.375 111.820312 320.957031 C 111.820312 318.542969 113.796875 316.785156 116.210938 316.785156 L 124.339844 316.785156 C 126.757812 316.785156 128.734375 318.542969 128.734375 320.957031 C 128.734375 323.375 126.757812 325.351562 124.339844 325.351562 Z M 124.339844 325.351562 " fill-opacity="1" fill-rule="evenodd"/><path fill="#000000" d="M 151.582031 325.351562 L 143.234375 325.351562 C 140.816406 325.351562 138.839844 323.375 138.839844 320.957031 C 138.839844 318.542969 140.816406 316.785156 143.234375 316.785156 L 151.582031 316.785156 C 154 316.785156 155.976562 318.542969 155.976562 320.957031 C 155.976562 323.375 154 325.351562 151.582031 325.351562 Z M 151.582031 325.351562 " fill-opacity="1" fill-rule="evenodd"/><path fill="#000000" d="M 195.957031 325.351562 L 187.609375 325.351562 C 185.191406 325.351562 183.214844 323.375 183.214844 320.957031 C 183.214844 318.542969 185.191406 316.785156 187.609375 316.785156 L 195.957031 316.785156 C 198.375 316.785156 200.351562 318.542969 200.351562 320.957031 C 200.351562 323.375 198.375 325.351562 195.957031 325.351562 Z M 195.957031 325.351562 " fill-opacity="1" fill-rule="evenodd"/><path fill="#000000" d="M 251.757812 325.351562 L 212.433594 325.351562 C 210.015625 325.351562 208.039062 323.375 208.039062 320.957031 C 208.039062 318.542969 210.015625 316.785156 212.433594 316.785156 L 251.757812 316.785156 C 254.175781 316.785156 255.929688 318.542969 255.929688 320.957031 C 255.929688 323.375 253.953125 325.351562 251.757812 325.351562 Z M 251.757812 325.351562 " fill-opacity="1" fill-rule="evenodd"/><path fill="#000000" d="M 249.121094 294.816406 C 246.703125 294.816406 244.726562 292.839844 244.726562 290.421875 L 244.726562 263.839844 C 244.726562 261.421875 246.703125 259.667969 249.121094 259.667969 C 251.539062 259.667969 253.515625 261.421875 253.515625 263.839844 L 253.515625 290.421875 C 253.515625 292.839844 251.539062 294.816406 249.121094 294.816406 Z M 91.386719 294.816406 C 88.972656 294.816406 86.996094 292.839844 86.996094 290.421875 L 86.996094 263.839844 C 86.996094 261.421875 88.972656 259.667969 91.386719 259.667969 C 93.804688 259.667969 95.78125 261.421875 95.78125 263.839844 L 95.78125 290.421875 C 95.78125 292.839844 93.804688 294.816406 91.386719 294.816406 Z M 91.386719 294.816406 " fill-opacity="1" fill-rule="evenodd"/><path fill="#000000" d="M 239.894531 375 L 100.835938 375 C 99.738281 375 98.859375 374.5625 98.199219 374.121094 L 94.023438 371.046875 C 93.367188 370.386719 92.707031 369.507812 92.488281 368.628906 L 87.875 353.03125 C 87.214844 350.613281 88.53125 348.199219 90.949219 347.539062 C 93.144531 346.878906 95.5625 348.199219 96.222656 350.613281 L 100.394531 364.894531 L 102.152344 366.210938 L 238.355469 366.210938 L 240.113281 364.894531 L 244.289062 350.613281 C 244.945312 348.199219 247.363281 346.878906 249.78125 347.539062 C 251.976562 348.199219 253.296875 350.613281 252.636719 353.03125 L 248.242188 368.628906 C 247.804688 369.507812 247.363281 370.386719 246.484375 371.046875 L 242.53125 374.121094 C 241.652344 374.5625 240.773438 375 239.894531 375 Z M 239.894531 375 " fill-opacity="1" fill-rule="evenodd"/></svg>