<svg xmlns="http://www.w3.org/2000/svg" xmlns:xlink="http://www.w3.org/1999/xlink" width="500" zoomAndPan="magnify" viewBox="0 0 375 374.999991" height="500" preserveAspectRatio="xMidYMid meet" version="1.0"><defs><clipPath id="9b25fbde88"><path d="M 37.5 0 L 337.5 0 L 337.5 375 L 37.5 375 Z M 37.5 0 " clip-rule="nonzero"/></clipPath></defs><g clip-path="url(#9b25fbde88)"><path fill="#100f0d" d="M 293.75 362.5 L 81.25 362.5 C 64.019531 362.5 50 348.480469 50 331.25 L 50 275 L 325 275 L 325 331.25 C 325 348.480469 310.980469 362.5 293.75 362.5 Z M 81.25 12.5 L 250 12.5 L 250 43.75 C 250 67.875 269.625 87.5 293.75 87.5 L 325 87.5 L 325 262.5 L 50 262.5 L 50 43.75 C 50 26.519531 64.019531 12.5 81.25 12.5 Z M 262.5 21.335938 L 316.160156 75 L 293.75 75 C 276.519531 75 262.5 60.980469 262.5 43.75 Z M 260.667969 1.832031 C 259.496094 0.660156 257.90625 0 256.25 0 L 81.25 0 C 57.125 0 37.5 19.625 37.5 43.75 L 37.5 331.25 C 37.5 355.375 57.125 375 81.25 375 L 293.75 375 C 317.875 375 337.5 355.375 337.5 331.25 L 337.5 81.25 C 337.5 79.59375 336.839844 78.003906 335.667969 76.832031 L 260.667969 1.832031 " fill-opacity="1" fill-rule="nonzero"/></g><path fill="#100f0d" d="M 118.75 287.5 C 115.296875 287.5 112.5 290.296875 112.5 293.75 L 112.5 312.5 L 100 312.5 L 100 293.75 C 100 290.296875 97.203125 287.5 93.75 287.5 C 90.296875 287.5 87.5 290.296875 87.5 293.75 L 87.5 343.75 C 87.5 347.203125 90.296875 350 93.75 350 C 97.203125 350 100 347.203125 100 343.75 L 100 325 L 112.5 325 L 112.5 343.75 C 112.5 347.203125 115.296875 350 118.75 350 C 122.203125 350 125 347.203125 125 343.75 L 125 293.75 C 125 290.296875 122.203125 287.5 118.75 287.5 " fill-opacity="1" fill-rule="nonzero"/><path fill="#100f0d" d="M 168.75 287.5 L 143.75 287.5 C 140.296875 287.5 137.5 290.296875 137.5 293.75 C 137.5 297.203125 140.296875 300 143.75 300 L 150 300 L 150 343.75 C 150 347.203125 152.796875 350 156.25 350 C 159.703125 350 162.5 347.203125 162.5 343.75 L 162.5 300 L 168.75 300 C 172.203125 300 175 297.203125 175 293.75 C 175 290.296875 172.203125 287.5 168.75 287.5 " fill-opacity="1" fill-rule="nonzero"/><path fill="#100f0d" d="M 232.6875 287.667969 C 229.863281 287.003906 226.957031 288.363281 225.660156 290.953125 L 212.5 317.273438 L 199.339844 290.953125 C 198.042969 288.363281 195.132812 287.003906 192.3125 287.667969 C 189.492188 288.332031 187.5 290.851562 187.5 293.75 L 187.5 343.75 C 187.5 347.203125 190.296875 350 193.75 350 C 197.203125 350 200 347.203125 200 343.75 L 200 320.226562 L 206.910156 334.046875 C 207.96875 336.164062 210.132812 337.5 212.5 337.5 C 214.867188 337.5 217.03125 336.164062 218.089844 334.046875 L 225 320.226562 L 225 343.75 C 225 347.203125 227.796875 350 231.25 350 C 234.703125 350 237.5 347.203125 237.5 343.75 L 237.5 293.75 C 237.5 290.851562 235.507812 288.332031 232.6875 287.667969 " fill-opacity="1" fill-rule="nonzero"/><path fill="#100f0d" d="M 281.25 337.5 L 262.5 337.5 L 262.5 293.75 C 262.5 290.296875 259.703125 287.5 256.25 287.5 C 252.796875 287.5 250 290.296875 250 293.75 L 250 343.75 C 250 347.203125 252.796875 350 256.25 350 L 281.25 350 C 284.703125 350 287.5 347.203125 287.5 343.75 C 287.5 340.296875 284.703125 337.5 281.25 337.5 " fill-opacity="1" fill-rule="nonzero"/><path fill="#100f0d" d="M 139.332031 191.917969 C 140.550781 193.140625 142.152344 193.75 143.75 193.75 C 145.347656 193.75 146.949219 193.140625 148.167969 191.917969 C 150.609375 189.476562 150.609375 185.523438 148.167969 183.082031 L 115.085938 150 L 148.167969 116.917969 C 150.609375 114.476562 150.609375 110.523438 148.167969 108.082031 C 145.726562 105.640625 141.773438 105.640625 139.332031 108.082031 L 101.832031 145.582031 C 99.390625 148.023438 99.390625 151.976562 101.832031 154.417969 L 139.332031 191.917969 " fill-opacity="1" fill-rule="nonzero"/><path fill="#100f0d" d="M 226.832031 191.917969 C 228.050781 193.140625 229.652344 193.75 231.25 193.75 C 232.847656 193.75 234.449219 193.140625 235.667969 191.917969 L 273.167969 154.417969 C 275.609375 151.976562 275.609375 148.023438 273.167969 145.582031 L 235.667969 108.082031 C 233.226562 105.640625 229.273438 105.640625 226.832031 108.082031 C 224.390625 110.523438 224.390625 114.476562 226.832031 116.917969 L 259.910156 150 L 226.832031 183.082031 C 224.390625 185.523438 224.390625 189.476562 226.832031 191.917969 " fill-opacity="1" fill-rule="nonzero"/><path fill="#100f0d" d="M 166.773438 212.179688 C 167.429688 212.394531 168.097656 212.503906 168.75 212.503906 C 171.367188 212.503906 173.808594 210.847656 174.679688 208.226562 L 212.179688 95.726562 C 213.273438 92.453125 211.503906 88.914062 208.226562 87.820312 C 204.949219 86.726562 201.414062 88.496094 200.320312 91.773438 L 162.820312 204.273438 C 161.726562 207.546875 163.496094 211.085938 166.773438 212.179688 " fill-opacity="1" fill-rule="nonzero"/></svg>