<svg xmlns="http://www.w3.org/2000/svg"  viewBox="0 0 50 50" width="50px" height="50px"><path d="M 13.599609 4 C 8.8620649 4 5 7.8620649 5 12.599609 L 5 30.599609 L 5 31.400391 L 5 38.400391 C 5 43.137935 8.8620649 47 13.599609 47 L 36.400391 47 C 41.137935 47 45 43.137935 45 38.400391 L 45 31.400391 L 45 30.599609 L 45 12.599609 C 45 7.8620649 41.137935 4 36.400391 4 L 13.599609 4 z M 13.599609 6 L 36.400391 6 C 40.056846 6 43 8.9431546 43 12.599609 L 43 30.599609 L 43 31.400391 C 43 35.056846 40.056846 38 36.400391 38 L 13.599609 38 C 9.9431546 38 7 35.056846 7 31.400391 L 7 30.599609 L 7 12.599609 C 7 8.9431546 9.9431546 6 13.599609 6 z M 25.160156 13.707031 C 21.809156 13.707031 19.556641 15.531656 19.556641 18.222656 C 19.556641 20.474656 20.798016 21.771094 23.666016 22.496094 L 25.697266 23.023438 C 27.884266 23.573437 28.873047 24.42925 28.873047 25.78125 C 28.873047 27.35325 27.302875 28.505859 25.171875 28.505859 C 22.919875 28.505859 21.337703 27.451969 21.095703 25.792969 L 21.095703 25.791016 L 19.097656 25.791016 C 19.305656 28.527016 21.624328 30.306641 24.986328 30.306641 C 28.611328 30.306641 30.90625 28.451062 30.90625 25.539062 C 30.90625 23.210063 29.588687 21.935328 26.304688 21.111328 L 24.644531 20.673828 C 22.457531 20.113828 21.589844 19.39825 21.589844 18.15625 C 21.589844 16.55225 22.986703 15.498047 25.095703 15.498047 C 27.073703 15.498047 28.4135 16.465797 28.6875 18.091797 L 30.675781 18.091797 C 30.511781 15.531797 28.225156 13.707031 25.160156 13.707031 z M 7 36.902344 C 8.5794631 38.792759 10.952573 40 13.599609 40 L 36.400391 40 C 39.047427 40 41.420537 38.792759 43 36.902344 L 43 38.400391 C 43 42.056846 40.056846 45 36.400391 45 L 13.599609 45 C 9.9431546 45 7 42.056846 7 38.400391 L 7 36.902344 z"/></svg>