<svg xmlns="http://www.w3.org/2000/svg" xmlns:xlink="http://www.w3.org/1999/xlink" width="500" zoomAndPan="magnify" viewBox="0 0 375 374.999991" height="500" preserveAspectRatio="xMidYMid meet" version="1.0"><path fill="#7a5e3e" d="M 120 22.5 C 66.226562 22.5 22.5 66.226562 22.5 120 L 22.5 255 C 22.5 308.773438 66.226562 352.5 120 352.5 L 255 352.5 C 308.773438 352.5 352.5 308.773438 352.5 255 L 352.5 120 C 352.5 66.226562 308.773438 22.5 255 22.5 Z M 277.5 82.5 C 285.75 82.5 292.5 89.25 292.5 97.5 C 292.5 105.75 285.75 112.5 277.5 112.5 C 269.25 112.5 262.5 105.75 262.5 97.5 C 262.5 89.25 269.25 82.5 277.5 82.5 Z M 187.5 105 C 233.023438 105 270 141.976562 270 187.5 C 270 233.023438 233.023438 270 187.5 270 C 141.976562 270 105 233.023438 105 187.5 C 105 141.976562 141.976562 105 187.5 105 Z M 187.5 120 C 150.300781 120 120 150.300781 120 187.5 C 120 224.699219 150.300781 255 187.5 255 C 224.699219 255 255 224.699219 255 187.5 C 255 150.300781 224.699219 120 187.5 120 Z M 187.5 120 " fill-opacity="1" fill-rule="nonzero"/></svg>