<svg xmlns="http://www.w3.org/2000/svg" xmlns:xlink="http://www.w3.org/1999/xlink" width="500" zoomAndPan="magnify" viewBox="0 0 375 374.999991" height="500" preserveAspectRatio="xMidYMid meet" version="1.0"><defs><clipPath id="a6311ec720"><path d="M 16.171875 307 L 344 307 L 344 374 L 16.171875 374 Z M 16.171875 307 " clip-rule="nonzero"/></clipPath></defs><path fill="#000000" d="M 179.300781 223.65625 C 157.476562 223.65625 48.683594 222.21875 48.683594 193.820312 C 48.683594 165.421875 157.476562 163.949219 179.300781 163.949219 C 179.816406 163.949219 180.324219 164 180.828125 164.101562 C 181.332031 164.199219 181.820312 164.347656 182.296875 164.546875 C 182.769531 164.742188 183.222656 164.984375 183.648438 165.269531 C 184.074219 165.554688 184.472656 165.878906 184.835938 166.242188 C 185.199219 166.605469 185.523438 167 185.808594 167.425781 C 186.09375 167.855469 186.335938 168.304688 186.53125 168.78125 C 186.726562 169.253906 186.875 169.742188 186.976562 170.246094 C 187.078125 170.75 187.125 171.257812 187.125 171.773438 C 187.125 172.285156 187.078125 172.796875 186.976562 173.300781 C 186.875 173.804688 186.726562 174.292969 186.53125 174.765625 C 186.335938 175.242188 186.09375 175.691406 185.808594 176.121094 C 185.523438 176.546875 185.199219 176.941406 184.835938 177.304688 C 184.472656 177.667969 184.074219 177.992188 183.648438 178.277344 C 183.222656 178.5625 182.769531 178.804688 182.296875 179 C 181.820312 179.199219 181.332031 179.347656 180.828125 179.445312 C 180.324219 179.546875 179.816406 179.597656 179.300781 179.597656 C 114.46875 179.597656 76.121094 188.164062 66.128906 193.820312 C 76.121094 199.429688 114.46875 208.027344 179.300781 208.027344 C 249.550781 208.027344 288.738281 197.941406 294.429688 192.476562 C 294.503906 192.027344 294.621094 191.585938 294.773438 191.15625 C 294.925781 190.726562 295.117188 190.3125 295.34375 189.917969 C 295.570312 189.519531 295.828125 189.144531 296.121094 188.792969 C 296.414062 188.445312 296.734375 188.121094 297.085938 187.828125 C 297.4375 187.535156 297.808594 187.273438 298.203125 187.046875 C 298.601562 186.816406 299.015625 186.625 299.445312 186.472656 C 299.875 186.316406 300.3125 186.199219 300.765625 186.125 C 301.214844 186.046875 301.667969 186.007812 302.125 186.011719 C 302.640625 186.015625 303.148438 186.066406 303.652344 186.167969 C 304.15625 186.269531 304.648438 186.417969 305.121094 186.613281 C 305.597656 186.8125 306.046875 187.054688 306.472656 187.339844 C 306.902344 187.625 307.296875 187.949219 307.660156 188.316406 C 308.023438 188.679688 308.347656 189.074219 308.632812 189.503906 C 308.917969 189.929688 309.160156 190.382812 309.355469 190.855469 C 309.550781 191.332031 309.699219 191.820312 309.800781 192.324219 C 309.902344 192.828125 309.949219 193.339844 309.949219 193.851562 C 309.949219 222.21875 201.109375 223.65625 179.300781 223.65625 Z M 179.300781 223.65625 " fill-opacity="1" fill-rule="nonzero"/><path fill="#000000" d="M 179.300781 261.429688 C 152.769531 261.429688 66.226562 259.507812 66.226562 234.726562 C 66.222656 234.25 66.265625 233.777344 66.351562 233.308594 C 66.433594 232.839844 66.5625 232.382812 66.730469 231.9375 C 66.898438 231.492188 67.105469 231.066406 67.351562 230.65625 C 67.597656 230.25 67.882812 229.867188 68.199219 229.511719 C 68.515625 229.152344 68.859375 228.828125 69.238281 228.535156 C 69.613281 228.242188 70.011719 227.988281 70.4375 227.769531 C 70.859375 227.546875 71.296875 227.367188 71.753906 227.230469 C 72.210938 227.089844 72.675781 226.992188 73.148438 226.9375 C 73.621094 226.886719 74.097656 226.875 74.574219 226.90625 C 75.046875 226.941406 75.515625 227.015625 75.980469 227.132812 C 76.441406 227.253906 76.886719 227.414062 77.320312 227.613281 C 77.753906 227.8125 78.164062 228.050781 78.550781 228.328125 C 78.941406 228.601562 79.300781 228.910156 79.632812 229.253906 C 79.964844 229.59375 80.265625 229.964844 80.53125 230.359375 C 80.792969 230.757812 81.019531 231.175781 81.210938 231.613281 C 81.398438 232.050781 81.542969 232.5 81.648438 232.964844 C 87.292969 237.558594 120.921875 245.785156 179.300781 245.785156 C 237.683594 245.785156 271.277344 237.558594 276.953125 232.964844 C 277.058594 232.5 277.207031 232.046875 277.394531 231.609375 C 277.582031 231.171875 277.808594 230.753906 278.074219 230.355469 C 278.339844 229.957031 278.640625 229.589844 278.972656 229.246094 C 279.304688 228.902344 279.667969 228.59375 280.054688 228.316406 C 280.445312 228.042969 280.855469 227.800781 281.289062 227.601562 C 281.722656 227.398438 282.171875 227.242188 282.632812 227.121094 C 283.097656 227.003906 283.566406 226.925781 284.042969 226.894531 C 284.519531 226.859375 284.996094 226.871094 285.46875 226.925781 C 285.945312 226.980469 286.410156 227.074219 286.867188 227.214844 C 287.324219 227.355469 287.765625 227.535156 288.1875 227.753906 C 288.613281 227.972656 289.015625 228.230469 289.390625 228.523438 C 289.769531 228.816406 290.113281 229.144531 290.433594 229.5 C 290.75 229.855469 291.03125 230.238281 291.28125 230.648438 C 291.527344 231.058594 291.734375 231.484375 291.902344 231.933594 C 292.074219 232.378906 292.199219 232.835938 292.285156 233.308594 C 292.371094 233.777344 292.410156 234.25 292.410156 234.726562 C 292.410156 259.507812 205.816406 261.429688 179.300781 261.429688 Z M 179.300781 261.429688 " fill-opacity="1" fill-rule="nonzero"/><path fill="#000000" d="M 179.300781 299.21875 C 151.460938 299.21875 86.695312 296.972656 86.695312 276.171875 C 86.695312 275.707031 86.734375 275.246094 86.816406 274.789062 C 86.894531 274.332031 87.015625 273.886719 87.179688 273.449219 C 87.339844 273.015625 87.535156 272.597656 87.773438 272.195312 C 88.007812 271.796875 88.277344 271.421875 88.578125 271.066406 C 88.878906 270.714844 89.210938 270.390625 89.570312 270.097656 C 89.929688 269.804688 90.3125 269.546875 90.71875 269.320312 C 91.125 269.09375 91.546875 268.90625 91.988281 268.757812 C 92.425781 268.605469 92.875 268.496094 93.332031 268.425781 C 93.792969 268.355469 94.253906 268.328125 94.71875 268.339844 C 95.183594 268.351562 95.640625 268.402344 96.097656 268.496094 C 96.550781 268.589844 96.996094 268.722656 97.425781 268.894531 C 97.855469 269.066406 98.269531 269.277344 98.664062 269.523438 C 99.054688 269.769531 99.425781 270.046875 99.769531 270.359375 C 100.113281 270.667969 100.429688 271.007812 100.710938 271.375 C 100.996094 271.742188 101.246094 272.132812 101.460938 272.542969 C 101.675781 272.957031 101.851562 273.382812 101.988281 273.828125 C 107.386719 277.464844 133.789062 283.523438 179.300781 283.523438 C 224.8125 283.523438 251.214844 277.414062 256.648438 273.828125 C 256.789062 273.386719 256.964844 272.960938 257.179688 272.554688 C 257.398438 272.144531 257.648438 271.757812 257.933594 271.394531 C 258.214844 271.03125 258.53125 270.695312 258.875 270.386719 C 259.21875 270.078125 259.585938 269.800781 259.980469 269.558594 C 260.371094 269.316406 260.785156 269.109375 261.214844 268.9375 C 261.644531 268.769531 262.082031 268.636719 262.535156 268.542969 C 262.988281 268.453125 263.445312 268.398438 263.910156 268.390625 C 264.371094 268.378906 264.828125 268.40625 265.285156 268.476562 C 265.742188 268.546875 266.191406 268.65625 266.628906 268.804688 C 267.066406 268.953125 267.484375 269.140625 267.890625 269.367188 C 268.292969 269.589844 268.675781 269.847656 269.035156 270.136719 C 269.394531 270.429688 269.722656 270.75 270.023438 271.101562 C 270.328125 271.449219 270.59375 271.824219 270.832031 272.21875 C 271.066406 272.617188 271.265625 273.03125 271.429688 273.464844 C 271.589844 273.898438 271.710938 274.339844 271.796875 274.796875 C 271.878906 275.25 271.921875 275.707031 271.925781 276.171875 C 271.925781 296.972656 207.125 299.21875 179.300781 299.21875 Z M 179.300781 299.21875 " fill-opacity="1" fill-rule="nonzero"/><path fill="#000000" d="M 179.300781 332.351562 C 146.382812 332.351562 107.179688 328.992188 107.179688 312.957031 C 107.179688 312.511719 107.214844 312.066406 107.292969 311.628906 C 107.367188 311.1875 107.480469 310.757812 107.628906 310.335938 C 107.777344 309.914062 107.960938 309.511719 108.179688 309.121094 C 108.398438 308.730469 108.648438 308.363281 108.929688 308.019531 C 109.214844 307.671875 109.523438 307.351562 109.859375 307.058594 C 110.195312 306.765625 110.554688 306.5 110.9375 306.269531 C 111.316406 306.035156 111.714844 305.839844 112.132812 305.675781 C 112.546875 305.511719 112.972656 305.382812 113.410156 305.292969 C 113.847656 305.203125 114.289062 305.148438 114.734375 305.132812 C 115.183594 305.117188 115.625 305.140625 116.070312 305.203125 C 116.511719 305.261719 116.945312 305.359375 117.371094 305.496094 C 117.796875 305.628906 118.207031 305.800781 118.605469 306.007812 C 119 306.210938 119.375 306.449219 119.734375 306.71875 C 120.089844 306.988281 120.417969 307.289062 120.722656 307.613281 C 121.027344 307.941406 121.304688 308.289062 121.546875 308.664062 C 121.792969 309.035156 122.003906 309.429688 122.183594 309.839844 C 131.429688 312.636719 140.847656 314.613281 150.441406 315.761719 C 160.035156 316.910156 169.65625 317.214844 179.300781 316.675781 C 188.953125 317.210938 198.578125 316.90625 208.175781 315.757812 C 217.773438 314.609375 227.199219 312.636719 236.453125 309.839844 C 236.632812 309.429688 236.84375 309.035156 237.085938 308.664062 C 237.332031 308.289062 237.605469 307.941406 237.910156 307.613281 C 238.214844 307.289062 238.546875 306.988281 238.902344 306.71875 C 239.257812 306.449219 239.632812 306.210938 240.03125 306.007812 C 240.425781 305.800781 240.839844 305.628906 241.265625 305.496094 C 241.691406 305.359375 242.125 305.261719 242.566406 305.203125 C 243.007812 305.140625 243.453125 305.117188 243.898438 305.132812 C 244.347656 305.148438 244.789062 305.203125 245.226562 305.292969 C 245.664062 305.382812 246.089844 305.511719 246.503906 305.675781 C 246.917969 305.839844 247.316406 306.035156 247.699219 306.269531 C 248.082031 306.5 248.441406 306.765625 248.777344 307.058594 C 249.113281 307.351562 249.421875 307.671875 249.703125 308.019531 C 249.984375 308.363281 250.234375 308.730469 250.453125 309.121094 C 250.671875 309.511719 250.855469 309.914062 251.007812 310.335938 C 251.15625 310.757812 251.269531 311.1875 251.34375 311.628906 C 251.417969 312.066406 251.457031 312.511719 251.457031 312.957031 C 251.457031 328.992188 212.21875 332.351562 179.300781 332.351562 Z M 179.300781 332.351562 " fill-opacity="1" fill-rule="nonzero"/><g clip-path="url(#a6311ec720)"><path fill="#000000" d="M 179.300781 373.375 C 162.550781 373.375 15.542969 372.371094 15.542969 337.558594 C 15.542969 328.765625 22.007812 317.613281 72.726562 309.238281 L 80.46875 307.964844 L 83.007812 323.414062 L 75.265625 324.660156 C 67.648438 325.160156 60.183594 326.5 52.871094 328.679688 C 45.554688 330.863281 38.578125 333.832031 31.933594 337.589844 C 40.019531 344.960938 89.152344 357.664062 179.300781 357.664062 C 269.449219 357.664062 318.503906 344.960938 326.699219 337.589844 C 320.050781 333.839844 313.070312 330.871094 305.753906 328.6875 C 298.4375 326.507812 290.972656 325.164062 283.355469 324.660156 L 275.628906 323.398438 L 278.199219 307.964844 L 285.910156 309.238281 C 336.5625 317.597656 343.046875 328.765625 343.046875 337.542969 C 343.046875 372.371094 196.082031 373.375 179.300781 373.375 Z M 179.300781 373.375 " fill-opacity="1" fill-rule="nonzero"/></g><path fill="#000000" d="M 318.503906 261.429688 C 317.988281 261.429688 317.480469 261.378906 316.976562 261.28125 C 316.472656 261.179688 315.984375 261.03125 315.507812 260.835938 C 315.035156 260.636719 314.582031 260.398438 314.15625 260.109375 C 313.730469 259.824219 313.332031 259.5 312.96875 259.136719 C 312.605469 258.773438 312.28125 258.378906 311.996094 257.953125 C 311.710938 257.527344 311.46875 257.074219 311.273438 256.601562 C 311.078125 256.125 310.929688 255.636719 310.828125 255.132812 C 310.726562 254.628906 310.679688 254.121094 310.679688 253.605469 C 310.679688 253.09375 310.726562 252.585938 310.828125 252.082031 C 310.929688 251.578125 311.078125 251.085938 311.273438 250.613281 C 311.46875 250.136719 311.710938 249.6875 311.996094 249.261719 C 312.28125 248.832031 312.605469 248.4375 312.96875 248.074219 C 313.332031 247.710938 313.730469 247.386719 314.15625 247.101562 C 314.582031 246.816406 315.035156 246.574219 315.507812 246.378906 C 315.984375 246.183594 316.472656 246.035156 316.976562 245.933594 C 317.480469 245.832031 317.988281 245.785156 318.503906 245.785156 C 319.226562 245.785156 319.949219 245.75 320.667969 245.675781 C 321.386719 245.605469 322.101562 245.5 322.8125 245.359375 C 323.519531 245.21875 324.222656 245.042969 324.914062 244.832031 C 325.605469 244.625 326.285156 244.378906 326.953125 244.101562 C 327.621094 243.828125 328.277344 243.519531 328.914062 243.175781 C 329.550781 242.835938 330.171875 242.464844 330.773438 242.0625 C 331.375 241.660156 331.953125 241.230469 332.511719 240.773438 C 333.074219 240.3125 333.609375 239.828125 334.121094 239.316406 C 334.632812 238.804688 335.117188 238.269531 335.574219 237.710938 C 336.035156 237.152344 336.464844 236.574219 336.867188 235.972656 C 337.269531 235.371094 337.640625 234.75 337.980469 234.113281 C 338.320312 233.476562 338.628906 232.824219 338.90625 232.15625 C 339.183594 231.484375 339.425781 230.804688 339.636719 230.113281 C 339.847656 229.421875 340.023438 228.722656 340.164062 228.011719 C 340.304688 227.304688 340.410156 226.589844 340.480469 225.871094 C 340.550781 225.148438 340.589844 224.429688 340.589844 223.707031 C 340.589844 222.980469 340.550781 222.261719 340.480469 221.542969 C 340.410156 220.820312 340.304688 220.105469 340.164062 219.398438 C 340.023438 218.6875 339.847656 217.988281 339.636719 217.296875 C 339.425781 216.605469 339.183594 215.925781 338.90625 215.257812 C 338.628906 214.589844 338.320312 213.933594 337.980469 213.296875 C 337.640625 212.660156 337.269531 212.039062 336.867188 211.4375 C 336.464844 210.835938 336.035156 210.257812 335.574219 209.699219 C 335.117188 209.140625 334.632812 208.605469 334.121094 208.09375 C 333.609375 207.582031 333.074219 207.097656 332.511719 206.636719 C 331.953125 206.179688 331.375 205.75 330.773438 205.347656 C 330.171875 204.945312 329.550781 204.574219 328.914062 204.234375 C 328.277344 203.894531 327.621094 203.582031 326.953125 203.308594 C 326.285156 203.03125 325.605469 202.785156 324.914062 202.578125 C 324.222656 202.367188 323.519531 202.191406 322.8125 202.050781 C 322.101562 201.910156 321.386719 201.804688 320.667969 201.734375 C 319.949219 201.660156 319.226562 201.625 318.503906 201.625 L 302.125 201.625 C 301.613281 201.625 301.101562 201.578125 300.597656 201.476562 C 300.09375 201.375 299.605469 201.226562 299.132812 201.03125 C 298.65625 200.835938 298.207031 200.59375 297.777344 200.308594 C 297.351562 200.023438 296.957031 199.699219 296.59375 199.335938 C 296.230469 198.972656 295.90625 198.578125 295.621094 198.148438 C 295.332031 197.722656 295.09375 197.273438 294.894531 196.796875 C 294.699219 196.324219 294.550781 195.832031 294.449219 195.328125 C 294.351562 194.824219 294.300781 194.316406 294.300781 193.804688 C 294.300781 193.289062 294.351562 192.78125 294.449219 192.277344 C 294.550781 191.773438 294.699219 191.285156 294.894531 190.808594 C 295.09375 190.335938 295.332031 189.882812 295.621094 189.457031 C 295.90625 189.03125 296.230469 188.636719 296.59375 188.273438 C 296.957031 187.910156 297.351562 187.585938 297.777344 187.300781 C 298.207031 187.011719 298.65625 186.773438 299.132812 186.574219 C 299.605469 186.378906 300.09375 186.230469 300.597656 186.132812 C 301.101562 186.03125 301.613281 185.980469 302.125 185.980469 L 318.503906 185.980469 C 319.738281 185.980469 320.972656 186.039062 322.203125 186.160156 C 323.433594 186.28125 324.65625 186.460938 325.867188 186.699219 C 327.082031 186.941406 328.28125 187.242188 329.460938 187.597656 C 330.644531 187.957031 331.808594 188.371094 332.953125 188.84375 C 334.09375 189.316406 335.210938 189.84375 336.300781 190.425781 C 337.390625 191.007812 338.453125 191.644531 339.480469 192.328125 C 340.507812 193.015625 341.5 193.75 342.457031 194.535156 C 343.414062 195.316406 344.328125 196.148438 345.203125 197.019531 C 346.078125 197.894531 346.90625 198.808594 347.691406 199.765625 C 348.476562 200.71875 349.210938 201.710938 349.898438 202.738281 C 350.585938 203.765625 351.222656 204.824219 351.804688 205.914062 C 352.386719 207.003906 352.914062 208.121094 353.390625 209.261719 C 353.863281 210.40625 354.277344 211.566406 354.636719 212.75 C 354.996094 213.933594 355.296875 215.128906 355.539062 216.34375 C 355.78125 217.554688 355.960938 218.777344 356.082031 220.007812 C 356.203125 221.234375 356.265625 222.46875 356.265625 223.707031 C 356.265625 224.941406 356.203125 226.175781 356.082031 227.40625 C 355.960938 228.632812 355.78125 229.855469 355.539062 231.066406 C 355.296875 232.28125 354.996094 233.476562 354.636719 234.660156 C 354.277344 235.84375 353.863281 237.003906 353.390625 238.148438 C 352.914062 239.289062 352.386719 240.40625 351.804688 241.496094 C 351.222656 242.585938 350.585938 243.644531 349.898438 244.671875 C 349.210938 245.699219 348.476562 246.691406 347.691406 247.644531 C 346.90625 248.601562 346.078125 249.515625 345.203125 250.390625 C 344.328125 251.261719 343.414062 252.09375 342.457031 252.875 C 341.5 253.660156 340.507812 254.394531 339.480469 255.082031 C 338.453125 255.765625 337.390625 256.402344 336.300781 256.984375 C 335.210938 257.566406 334.09375 258.09375 332.953125 258.566406 C 331.808594 259.039062 330.644531 259.453125 329.460938 259.8125 C 328.28125 260.167969 327.082031 260.46875 325.867188 260.710938 C 324.65625 260.949219 323.433594 261.128906 322.203125 261.25 C 320.972656 261.371094 319.738281 261.429688 318.503906 261.429688 Z M 318.503906 261.429688 " fill-opacity="1" fill-rule="nonzero"/><path fill="#000000" d="M 179.332031 98.410156 C 178.296875 98.414062 177.300781 98.21875 176.34375 97.828125 C 175.386719 97.433594 174.539062 96.875 173.804688 96.148438 C 173.046875 95.394531 172.3125 94.621094 171.59375 93.832031 C 170.875 93.039062 170.175781 92.234375 169.496094 91.410156 C 168.820312 90.585938 168.160156 89.742188 167.523438 88.886719 C 166.886719 88.03125 166.269531 87.15625 165.675781 86.269531 C 165.082031 85.382812 164.511719 84.480469 163.960938 83.566406 C 163.410156 82.652344 162.882812 81.722656 162.378906 80.78125 C 161.875 79.839844 161.394531 78.886719 160.9375 77.921875 C 160.480469 76.957031 160.046875 75.984375 159.636719 74.996094 C 159.226562 74.011719 158.84375 73.015625 158.480469 72.011719 C 158.121094 71.003906 157.785156 69.992188 157.476562 68.96875 C 157.164062 67.949219 156.878906 66.921875 156.621094 65.882812 C 156.359375 64.847656 156.125 63.808594 155.917969 62.761719 C 155.707031 61.714844 155.523438 60.660156 155.367188 59.605469 C 155.210938 58.550781 155.078125 57.492188 154.976562 56.429688 C 154.871094 55.367188 154.792969 54.300781 154.738281 53.234375 C 154.6875 52.167969 154.660156 51.101562 154.660156 50.035156 C 154.660156 48.964844 154.6875 47.898438 154.738281 46.832031 C 154.792969 45.765625 154.871094 44.703125 154.976562 43.640625 C 155.078125 42.578125 155.210938 41.515625 155.367188 40.460938 C 155.523438 39.40625 155.707031 38.351562 155.917969 37.304688 C 156.125 36.257812 156.359375 35.21875 156.621094 34.183594 C 156.878906 33.148438 157.164062 32.117188 157.476562 31.097656 C 157.785156 30.074219 158.121094 29.0625 158.480469 28.054688 C 158.84375 27.050781 159.226562 26.054688 159.636719 25.070312 C 160.046875 24.082031 160.480469 23.109375 160.9375 22.144531 C 161.394531 21.179688 161.875 20.226562 162.378906 19.285156 C 162.882812 18.34375 163.410156 17.414062 163.960938 16.5 C 164.511719 15.585938 165.082031 14.683594 165.675781 13.796875 C 166.269531 12.910156 166.886719 12.039062 167.523438 11.179688 C 168.160156 10.324219 168.820312 9.484375 169.496094 8.660156 C 170.175781 7.832031 170.875 7.027344 171.59375 6.238281 C 172.3125 5.445312 173.046875 4.675781 173.804688 3.921875 C 174.171875 3.578125 174.570312 3.277344 174.996094 3.011719 C 175.421875 2.746094 175.867188 2.523438 176.335938 2.347656 C 176.804688 2.167969 177.285156 2.035156 177.78125 1.949219 C 178.273438 1.863281 178.773438 1.824219 179.273438 1.832031 C 179.773438 1.84375 180.269531 1.898438 180.761719 2.003906 C 181.25 2.109375 181.726562 2.257812 182.1875 2.457031 C 182.648438 2.652344 183.089844 2.890625 183.503906 3.171875 C 183.921875 3.453125 184.304688 3.769531 184.660156 4.125 C 185.015625 4.476562 185.332031 4.863281 185.613281 5.277344 C 185.894531 5.695312 186.132812 6.132812 186.328125 6.59375 C 186.523438 7.054688 186.675781 7.53125 186.777344 8.019531 C 186.882812 8.511719 186.941406 9.007812 186.949219 9.507812 C 186.960938 10.011719 186.921875 10.507812 186.835938 11 C 186.75 11.496094 186.617188 11.976562 186.4375 12.445312 C 186.257812 12.914062 186.035156 13.359375 185.773438 13.785156 C 185.507812 14.210938 185.203125 14.609375 184.863281 14.976562 C 183.710938 16.121094 182.621094 17.324219 181.589844 18.578125 C 180.554688 19.832031 179.589844 21.132812 178.683594 22.480469 C 177.78125 23.832031 176.945312 25.222656 176.175781 26.652344 C 175.410156 28.085938 174.714844 29.550781 174.09375 31.050781 C 173.46875 32.550781 172.921875 34.078125 172.449219 35.632812 C 171.976562 37.183594 171.582031 38.757812 171.265625 40.351562 C 170.945312 41.945312 170.707031 43.546875 170.546875 45.164062 C 170.390625 46.78125 170.308594 48.402344 170.308594 50.023438 C 170.308594 51.648438 170.390625 53.269531 170.546875 54.886719 C 170.707031 56.503906 170.945312 58.105469 171.265625 59.699219 C 171.582031 61.292969 171.976562 62.867188 172.449219 64.417969 C 172.921875 65.972656 173.46875 67.5 174.09375 69 C 174.714844 70.5 175.410156 71.964844 176.175781 73.398438 C 176.945312 74.828125 177.78125 76.21875 178.683594 77.570312 C 179.589844 78.917969 180.554688 80.21875 181.589844 81.472656 C 182.621094 82.726562 183.710938 83.929688 184.863281 85.074219 C 185.410156 85.621094 185.867188 86.234375 186.230469 86.914062 C 186.597656 87.597656 186.855469 88.316406 187.007812 89.074219 C 187.160156 89.832031 187.195312 90.597656 187.121094 91.367188 C 187.042969 92.136719 186.859375 92.878906 186.5625 93.59375 C 186.265625 94.304688 185.871094 94.960938 185.382812 95.558594 C 184.890625 96.15625 184.324219 96.667969 183.679688 97.097656 C 183.035156 97.527344 182.34375 97.851562 181.605469 98.078125 C 180.863281 98.300781 180.105469 98.410156 179.332031 98.410156 Z M 179.332031 98.410156 " fill-opacity="1" fill-rule="nonzero"/><path fill="#000000" d="M 179.332031 179.597656 C 178.5625 179.589844 177.808594 179.476562 177.070312 179.25 C 176.332031 179.019531 175.644531 178.691406 175.003906 178.261719 C 174.363281 177.832031 173.800781 177.316406 173.3125 176.722656 C 172.824219 176.125 172.429688 175.46875 172.136719 174.757812 C 171.839844 174.042969 171.65625 173.304688 171.578125 172.535156 C 171.5 171.769531 171.535156 171.007812 171.683594 170.25 C 171.832031 169.492188 172.089844 168.773438 172.449219 168.089844 C 172.808594 167.410156 173.261719 166.792969 173.804688 166.246094 C 174.949219 165.09375 176.035156 163.890625 177.0625 162.636719 C 178.089844 161.378906 179.050781 160.074219 179.953125 158.722656 C 180.851562 157.375 181.683594 155.980469 182.445312 154.550781 C 183.207031 153.117188 183.898438 151.652344 184.519531 150.152344 C 185.136719 148.652344 185.683594 147.125 186.152344 145.570312 C 186.621094 144.019531 187.015625 142.445312 187.328125 140.855469 C 187.644531 139.261719 187.882812 137.660156 188.042969 136.042969 C 188.199219 134.429688 188.28125 132.8125 188.28125 131.1875 C 188.28125 129.566406 188.199219 127.945312 188.042969 126.332031 C 187.882812 124.714844 187.644531 123.113281 187.328125 121.523438 C 187.015625 119.929688 186.621094 118.359375 186.152344 116.804688 C 185.683594 115.25 185.136719 113.722656 184.519531 112.222656 C 183.898438 110.726562 183.207031 109.257812 182.445312 107.828125 C 181.683594 106.394531 180.851562 105.003906 179.953125 103.652344 C 179.050781 102.300781 178.089844 100.996094 177.0625 99.742188 C 176.035156 98.484375 174.949219 97.28125 173.804688 96.128906 C 173.417969 95.773438 173.074219 95.378906 172.765625 94.953125 C 172.460938 94.523438 172.199219 94.070312 171.984375 93.589844 C 171.769531 93.109375 171.605469 92.613281 171.488281 92.101562 C 171.375 91.585938 171.3125 91.066406 171.304688 90.542969 C 171.292969 90.015625 171.335938 89.496094 171.429688 88.976562 C 171.527344 88.460938 171.671875 87.957031 171.871094 87.46875 C 172.066406 86.980469 172.308594 86.519531 172.601562 86.078125 C 172.890625 85.640625 173.222656 85.234375 173.59375 84.863281 C 173.964844 84.492188 174.371094 84.160156 174.808594 83.871094 C 175.25 83.582031 175.710938 83.335938 176.199219 83.140625 C 176.6875 82.945312 177.191406 82.796875 177.707031 82.703125 C 178.226562 82.605469 178.746094 82.5625 179.273438 82.574219 C 179.800781 82.582031 180.320312 82.644531 180.832031 82.761719 C 181.347656 82.875 181.84375 83.039062 182.324219 83.253906 C 182.804688 83.46875 183.257812 83.730469 183.683594 84.035156 C 184.113281 84.34375 184.503906 84.6875 184.863281 85.074219 C 185.617188 85.828125 186.351562 86.601562 187.066406 87.394531 C 187.785156 88.183594 188.480469 88.992188 189.15625 89.820312 C 189.832031 90.644531 190.488281 91.484375 191.121094 92.34375 C 191.757812 93.199219 192.371094 94.074219 192.964844 94.960938 C 193.554688 95.847656 194.125 96.75 194.671875 97.664062 C 195.222656 98.578125 195.746094 99.507812 196.25 100.449219 C 196.75 101.390625 197.230469 102.34375 197.6875 103.308594 C 198.140625 104.273438 198.574219 105.246094 198.980469 106.234375 C 199.390625 107.21875 199.773438 108.214844 200.132812 109.21875 C 200.492188 110.222656 200.824219 111.234375 201.136719 112.257812 C 201.445312 113.277344 201.730469 114.304688 201.988281 115.339844 C 202.246094 116.375 202.480469 117.417969 202.6875 118.460938 C 202.894531 119.507812 203.078125 120.558594 203.234375 121.613281 C 203.390625 122.671875 203.519531 123.730469 203.625 124.789062 C 203.730469 125.851562 203.808594 126.914062 203.859375 127.980469 C 203.914062 129.046875 203.9375 130.113281 203.9375 131.179688 C 203.9375 132.246094 203.914062 133.3125 203.859375 134.378906 C 203.808594 135.445312 203.730469 136.507812 203.625 137.570312 C 203.519531 138.628906 203.390625 139.6875 203.234375 140.746094 C 203.078125 141.800781 202.894531 142.851562 202.6875 143.898438 C 202.480469 144.945312 202.246094 145.984375 201.988281 147.019531 C 201.730469 148.054688 201.445312 149.082031 201.136719 150.101562 C 200.824219 151.125 200.492188 152.136719 200.132812 153.140625 C 199.773438 154.144531 199.390625 155.140625 198.980469 156.125 C 198.574219 157.113281 198.140625 158.085938 197.6875 159.050781 C 197.230469 160.015625 196.75 160.96875 196.25 161.910156 C 195.746094 162.851562 195.222656 163.78125 194.671875 164.695312 C 194.125 165.609375 193.554688 166.511719 192.964844 167.398438 C 192.371094 168.289062 191.757812 169.160156 191.121094 170.015625 C 190.488281 170.875 189.832031 171.714844 189.15625 172.542969 C 188.480469 173.367188 187.785156 174.175781 187.066406 174.964844 C 186.351562 175.757812 185.617188 176.53125 184.863281 177.285156 C 184.132812 178.023438 183.285156 178.589844 182.328125 178.992188 C 181.371094 179.390625 180.371094 179.59375 179.332031 179.597656 Z M 179.332031 179.597656 " fill-opacity="1" fill-rule="nonzero"/><path fill="#000000" d="M 235.320312 107.800781 C 234.285156 107.804688 233.289062 107.605469 232.328125 107.210938 C 231.371094 106.816406 230.527344 106.253906 229.792969 105.519531 C 228.613281 104.347656 227.5 103.117188 226.441406 101.832031 C 225.386719 100.546875 224.394531 99.214844 223.46875 97.832031 C 222.542969 96.453125 221.691406 95.027344 220.90625 93.5625 C 220.121094 92.09375 219.410156 90.59375 218.769531 89.058594 C 218.132812 87.523438 217.574219 85.960938 217.089844 84.367188 C 216.605469 82.777344 216.203125 81.167969 215.878906 79.535156 C 215.550781 77.90625 215.308594 76.261719 215.144531 74.609375 C 214.980469 72.953125 214.898438 71.292969 214.898438 69.632812 C 214.898438 67.96875 214.980469 66.308594 215.144531 64.65625 C 215.308594 63 215.550781 61.355469 215.878906 59.726562 C 216.203125 58.09375 216.605469 56.484375 217.089844 54.894531 C 217.574219 53.304688 218.132812 51.738281 218.769531 50.203125 C 219.410156 48.667969 220.121094 47.167969 220.90625 45.699219 C 221.691406 44.234375 222.542969 42.8125 223.46875 41.429688 C 224.394531 40.046875 225.386719 38.714844 226.441406 37.429688 C 227.5 36.144531 228.613281 34.914062 229.792969 33.742188 C 230.15625 33.378906 230.550781 33.054688 230.976562 32.769531 C 231.402344 32.484375 231.855469 32.246094 232.328125 32.050781 C 232.804688 31.855469 233.292969 31.707031 233.792969 31.605469 C 234.296875 31.507812 234.804688 31.457031 235.320312 31.457031 C 235.832031 31.457031 236.339844 31.507812 236.84375 31.609375 C 237.347656 31.707031 237.835938 31.855469 238.308594 32.054688 C 238.78125 32.25 239.234375 32.492188 239.660156 32.777344 C 240.085938 33.0625 240.480469 33.386719 240.84375 33.75 C 241.207031 34.113281 241.527344 34.507812 241.8125 34.933594 C 242.097656 35.359375 242.339844 35.8125 242.535156 36.285156 C 242.730469 36.757812 242.878906 37.246094 242.976562 37.75 C 243.078125 38.253906 243.128906 38.761719 243.128906 39.273438 C 243.128906 39.789062 243.078125 40.296875 242.976562 40.796875 C 242.875 41.300781 242.726562 41.789062 242.53125 42.261719 C 242.332031 42.738281 242.09375 43.1875 241.808594 43.613281 C 241.523438 44.039062 241.199219 44.433594 240.835938 44.796875 C 240.023438 45.609375 239.25 46.460938 238.519531 47.351562 C 237.792969 48.238281 237.109375 49.160156 236.46875 50.117188 C 235.832031 51.074219 235.238281 52.058594 234.699219 53.074219 C 234.15625 54.085938 233.664062 55.125 233.226562 56.1875 C 232.785156 57.25 232.398438 58.332031 232.066406 59.433594 C 231.730469 60.53125 231.453125 61.644531 231.226562 62.773438 C 231.003906 63.902344 230.835938 65.039062 230.722656 66.183594 C 230.609375 67.328125 230.554688 68.472656 230.554688 69.621094 C 230.554688 70.773438 230.609375 71.917969 230.722656 73.0625 C 230.835938 74.207031 231.003906 75.34375 231.226562 76.472656 C 231.453125 77.601562 231.730469 78.714844 232.066406 79.8125 C 232.398438 80.914062 232.785156 81.996094 233.226562 83.058594 C 233.664062 84.121094 234.15625 85.160156 234.699219 86.171875 C 235.238281 87.1875 235.832031 88.171875 236.46875 89.128906 C 237.109375 90.085938 237.792969 91.007812 238.519531 91.894531 C 239.25 92.785156 240.023438 93.636719 240.835938 94.449219 C 241.378906 94.996094 241.835938 95.609375 242.199219 96.292969 C 242.5625 96.972656 242.820312 97.691406 242.972656 98.449219 C 243.121094 99.207031 243.160156 99.96875 243.085938 100.738281 C 243.011719 101.507812 242.824219 102.25 242.53125 102.960938 C 242.234375 103.675781 241.84375 104.332031 241.355469 104.929688 C 240.867188 105.527344 240.300781 106.042969 239.660156 106.472656 C 239.015625 106.902344 238.328125 107.230469 237.589844 107.457031 C 236.851562 107.683594 236.09375 107.796875 235.320312 107.800781 Z M 235.320312 107.800781 " fill-opacity="1" fill-rule="nonzero"/><path fill="#000000" d="M 235.320312 168.507812 C 234.550781 168.507812 233.796875 168.390625 233.058594 168.167969 C 232.320312 167.941406 231.628906 167.613281 230.988281 167.183594 C 230.347656 166.753906 229.78125 166.242188 229.292969 165.644531 C 228.804688 165.046875 228.414062 164.394531 228.117188 163.679688 C 227.820312 162.96875 227.636719 162.230469 227.558594 161.460938 C 227.484375 160.695312 227.519531 159.929688 227.667969 159.175781 C 227.816406 158.417969 228.074219 157.699219 228.433594 157.015625 C 228.796875 156.335938 229.25 155.722656 229.792969 155.175781 C 230.605469 154.359375 231.375 153.507812 232.101562 152.621094 C 232.832031 151.730469 233.515625 150.808594 234.152344 149.851562 C 234.789062 148.898438 235.378906 147.910156 235.921875 146.898438 C 236.460938 145.882812 236.953125 144.847656 237.390625 143.785156 C 237.832031 142.722656 238.214844 141.640625 238.550781 140.542969 C 238.882812 139.441406 239.160156 138.328125 239.386719 137.199219 C 239.609375 136.074219 239.777344 134.9375 239.890625 133.792969 C 240.003906 132.652344 240.058594 131.503906 240.058594 130.355469 C 240.058594 129.207031 240.003906 128.058594 239.890625 126.917969 C 239.777344 125.773438 239.609375 124.636719 239.386719 123.511719 C 239.160156 122.382812 238.882812 121.269531 238.550781 120.167969 C 238.214844 119.070312 237.832031 117.988281 237.390625 116.925781 C 236.953125 115.867188 236.460938 114.828125 235.921875 113.8125 C 235.378906 112.800781 234.789062 111.816406 234.152344 110.859375 C 233.515625 109.902344 232.832031 108.980469 232.101562 108.089844 C 231.375 107.203125 230.605469 106.351562 229.792969 105.539062 C 229.449219 105.171875 229.148438 104.773438 228.882812 104.347656 C 228.617188 103.921875 228.394531 103.476562 228.214844 103.007812 C 228.035156 102.539062 227.902344 102.058594 227.816406 101.566406 C 227.726562 101.070312 227.6875 100.574219 227.695312 100.074219 C 227.707031 99.570312 227.761719 99.074219 227.867188 98.585938 C 227.96875 98.09375 228.121094 97.617188 228.316406 97.15625 C 228.511719 96.695312 228.75 96.257812 229.027344 95.839844 C 229.308594 95.425781 229.625 95.039062 229.980469 94.683594 C 230.332031 94.328125 230.71875 94.011719 231.132812 93.730469 C 231.550781 93.449219 231.988281 93.210938 232.449219 93.011719 C 232.910156 92.816406 233.386719 92.664062 233.875 92.558594 C 234.367188 92.453125 234.863281 92.398438 235.363281 92.386719 C 235.863281 92.375 236.363281 92.414062 236.855469 92.5 C 237.351562 92.585938 237.832031 92.71875 238.300781 92.894531 C 238.769531 93.074219 239.21875 93.292969 239.644531 93.558594 C 240.070312 93.824219 240.464844 94.125 240.835938 94.464844 C 242.007812 95.640625 243.125 96.871094 244.179688 98.15625 C 245.230469 99.441406 246.222656 100.777344 247.144531 102.160156 C 248.066406 103.542969 248.921875 104.964844 249.703125 106.429688 C 250.488281 107.898438 251.195312 109.398438 251.832031 110.933594 C 252.46875 112.46875 253.027344 114.035156 253.507812 115.625 C 253.992188 117.214844 254.394531 118.824219 254.71875 120.453125 C 255.042969 122.085938 255.285156 123.726562 255.449219 125.382812 C 255.613281 127.035156 255.691406 128.695312 255.691406 130.355469 C 255.691406 132.019531 255.613281 133.675781 255.449219 135.328125 C 255.285156 136.984375 255.042969 138.625 254.71875 140.257812 C 254.394531 141.886719 253.992188 143.496094 253.507812 145.085938 C 253.027344 146.679688 252.46875 148.242188 251.832031 149.777344 C 251.195312 151.3125 250.488281 152.8125 249.703125 154.28125 C 248.921875 155.746094 248.066406 157.171875 247.144531 158.550781 C 246.222656 159.933594 245.230469 161.269531 244.179688 162.554688 C 243.125 163.839844 242.007812 165.070312 240.835938 166.246094 C 240.101562 166.972656 239.257812 167.535156 238.304688 167.925781 C 237.347656 168.320312 236.355469 168.511719 235.320312 168.507812 Z M 235.320312 168.507812 " fill-opacity="1" fill-rule="nonzero"/><path fill="#000000" d="M 271.988281 185.414062 C 270.949219 185.421875 269.953125 185.222656 268.992188 184.824219 C 268.035156 184.425781 267.191406 183.859375 266.460938 183.121094 C 266.097656 182.757812 265.773438 182.363281 265.484375 181.9375 C 265.199219 181.507812 264.957031 181.058594 264.761719 180.585938 C 264.566406 180.109375 264.417969 179.621094 264.316406 179.117188 C 264.214844 178.613281 264.164062 178.105469 264.164062 177.59375 C 264.164062 177.078125 264.214844 176.570312 264.316406 176.066406 C 264.417969 175.5625 264.566406 175.074219 264.761719 174.597656 C 264.957031 174.125 265.199219 173.675781 265.484375 173.25 C 265.773438 172.820312 266.097656 172.425781 266.460938 172.0625 C 267.222656 171.300781 267.96875 170.515625 268.691406 169.714844 C 269.417969 168.910156 270.121094 168.09375 270.808594 167.253906 C 271.492188 166.417969 272.15625 165.566406 272.796875 164.699219 C 273.441406 163.828125 274.0625 162.945312 274.664062 162.046875 C 275.261719 161.144531 275.839844 160.230469 276.394531 159.304688 C 276.949219 158.378906 277.480469 157.4375 277.988281 156.484375 C 278.5 155.527344 278.984375 154.5625 279.445312 153.585938 C 279.90625 152.609375 280.34375 151.621094 280.757812 150.621094 C 281.167969 149.621094 281.558594 148.613281 281.921875 147.597656 C 282.285156 146.578125 282.625 145.550781 282.9375 144.515625 C 283.25 143.484375 283.539062 142.441406 283.800781 141.394531 C 284.0625 140.34375 284.296875 139.289062 284.507812 138.230469 C 284.71875 137.167969 284.902344 136.105469 285.0625 135.035156 C 285.21875 133.964844 285.351562 132.894531 285.457031 131.820312 C 285.5625 130.742188 285.644531 129.664062 285.695312 128.585938 C 285.75 127.507812 285.777344 126.425781 285.777344 125.34375 C 285.777344 124.265625 285.75 123.183594 285.695312 122.105469 C 285.644531 121.023438 285.5625 119.949219 285.457031 118.871094 C 285.351562 117.796875 285.21875 116.722656 285.0625 115.65625 C 284.902344 114.585938 284.71875 113.519531 284.507812 112.460938 C 284.296875 111.398438 284.0625 110.347656 283.800781 109.296875 C 283.539062 108.25 283.25 107.207031 282.9375 106.171875 C 282.625 105.136719 282.285156 104.113281 281.921875 103.09375 C 281.558594 102.074219 281.167969 101.066406 280.757812 100.070312 C 280.34375 99.070312 279.90625 98.082031 279.445312 97.105469 C 278.984375 96.125 278.5 95.160156 277.988281 94.207031 C 277.480469 93.253906 276.949219 92.3125 276.394531 91.386719 C 275.839844 90.457031 275.261719 89.542969 274.664062 88.644531 C 274.0625 87.746094 273.441406 86.859375 272.796875 85.992188 C 272.15625 85.125 271.492188 84.269531 270.808594 83.433594 C 270.121094 82.597656 269.417969 81.777344 268.691406 80.976562 C 267.96875 80.175781 267.222656 79.390625 266.460938 78.625 C 266.097656 78.261719 265.773438 77.867188 265.484375 77.441406 C 265.199219 77.015625 264.957031 76.5625 264.761719 76.089844 C 264.566406 75.613281 264.417969 75.125 264.316406 74.621094 C 264.214844 74.117188 264.164062 73.609375 264.164062 73.097656 C 264.164062 72.582031 264.214844 72.074219 264.3125 71.570312 C 264.414062 71.066406 264.5625 70.578125 264.757812 70.101562 C 264.953125 69.625 265.195312 69.175781 265.480469 68.75 C 265.765625 68.320312 266.089844 67.925781 266.453125 67.5625 C 266.816406 67.199219 267.210938 66.875 267.636719 66.589844 C 268.0625 66.304688 268.515625 66.0625 268.988281 65.863281 C 269.464844 65.667969 269.953125 65.519531 270.457031 65.417969 C 270.960938 65.316406 271.46875 65.265625 271.984375 65.265625 C 272.496094 65.265625 273.007812 65.316406 273.511719 65.417969 C 274.015625 65.515625 274.503906 65.664062 274.980469 65.859375 C 275.453125 66.054688 275.90625 66.296875 276.332031 66.582031 C 276.757812 66.867188 277.15625 67.191406 277.519531 67.554688 C 278.460938 68.5 279.382812 69.46875 280.28125 70.460938 C 281.175781 71.453125 282.046875 72.46875 282.894531 73.5 C 283.742188 74.535156 284.5625 75.589844 285.355469 76.664062 C 286.152344 77.742188 286.921875 78.832031 287.664062 79.945312 C 288.402344 81.058594 289.117188 82.1875 289.804688 83.335938 C 290.488281 84.484375 291.148438 85.648438 291.777344 86.828125 C 292.40625 88.003906 293.003906 89.199219 293.578125 90.410156 C 294.148438 91.617188 294.6875 92.839844 295.199219 94.074219 C 295.707031 95.3125 296.1875 96.558594 296.636719 97.816406 C 297.089844 99.074219 297.507812 100.34375 297.894531 101.625 C 298.28125 102.902344 298.636719 104.191406 298.960938 105.488281 C 299.285156 106.785156 299.578125 108.089844 299.839844 109.402344 C 300.097656 110.710938 300.328125 112.03125 300.523438 113.351562 C 300.71875 114.675781 300.882812 116 301.011719 117.332031 C 301.144531 118.660156 301.242188 119.992188 301.308594 121.328125 C 301.371094 122.664062 301.40625 124 301.40625 125.335938 C 301.40625 126.671875 301.371094 128.007812 301.308594 129.34375 C 301.242188 130.679688 301.144531 132.011719 301.011719 133.34375 C 300.882812 134.671875 300.71875 136 300.523438 137.324219 C 300.328125 138.644531 300.097656 139.960938 299.839844 141.273438 C 299.578125 142.582031 299.285156 143.886719 298.960938 145.183594 C 298.636719 146.480469 298.28125 147.769531 297.894531 149.050781 C 297.507812 150.328125 297.089844 151.597656 296.636719 152.855469 C 296.1875 154.117188 295.707031 155.363281 295.199219 156.597656 C 294.6875 157.832031 294.148438 159.054688 293.578125 160.265625 C 293.003906 161.472656 292.40625 162.667969 291.777344 163.847656 C 291.148438 165.027344 290.488281 166.191406 289.804688 167.339844 C 289.117188 168.484375 288.402344 169.617188 287.664062 170.726562 C 286.921875 171.839844 286.152344 172.933594 285.355469 174.007812 C 284.5625 175.082031 283.742188 176.136719 282.894531 177.171875 C 282.046875 178.207031 281.175781 179.21875 280.28125 180.210938 C 279.382812 181.203125 278.460938 182.171875 277.519531 183.121094 C 276.789062 183.855469 275.941406 184.421875 274.984375 184.820312 C 274.023438 185.21875 273.027344 185.417969 271.988281 185.414062 Z M 271.988281 185.414062 " fill-opacity="1" fill-rule="nonzero"/></svg>