<svg xmlns="http://www.w3.org/2000/svg" xmlns:xlink="http://www.w3.org/1999/xlink" width="500" zoomAndPan="magnify" viewBox="0 0 375 374.999991" height="500" preserveAspectRatio="xMidYMid meet" version="1.0"><path fill="#000000" d="M 227.253906 147.433594 C 235.398438 140.6875 240.476562 129.015625 240.476562 116.070312 C 240.476562 95.535156 227.675781 78.832031 211.957031 78.832031 C 201.109375 78.832031 191.777344 86.921875 186.980469 98.648438 C 182.1875 86.921875 172.851562 78.832031 162.011719 78.832031 C 146.292969 78.832031 133.492188 95.535156 133.492188 116.070312 C 133.492188 129.089844 138.582031 140.761719 146.75 147.445312 C 139.871094 152.375 135.171875 157.375 132.964844 159.992188 C 131.871094 161.285156 131.867188 163.171875 132.964844 164.460938 C 138.21875 170.660156 157.285156 190.371094 187 190.371094 C 187.867188 190.371094 188.746094 190.359375 189.632812 190.324219 C 217.984375 189.230469 236.152344 170.25 241.042969 164.453125 C 242.132812 163.167969 242.132812 161.277344 241.042969 159.992188 C 238.90625 157.457031 234.230469 152.402344 227.277344 147.425781 Z M 211.957031 85.757812 C 223.871094 85.757812 233.558594 99.359375 233.558594 116.078125 C 233.558594 127.761719 228.570312 138.425781 221.027344 143.425781 C 213.964844 139.339844 205.265625 135.835938 195.082031 134.585938 C 192.121094 129.359375 190.433594 122.898438 190.433594 116.078125 C 190.433594 99.359375 200.09375 85.757812 211.949219 85.757812 Z M 187.105469 134.140625 C 187.035156 134.140625 186.96875 134.140625 186.898438 134.140625 C 186.941406 134.046875 186.960938 133.941406 187 133.84375 C 187.042969 133.941406 187.0625 134.046875 187.105469 134.140625 Z M 140.402344 116.078125 C 140.402344 99.359375 150.089844 85.757812 162.003906 85.757812 C 173.917969 85.757812 183.515625 99.359375 183.515625 116.078125 C 183.515625 122.863281 181.855469 129.332031 178.925781 134.597656 C 168.730469 135.859375 160.046875 139.34375 152.980469 143.433594 C 145.414062 138.523438 140.402344 127.859375 140.402344 116.078125 Z M 189.339844 183.410156 C 164.21875 184.519531 146.582031 168.882812 140.25 162.226562 C 146.597656 155.582031 164.175781 139.953125 189.339844 141.039062 C 211.945312 141.910156 227.414062 155.480469 233.746094 162.226562 C 227.414062 168.972656 211.945312 182.539062 189.339844 183.410156 Z M 189.339844 183.410156 " fill-opacity="1" fill-rule="nonzero"/><path fill="#000000" d="M 86.644531 211.183594 L 288.355469 211.183594 C 289.621094 211.183594 290.785156 210.492188 291.386719 209.390625 C 291.996094 208.285156 291.945312 206.933594 291.269531 205.871094 C 279.691406 187.625 273.570312 166.558594 273.570312 144.949219 L 273.570312 111.289062 C 273.570312 63.824219 234.957031 25.210938 187.492188 25.210938 C 140.03125 25.210938 101.417969 63.824219 101.417969 111.289062 L 101.417969 144.949219 C 101.417969 166.558594 95.292969 187.625 83.71875 205.871094 C 83.039062 206.929688 83 208.285156 83.601562 209.390625 C 84.207031 210.492188 85.371094 211.183594 86.628906 211.183594 Z M 108.339844 144.957031 L 108.339844 111.296875 C 108.339844 67.644531 143.855469 32.136719 187.5 32.136719 C 231.144531 32.136719 266.660156 67.652344 266.660156 111.296875 L 266.660156 144.957031 C 266.660156 165.808594 272.027344 186.183594 282.246094 204.265625 L 92.746094 204.265625 C 102.964844 186.183594 108.335938 165.800781 108.335938 144.957031 Z M 108.339844 144.957031 " fill-opacity="1" fill-rule="nonzero"/><path fill="#000000" d="M 370.273438 280.578125 C 372.183594 280.578125 373.734375 279.027344 373.734375 277.121094 L 373.734375 3.542969 C 373.734375 1.632812 372.183594 0.0820312 370.273438 0.0820312 L 4.726562 0.0820312 C 2.816406 0.0820312 1.265625 1.632812 1.265625 3.542969 L 1.265625 277.121094 C 1.265625 279.027344 2.816406 280.578125 4.726562 280.578125 L 156.808594 280.578125 L 156.808594 331.738281 L 109.46875 331.738281 C 108.058594 331.738281 106.785156 332.59375 106.257812 333.894531 L 91.632812 370.15625 C 91.203125 371.222656 91.328125 372.433594 91.980469 373.386719 C 92.621094 374.34375 93.695312 374.917969 94.84375 374.917969 L 280.148438 374.917969 C 281.296875 374.917969 282.371094 374.34375 283.015625 373.386719 C 283.664062 372.433594 283.78125 371.230469 283.359375 370.15625 L 268.734375 333.894531 C 268.207031 332.59375 266.933594 331.738281 265.523438 331.738281 L 218.183594 331.738281 L 218.183594 280.578125 Z M 366.816406 7 L 366.816406 227.671875 L 8.183594 227.671875 L 8.183594 7 Z M 8.183594 234.589844 L 366.816406 234.589844 L 366.816406 273.660156 L 8.183594 273.660156 Z M 275.023438 368 L 99.96875 368 L 111.808594 338.65625 L 263.183594 338.65625 Z M 211.265625 331.738281 L 163.726562 331.738281 L 163.726562 280.578125 L 211.265625 280.578125 Z M 211.265625 331.738281 " fill-opacity="1" fill-rule="nonzero"/><path fill="#000000" d="M 226.398438 253.796875 C 226.398438 251.886719 224.847656 250.335938 222.9375 250.335938 L 152.0625 250.335938 C 150.152344 250.335938 148.601562 251.886719 148.601562 253.796875 C 148.601562 255.707031 150.152344 257.253906 152.0625 257.253906 L 222.9375 257.253906 C 224.847656 257.253906 226.398438 255.707031 226.398438 253.796875 Z M 226.398438 253.796875 " fill-opacity="1" fill-rule="nonzero"/><path fill="#000000" d="M 212 124.277344 C 213.910156 124.277344 215.457031 122.726562 215.457031 120.816406 L 215.457031 108.984375 C 215.457031 107.074219 213.910156 105.527344 212 105.527344 C 210.089844 105.527344 208.539062 107.074219 208.539062 108.984375 L 208.539062 120.816406 C 208.539062 122.726562 210.089844 124.277344 212 124.277344 Z M 212 124.277344 " fill-opacity="1" fill-rule="nonzero"/><path fill="#000000" d="M 161.960938 105.527344 C 160.054688 105.527344 158.503906 107.074219 158.503906 108.984375 L 158.503906 120.816406 C 158.503906 122.726562 160.054688 124.277344 161.960938 124.277344 C 163.871094 124.277344 165.421875 122.726562 165.421875 120.816406 L 165.421875 108.984375 C 165.421875 107.074219 163.871094 105.527344 161.960938 105.527344 Z M 161.960938 105.527344 " fill-opacity="1" fill-rule="nonzero"/><path fill="#000000" d="M 36.003906 161.71875 C 37.914062 161.71875 39.464844 160.171875 39.464844 158.261719 L 39.464844 41.445312 C 39.464844 39.535156 37.914062 37.984375 36.003906 37.984375 C 34.097656 37.984375 32.546875 39.535156 32.546875 41.445312 L 32.546875 158.269531 C 32.546875 160.175781 34.097656 161.726562 36.003906 161.726562 Z M 36.003906 161.71875 " fill-opacity="1" fill-rule="nonzero"/><path fill="#000000" d="M 35.992188 198.183594 C 37.902344 198.183594 39.449219 196.632812 39.449219 194.722656 L 39.449219 187.5 C 39.449219 185.589844 37.902344 184.039062 35.992188 184.039062 C 34.082031 184.039062 32.53125 185.589844 32.53125 187.5 L 32.53125 194.722656 C 32.53125 196.632812 34.082031 198.183594 35.992188 198.183594 Z M 35.992188 198.183594 " fill-opacity="1" fill-rule="nonzero"/></svg>