<svg xmlns="http://www.w3.org/2000/svg" xmlns:xlink="http://www.w3.org/1999/xlink" width="500" zoomAndPan="magnify" viewBox="0 0 375 374.999991" height="500" preserveAspectRatio="xMidYMid meet" version="1.0"><path fill="#000000" d="M 144.621094 128.257812 C 137.082031 128.257812 131.757812 128.921875 128.875 129.589844 L 128.875 180.152344 C 132.203125 181.039062 136.636719 181.261719 142.179688 181.261719 C 162.585938 181.261719 175.003906 171.28125 175.003906 153.761719 C 175.003906 137.128906 163.472656 128.257812 144.621094 128.257812 Z M 144.621094 128.257812 " fill-opacity="1" fill-rule="nonzero"/><path fill="#000000" d="M 81.980469 7.621094 C 151.5 -0.148438 223.367188 -0.148438 292.890625 7.621094 C 331.160156 11.902344 362.03125 42.058594 366.527344 80.464844 C 374.835938 151.535156 374.835938 223.332031 366.527344 294.398438 C 362.03125 332.804688 331.160156 362.964844 292.890625 367.242188 C 223.367188 375.011719 151.5 375.011719 81.980469 367.242188 C 43.707031 362.964844 12.835938 332.804688 8.34375 294.398438 C 0.03125 223.328125 0.03125 151.535156 8.34375 80.464844 C 12.835938 42.058594 43.707031 11.902344 81.980469 7.621094 Z M 128.875 257.996094 L 101.816406 257.996094 L 101.816406 110.515625 C 111.578125 108.742188 125.105469 107.410156 143.511719 107.410156 C 163.472656 107.410156 178.109375 111.625 187.644531 119.609375 C 196.515625 126.929688 202.28125 138.683594 202.28125 152.652344 C 202.28125 166.847656 197.847656 178.601562 189.417969 186.585938 C 178.550781 197.453125 161.476562 202.550781 142.179688 202.550781 C 137.082031 202.550781 132.421875 202.332031 128.875 201.664062 Z M 237.125 260.433594 C 224.039062 260.433594 212.285156 257.109375 204.300781 252.671875 L 209.625 232.933594 C 215.835938 236.707031 227.589844 240.699219 237.347656 240.699219 C 249.324219 240.699219 254.644531 235.820312 254.644531 228.722656 C 254.644531 221.402344 250.210938 217.632812 236.902344 212.976562 C 215.835938 205.65625 206.964844 194.125 207.183594 181.484375 C 207.183594 162.410156 222.929688 147.554688 247.992188 147.554688 C 259.96875 147.554688 270.390625 150.65625 276.601562 153.984375 L 271.277344 173.277344 C 266.621094 170.617188 257.972656 167.070312 248.433594 167.070312 C 238.675781 167.070312 233.355469 171.726562 233.355469 178.378906 C 233.355469 185.253906 238.457031 188.582031 252.207031 193.460938 C 271.722656 200.554688 280.816406 210.535156 281.035156 226.503906 C 281.035156 246.019531 265.734375 260.433594 237.125 260.433594 Z M 237.125 260.433594 " fill-opacity="1" fill-rule="evenodd"/></svg>