<svg xmlns="http://www.w3.org/2000/svg" xmlns:xlink="http://www.w3.org/1999/xlink" width="500" zoomAndPan="magnify" viewBox="0 0 375 374.999991" height="500" preserveAspectRatio="xMidYMid meet" version="1.0"><defs><clipPath id="ce0a75b67c"><path d="M 0 11.015625 L 375 11.015625 L 375 364 L 0 364 Z M 0 11.015625 " clip-rule="nonzero"/></clipPath></defs><g clip-path="url(#ce0a75b67c)"><path fill="#000000" d="M 0 131.5625 L 0 123.703125 C 0 121.292969 1.949219 119.339844 4.359375 119.339844 C 6.773438 119.339844 8.722656 121.292969 8.722656 123.703125 L 8.722656 131.5625 C 8.722656 133.976562 6.773438 135.929688 4.359375 135.929688 C 1.949219 135.929688 0 133.976562 0 131.5625 Z M 35.519531 264.390625 C 35.519531 266.800781 37.46875 268.753906 39.878906 268.753906 L 61.5 268.753906 C 63.910156 268.753906 65.859375 266.800781 65.859375 264.390625 C 65.859375 261.976562 63.910156 260.023438 61.5 260.023438 L 44.242188 260.023438 L 44.242188 245.511719 C 44.242188 243.097656 42.292969 241.148438 39.878906 241.148438 C 37.46875 241.148438 35.519531 243.097656 35.519531 245.511719 Z M 269.925781 73.738281 C 272.335938 73.738281 274.285156 71.785156 274.285156 69.375 L 274.285156 50.496094 C 274.285156 48.082031 272.335938 46.132812 269.925781 46.132812 L 248.300781 46.132812 C 245.890625 46.132812 243.941406 48.082031 243.941406 50.496094 C 243.941406 52.910156 245.890625 54.859375 248.300781 54.859375 L 265.566406 54.859375 L 265.566406 69.375 C 265.566406 71.785156 267.515625 73.738281 269.925781 73.738281 Z M 39.878906 73.738281 C 42.292969 73.738281 44.242188 71.785156 44.242188 69.375 L 44.242188 54.859375 L 61.5 54.859375 C 63.910156 54.859375 65.859375 52.910156 65.859375 50.496094 C 65.859375 48.082031 63.910156 46.132812 61.5 46.132812 L 39.878906 46.132812 C 37.46875 46.132812 35.519531 48.082031 35.519531 50.496094 L 35.519531 69.375 C 35.519531 71.785156 37.46875 73.738281 39.878906 73.738281 Z M 132.300781 126.90625 C 132.300781 115.652344 141.453125 106.492188 152.699219 106.492188 C 163.945312 106.492188 173.097656 115.652344 173.097656 126.90625 C 173.097656 138.164062 163.945312 147.320312 152.699219 147.320312 C 141.453125 147.320312 132.300781 138.164062 132.300781 126.90625 Z M 141.023438 126.90625 C 141.023438 133.351562 146.257812 138.59375 152.699219 138.59375 C 159.140625 138.59375 164.375 133.351562 164.375 126.90625 C 164.375 120.460938 159.140625 115.222656 152.699219 115.222656 C 146.257812 115.222656 141.023438 120.460938 141.023438 126.90625 Z M 370.160156 342.527344 L 353.625 359.074219 C 350.414062 362.285156 346.433594 363.945312 342.726562 363.945312 C 339.847656 363.945312 337.132812 362.945312 335.078125 360.890625 L 277.738281 303.503906 L 13.082031 303.503906 C 5.871094 303.503906 0 297.628906 0 290.410156 L 0 147.273438 C 0 144.859375 1.949219 142.910156 4.359375 142.910156 C 6.773438 142.910156 8.722656 144.859375 8.722656 147.273438 L 8.722656 290.410156 C 8.722656 292.820312 10.675781 294.773438 13.082031 294.773438 L 269.015625 294.773438 L 219.085938 244.808594 L 182.648438 244.808594 C 184.351562 246.257812 186.246094 247.496094 188.394531 248.289062 L 199.605469 252.445312 C 201.3125 253.082031 202.449219 254.714844 202.449219 256.539062 C 202.449219 258.363281 201.308594 260 199.601562 260.632812 L 188.390625 264.78125 C 183.089844 266.746094 178.925781 270.914062 176.96875 276.210938 L 172.816406 287.433594 C 172.1875 289.148438 170.550781 290.285156 168.726562 290.285156 C 166.90625 290.285156 165.269531 289.144531 164.636719 287.433594 L 160.492188 276.210938 C 158.527344 270.914062 154.363281 266.746094 149.066406 264.78125 L 137.855469 260.632812 C 136.140625 260 135.007812 258.367188 135.007812 256.539062 C 135.007812 254.710938 136.148438 253.078125 137.855469 252.445312 L 149.070312 248.289062 C 151.214844 247.496094 153.109375 246.257812 154.8125 244.808594 L 74.378906 244.808594 C 67.167969 244.808594 61.300781 238.933594 61.300781 231.714844 L 61.300781 83.167969 C 61.300781 75.949219 67.167969 70.074219 74.378906 70.074219 L 235.417969 70.074219 C 242.628906 70.074219 248.5 75.949219 248.5 83.167969 L 248.5 142.140625 C 249.449219 140.789062 250.285156 139.347656 250.875 137.761719 L 255.023438 126.546875 C 255.652344 124.832031 257.285156 123.695312 259.113281 123.695312 C 260.9375 123.695312 262.566406 124.835938 263.203125 126.542969 L 267.351562 137.761719 C 269.3125 143.066406 273.476562 147.234375 278.777344 149.199219 L 289.984375 153.347656 C 291.699219 153.980469 292.832031 155.613281 292.832031 157.441406 C 292.832031 159.269531 291.691406 160.898438 289.988281 161.535156 L 278.777344 165.691406 C 273.476562 167.648438 269.3125 171.816406 267.351562 177.117188 L 263.203125 188.34375 C 262.570312 190.054688 260.933594 191.1875 259.113281 191.1875 C 257.289062 191.1875 255.652344 190.050781 255.023438 188.339844 L 250.875 177.117188 C 250.285156 175.535156 249.449219 174.09375 248.5 172.742188 L 248.5 200.402344 L 301.085938 253.03125 L 301.085938 24.472656 C 301.085938 22.0625 299.132812 20.109375 296.726562 20.109375 L 13.082031 20.109375 C 10.675781 20.109375 8.722656 22.0625 8.722656 24.472656 L 8.722656 108 C 8.722656 110.410156 6.773438 112.363281 4.359375 112.363281 C 1.949219 112.363281 0 110.410156 0 108 L 0 24.472656 C 0 17.253906 5.871094 11.382812 13.082031 11.382812 L 296.730469 11.382812 C 303.941406 11.382812 309.8125 17.253906 309.8125 24.472656 L 309.8125 261.753906 L 371.972656 323.964844 C 376.664062 328.660156 375.871094 336.8125 370.160156 342.527344 Z M 242.484375 157.382812 L 242.320312 157.441406 L 242.480469 157.507812 C 250.167969 160.347656 256.207031 166.398438 259.054688 174.089844 L 259.117188 174.257812 L 259.183594 174.089844 C 262.019531 166.398438 268.0625 160.351562 275.753906 157.507812 L 275.917969 157.441406 L 275.753906 157.382812 C 268.0625 154.53125 262.027344 148.484375 259.1875 140.789062 L 259.121094 140.628906 L 259.058594 140.789062 C 256.214844 148.488281 250.171875 154.527344 242.488281 157.382812 Z M 70.027344 83.167969 L 70.027344 224.996094 L 103.902344 169.738281 C 107.265625 164.191406 112.53125 160.957031 118.328125 160.871094 C 118.410156 160.871094 118.488281 160.871094 118.570312 160.871094 C 124.265625 160.871094 129.515625 163.929688 133 169.300781 L 154.398438 202.542969 L 174.460938 169.75 C 177.914062 164.152344 183.230469 160.925781 189.058594 160.875 L 189.1875 160.875 C 194.894531 160.875 200.128906 163.953125 203.5625 169.328125 L 223.796875 200.785156 L 226.160156 198.417969 C 230.1875 194.382812 235.414062 192.859375 239.796875 193.925781 L 239.796875 165.863281 C 239.683594 165.820312 239.585938 165.746094 239.472656 165.703125 L 228.257812 161.546875 C 226.542969 160.914062 225.410156 159.28125 225.410156 157.457031 C 225.410156 155.632812 226.546875 153.996094 228.257812 153.363281 L 239.472656 149.210938 C 239.585938 149.167969 239.683594 149.09375 239.796875 149.050781 L 239.796875 83.175781 C 239.796875 80.769531 237.839844 78.8125 235.433594 78.8125 L 74.390625 78.8125 C 71.984375 78.8125 70.027344 80.769531 70.027344 83.175781 Z M 74.390625 236.082031 L 160.789062 236.082031 L 162.550781 231.320312 L 125.667969 174.035156 C 123.835938 171.214844 121.246094 169.589844 118.558594 169.589844 L 118.460938 169.589844 C 115.722656 169.636719 113.128906 171.339844 111.34375 174.28125 L 73.570312 235.910156 C 73.84375 235.960938 74.101562 236.074219 74.394531 236.074219 Z M 185.371094 256.46875 C 177.679688 253.628906 171.640625 247.578125 168.796875 239.882812 L 168.734375 239.71875 L 168.671875 239.882812 C 165.828125 247.578125 159.785156 253.625 152.097656 256.46875 L 151.9375 256.535156 L 152.097656 256.59375 C 159.789062 259.445312 165.824219 265.488281 168.671875 273.179688 L 168.734375 273.34375 L 168.796875 273.183594 C 171.636719 265.488281 177.675781 259.449219 185.367188 256.59375 L 185.535156 256.535156 Z M 210.367188 236.082031 L 208.523438 234.234375 L 207.796875 233.511719 C 203.109375 228.820312 203.902344 220.667969 209.613281 214.949219 L 217.472656 207.082031 L 196.214844 174.03125 C 194.410156 171.207031 191.847656 169.589844 189.175781 169.589844 L 189.117188 169.589844 C 186.351562 169.617188 183.714844 171.332031 181.878906 174.308594 L 159.632812 210.679688 L 167.546875 222.972656 C 167.929688 222.863281 168.324219 222.789062 168.738281 222.789062 C 170.558594 222.789062 172.191406 223.925781 172.828125 225.632812 L 176.691406 236.082031 L 210.371094 236.082031 Z M 236.972656 250.363281 L 261.535156 225.78125 L 239.253906 203.480469 C 238.625 202.851562 237.753906 202.554688 236.796875 202.554688 C 235.316406 202.554688 233.632812 203.257812 232.320312 204.578125 L 215.785156 221.121094 C 213.613281 223.296875 213.113281 226.480469 214.695312 228.0625 L 236.976562 250.363281 Z M 365.808594 330.136719 L 267.703125 231.953125 L 243.140625 256.535156 L 341.246094 354.71875 C 342.148438 355.617188 345 355.355469 347.460938 352.902344 L 363.996094 336.355469 C 366.445312 333.902344 366.703125 331.035156 365.808594 330.136719 Z M 365.808594 330.136719 " fill-opacity="1" fill-rule="nonzero"/></g></svg>