<svg xmlns="http://www.w3.org/2000/svg" xmlns:xlink="http://www.w3.org/1999/xlink" width="500" zoomAndPan="magnify" viewBox="0 0 375 374.999991" height="500" preserveAspectRatio="xMidYMid meet" version="1.0"><path fill="#000000" d="M 171.140625 1.617188 C 129.164062 1.617188 91.136719 9.171875 62.9375 21.859375 C 48.835938 28.203125 37.144531 35.828125 28.695312 44.820312 C 20.246094 53.8125 15 64.496094 15 75.96875 L 15 291.59375 C 15 322.242188 52.136719 347.953125 106.546875 359.457031 L 109.234375 344.90625 C 60.140625 334.503906 29.871094 312.53125 29.871094 291.59375 L 29.871094 256.683594 C 47.320312 274.5 79.042969 288.230469 118.457031 294.789062 L 121.15625 280.210938 C 65.070312 271.050781 29.871094 247.265625 29.871094 224.675781 L 29.871094 182.578125 C 38.222656 191.074219 49.4375 198.359375 62.9375 204.433594 C 91.136719 217.121094 129.164062 224.675781 171.140625 224.675781 C 213.117188 224.675781 251.148438 217.121094 279.347656 204.433594 C 292.847656 198.359375 304.0625 191.074219 312.414062 182.578125 L 312.414062 224.675781 C 312.414062 242.765625 289.859375 261.65625 252.074219 273.167969 L 251.332031 276.722656 C 254.636719 276.746094 268.277344 276.753906 283.28125 276.753906 C 295.164062 270.925781 305.074219 264.171875 312.414062 256.683594 L 312.414062 276.738281 C 318.972656 276.738281 324.289062 276.738281 327.285156 276.738281 L 327.285156 75.96875 C 327.285156 64.496094 322.039062 53.8125 313.589844 44.820312 C 305.140625 35.828125 293.445312 28.203125 279.347656 21.859375 C 251.148438 9.171875 213.117188 1.617188 171.140625 1.617188 Z M 171.140625 16.488281 C 211.3125 16.488281 247.628906 23.898438 273.246094 35.425781 C 286.054688 41.1875 296.144531 47.976562 302.742188 55 C 309.339844 62.019531 312.414062 68.957031 312.414062 75.96875 C 312.414062 82.984375 309.339844 89.917969 302.742188 96.941406 C 296.144531 103.960938 286.054688 110.753906 273.246094 116.515625 C 247.628906 128.042969 211.3125 135.453125 171.140625 135.453125 C 130.972656 135.453125 94.652344 128.042969 69.035156 116.515625 C 56.226562 110.753906 46.140625 103.960938 39.542969 96.941406 C 32.945312 89.917969 29.871094 82.984375 29.871094 75.96875 C 29.871094 68.957031 32.945312 62.019531 39.542969 55 C 46.140625 47.976562 56.226562 41.1875 69.035156 35.425781 C 94.652344 23.898438 130.972656 16.488281 171.140625 16.488281 Z M 29.871094 108.222656 C 38.222656 116.722656 49.4375 124.003906 62.9375 130.078125 C 91.136719 142.769531 129.164062 150.324219 171.140625 150.324219 C 213.117188 150.324219 251.148438 142.769531 279.347656 130.078125 C 292.847656 124.003906 304.0625 116.722656 312.414062 108.222656 L 312.414062 150.324219 C 312.414062 157.335938 309.339844 164.273438 302.742188 171.292969 C 296.144531 178.316406 286.054688 185.105469 273.246094 190.867188 C 247.628906 202.394531 211.3125 209.804688 171.140625 209.804688 C 130.972656 209.804688 94.652344 202.394531 69.035156 190.867188 C 56.226562 185.105469 46.140625 178.316406 39.542969 171.292969 C 32.945312 164.273438 29.871094 157.335938 29.871094 150.324219 Z M 219.734375 261.851562 L 201.085938 351.078125 L 220.605469 351.078125 L 230.03125 306.464844 L 245.625 306.464844 C 250.601562 306.464844 253.882812 307.292969 255.414062 308.933594 C 256.9375 310.59375 257.273438 313.722656 256.386719 318.242188 L 249.269531 351.078125 L 269.09375 351.078125 L 276.804688 315.554688 C 278.464844 307.042969 277.214844 300.789062 273.085938 296.996094 C 268.886719 293.144531 261.476562 291.59375 250.433594 291.59375 L 233.035156 291.59375 L 239.238281 261.851562 Z M 134.167969 291.59375 L 119.09375 373.382812 L 138.773438 373.382812 L 142.691406 351.078125 L 154.921875 351.078125 C 180.542969 351.078125 194.496094 345.144531 199.707031 323.152344 C 204.191406 304.257812 192.730469 291.59375 173.828125 291.59375 Z M 290.3125 291.59375 L 275.238281 373.382812 L 294.914062 373.382812 L 298.835938 351.078125 L 311.0625 351.078125 C 336.683594 351.078125 350.636719 345.144531 355.847656 323.152344 C 360.332031 304.257812 348.871094 291.59375 329.972656 291.59375 Z M 151.074219 306.464844 L 166.394531 306.464844 C 179.09375 306.464844 181.765625 312.191406 181.105469 318.5625 C 179.402344 334.964844 169.179688 336.207031 158.175781 336.207031 L 145.46875 336.207031 Z M 307.214844 306.464844 L 322.535156 306.464844 C 335.234375 306.464844 337.910156 312.191406 337.246094 318.5625 C 335.542969 334.964844 325.320312 336.207031 314.316406 336.207031 L 301.609375 336.207031 Z M 307.214844 306.464844 " fill-opacity="1" fill-rule="nonzero"/></svg>