<svg xmlns="http://www.w3.org/2000/svg" xmlns:xlink="http://www.w3.org/1999/xlink" width="500" zoomAndPan="magnify" viewBox="0 0 375 374.999991" height="500" preserveAspectRatio="xMidYMid meet" version="1.0"><path fill="#000000" d="M 109.566406 284.722656 C 103.179688 284.722656 97.992188 279.535156 97.992188 273.148438 L 97.992188 233.640625 C 98.457031 207.578125 114.953125 192.128906 142.113281 192.128906 L 226.835938 192.128906 C 262.097656 192.128906 283.148438 172.285156 283.148438 139.042969 L 283.148438 99.535156 C 283.148438 93.148438 288.332031 87.964844 294.722656 87.964844 C 301.109375 87.964844 306.296875 93.148438 306.296875 99.535156 L 306.296875 138.117188 C 306.296875 185.355469 275.109375 215.277344 226.835938 215.277344 L 142.113281 215.277344 C 123.917969 215.277344 121.296875 224.660156 121.140625 233.859375 L 121.140625 273.148438 C 121.140625 279.535156 115.957031 284.722656 109.566406 284.722656 Z M 109.566406 284.722656 " fill-opacity="1" fill-rule="nonzero"/><path fill="#000000" d="M 189.335938 373.457031 C 174.429688 373.457031 159.214844 372.285156 144.722656 369.921875 C 116.3125 365.109375 97.992188 343.300781 97.992188 314.351562 L 97.992188 233.640625 C 97.992188 227.253906 103.179688 222.066406 109.566406 222.066406 C 115.957031 222.066406 121.140625 227.253906 121.140625 233.640625 L 121.140625 314.335938 C 121.140625 331.945312 131.375 344.167969 148.519531 347.066406 C 175.324219 351.417969 204.769531 351.390625 229.214844 346.914062 C 243.671875 344.445312 252.730469 340.785156 257.023438 335.710938 C 260.507812 331.589844 261.992188 325.199219 261.992188 314.320312 L 261.992188 276.976562 L 198.273438 276.976562 C 191.882812 276.976562 186.699219 271.789062 186.699219 265.402344 C 186.699219 259.011719 191.882812 253.828125 198.273438 253.828125 L 273.566406 253.828125 C 279.953125 253.828125 285.140625 259.011719 285.140625 265.402344 L 285.140625 314.320312 C 285.140625 325.507812 283.949219 339.722656 274.675781 350.664062 C 266.621094 360.167969 253.457031 366.234375 233.242188 369.691406 C 219.660156 372.207031 204.660156 373.457031 189.335938 373.457031 Z M 189.335938 373.457031 " fill-opacity="1" fill-rule="nonzero"/><path fill="#000000" d="M 305.371094 277.007812 L 273.582031 277.007812 C 267.191406 277.007812 262.007812 271.820312 262.007812 265.433594 C 262.007812 259.042969 267.191406 253.859375 273.582031 253.859375 L 305.371094 253.859375 C 327.683594 253.859375 338.285156 245.957031 343.195312 225.679688 C 350.648438 194.523438 350.648438 176.417969 343.179688 144.953125 C 336.417969 116.867188 326.3125 111.109375 313.242188 111.109375 L 306.296875 111.109375 L 306.296875 138.117188 C 306.296875 144.507812 301.109375 150.15625 294.722656 150.15625 C 288.332031 150.15625 283.148438 145.417969 283.148438 139.027344 L 283.148438 99.535156 C 283.148438 93.148438 288.332031 87.964844 294.722656 87.964844 L 313.242188 87.964844 C 349.121094 87.964844 360.355469 117.40625 365.695312 139.566406 C 373.949219 174.382812 373.949219 196.605469 365.695312 231.09375 C 358.332031 261.558594 338.039062 277.007812 305.371094 277.007812 Z M 305.371094 277.007812 " fill-opacity="1" fill-rule="nonzero"/><path fill="#000000" d="M 217.578125 338.734375 C 202.683594 338.734375 190.570312 326.605469 190.570312 311.699219 C 190.570312 296.820312 202.683594 284.722656 217.578125 284.722656 C 232.46875 284.722656 244.582031 296.820312 244.582031 311.699219 C 244.429688 326.667969 232.316406 338.734375 217.578125 338.734375 Z M 217.578125 307.871094 C 215.449219 307.871094 213.71875 309.582031 213.71875 311.699219 C 213.71875 315.894531 221.390625 315.957031 221.433594 311.589844 C 221.433594 309.582031 219.691406 307.871094 217.578125 307.871094 Z M 217.578125 307.871094 " fill-opacity="1" fill-rule="nonzero"/><path fill="#000000" d="M 78.734375 288.582031 C 72.34375 288.582031 67.160156 283.394531 67.160156 277.007812 L 67.160156 238.425781 C 67.160156 191.1875 98.347656 161.265625 146.621094 161.265625 L 231.34375 161.265625 C 249.535156 161.265625 252.160156 151.882812 252.316406 142.699219 L 252.316406 103.394531 C 252.316406 97.007812 257.5 91.820312 263.890625 91.820312 C 270.277344 91.820312 275.464844 97.007812 275.464844 103.394531 L 275.464844 142.917969 C 275 168.980469 258.503906 184.414062 231.34375 184.414062 L 146.621094 184.414062 C 111.359375 184.414062 90.308594 204.257812 90.308594 237.5 L 90.308594 277.007812 C 90.308594 283.394531 85.125 288.582031 78.734375 288.582031 Z M 78.734375 288.582031 " fill-opacity="1" fill-rule="nonzero"/><path fill="#000000" d="M 263.890625 154.492188 C 257.5 154.492188 252.316406 149.304688 252.316406 142.917969 L 252.316406 62.191406 C 252.316406 44.582031 242.082031 32.359375 224.9375 29.460938 C 198.132812 25.109375 168.6875 25.140625 144.242188 29.613281 C 129.785156 32.082031 120.726562 35.742188 116.417969 40.800781 C 112.933594 44.921875 111.449219 51.3125 111.449219 62.191406 L 111.449219 99.535156 L 175.167969 99.535156 C 181.558594 99.535156 186.742188 104.722656 186.742188 111.109375 C 186.742188 117.5 181.558594 122.683594 175.167969 122.683594 L 99.875 122.683594 C 93.488281 122.683594 88.300781 117.5 88.300781 111.109375 L 88.300781 62.191406 C 88.300781 51.003906 89.492188 36.789062 98.765625 25.847656 C 106.820312 16.34375 119.984375 10.277344 140.199219 6.820312 C 167.050781 1.945312 199.351562 1.851562 228.734375 6.636719 C 257.160156 11.449219 275.476562 33.257812 275.476562 62.207031 L 275.476562 142.917969 C 275.464844 149.304688 270.292969 154.492188 263.890625 154.492188 Z M 263.890625 154.492188 " fill-opacity="1" fill-rule="nonzero"/><path fill="#000000" d="M 78.734375 288.582031 L 60.214844 288.582031 C 24.335938 288.582031 13.101562 259.136719 7.761719 236.976562 C -0.492188 202.160156 -0.492188 179.9375 7.761719 145.449219 C 15.125 114.984375 35.417969 99.535156 68.085938 99.535156 L 99.875 99.535156 C 106.265625 99.535156 111.449219 104.722656 111.449219 111.109375 C 111.449219 117.5 106.265625 122.683594 99.875 122.683594 L 68.085938 122.683594 C 45.773438 122.683594 35.167969 130.585938 30.261719 150.863281 C 22.808594 182.023438 22.808594 200.125 30.277344 231.589844 C 37.035156 259.675781 47.144531 265.433594 60.214844 265.433594 L 67.160156 265.433594 L 67.160156 238.425781 C 67.160156 232.035156 72.34375 226.390625 78.734375 226.390625 C 85.125 226.390625 90.308594 231.125 90.308594 237.515625 L 90.308594 277.023438 C 90.308594 283.394531 85.125 288.582031 78.734375 288.582031 Z M 78.734375 288.582031 " fill-opacity="1" fill-rule="nonzero"/><path fill="#000000" d="M 155.878906 91.820312 C 140.988281 91.820312 128.875 79.722656 128.875 64.84375 C 129.011719 49.875 141.125 37.808594 155.878906 37.808594 C 170.773438 37.808594 182.886719 49.9375 182.886719 64.84375 C 182.886719 79.722656 170.773438 91.820312 155.878906 91.820312 Z M 155.878906 60.957031 C 153.734375 60.957031 152.035156 62.714844 152.023438 64.953125 C 152.023438 68.964844 159.738281 69.074219 159.738281 64.84375 C 159.738281 62.777344 157.949219 60.957031 155.878906 60.957031 Z M 155.878906 60.957031 " fill-opacity="1" fill-rule="nonzero"/></svg>