<svg xmlns="http://www.w3.org/2000/svg" xmlns:xlink="http://www.w3.org/1999/xlink" width="500" zoomAndPan="magnify" viewBox="0 0 375 374.999991" height="500" preserveAspectRatio="xMidYMid meet" version="1.0"><path fill="#d1b68d" d="M 101.996094 30 C 66.464844 30 37.5 58.964844 37.5 94.496094 L 37.5 288.003906 C 37.5 323.535156 66.464844 352.5 101.996094 352.5 L 273.003906 352.5 C 308.535156 352.5 337.5 323.535156 337.5 288.003906 L 337.5 94.496094 C 337.5 58.964844 308.535156 30 273.003906 30 Z M 101.996094 45 L 273.003906 45 C 300.425781 45 322.5 67.074219 322.5 94.496094 L 322.5 235.503906 C 322.5 262.925781 300.425781 285 273.003906 285 L 101.996094 285 C 74.574219 285 52.5 262.925781 52.5 235.503906 L 52.5 94.496094 C 52.5 67.074219 74.574219 45 101.996094 45 Z M 188.699219 102.800781 C 163.570312 102.800781 146.675781 116.488281 146.675781 136.667969 C 146.675781 153.558594 155.984375 163.28125 177.496094 168.71875 L 192.730469 172.675781 C 209.132812 176.800781 216.546875 183.21875 216.546875 193.359375 C 216.546875 205.148438 204.773438 213.792969 188.789062 213.792969 C 171.898438 213.792969 160.03125 205.890625 158.21875 193.445312 L 158.21875 193.433594 L 143.230469 193.433594 C 144.792969 213.953125 162.183594 227.300781 187.398438 227.300781 C 214.585938 227.300781 231.796875 213.382812 231.796875 191.542969 C 231.796875 174.074219 221.914062 164.515625 197.285156 158.335938 L 184.832031 155.054688 C 168.429688 150.855469 161.921875 145.488281 161.921875 136.171875 C 161.921875 124.140625 172.398438 116.234375 188.21875 116.234375 C 203.054688 116.234375 213.101562 123.492188 215.15625 135.6875 L 230.066406 135.6875 C 228.839844 116.488281 211.6875 102.800781 188.699219 102.800781 Z M 52.5 276.765625 C 64.347656 290.945312 82.144531 300 101.996094 300 L 273.003906 300 C 292.855469 300 310.652344 290.945312 322.5 276.765625 L 322.5 288.003906 C 322.5 315.425781 300.425781 337.5 273.003906 337.5 L 101.996094 337.5 C 74.574219 337.5 52.5 315.425781 52.5 288.003906 Z M 52.5 276.765625 " fill-opacity="1" fill-rule="nonzero"/></svg>