<svg xmlns="http://www.w3.org/2000/svg" xmlns:xlink="http://www.w3.org/1999/xlink" viewBox="0,0,256,256" width="50px" height="50px" fill-rule="nonzero"><g fill="#000000" fill-rule="nonzero" stroke="none" stroke-width="1" stroke-linecap="butt" stroke-linejoin="miter" stroke-miterlimit="10" stroke-dasharray="" stroke-dashoffset="0" font-family="none" font-weight="none" font-size="none" text-anchor="none" style="mix-blend-mode: normal"><path d="M0,256v-256h256v256z" id="bgRectangle"></path></g><g fill="#ffffff" fill-rule="nonzero" stroke="none" stroke-width="1" stroke-linecap="butt" stroke-linejoin="miter" stroke-miterlimit="10" stroke-dasharray="" stroke-dashoffset="0" font-family="none" font-weight="none" font-size="none" text-anchor="none" style="mix-blend-mode: normal"><g transform="scale(5.12,5.12)"><path d="M13.59961,4c-4.73754,0 -8.59961,3.86206 -8.59961,8.59961v18v0.80078v7c0,4.73754 3.86206,8.59961 8.59961,8.59961h22.80078c4.73754,0 8.59961,-3.86207 8.59961,-8.59961v-7v-0.80078v-18c0,-4.73754 -3.86207,-8.59961 -8.59961,-8.59961zM13.59961,6h22.80078c3.65646,0 6.59961,2.94315 6.59961,6.59961v18v0.80078c0,3.65646 -2.94315,6.59961 -6.59961,6.59961h-22.80078c-3.65645,0 -6.59961,-2.94315 -6.59961,-6.59961v-0.80078v-18c0,-3.65645 2.94315,-6.59961 6.59961,-6.59961zM25.16016,13.70703c-3.351,0 -5.60352,1.82462 -5.60352,4.51563c0,2.252 1.24138,3.54844 4.10938,4.27344l2.03125,0.52734c2.187,0.55 3.17578,1.40581 3.17578,2.75781c0,1.572 -1.57017,2.72461 -3.70117,2.72461c-2.252,0 -3.83417,-1.05389 -4.07617,-2.71289v-0.00195h-1.99805c0.208,2.736 2.52667,4.51563 5.88867,4.51563c3.625,0 5.91992,-1.85558 5.91992,-4.76758c0,-2.329 -1.31756,-3.60373 -4.60156,-4.42773l-1.66016,-0.4375c-2.187,-0.56 -3.05469,-1.27558 -3.05469,-2.51758c0,-1.604 1.39686,-2.6582 3.50586,-2.6582c1.978,0 3.3178,0.96775 3.5918,2.59375h1.98828c-0.164,-2.56 -2.45063,-4.38477 -5.51562,-4.38477zM7,36.90234c1.57946,1.89041 3.95257,3.09766 6.59961,3.09766h22.80078c2.64704,0 5.02015,-1.20724 6.59961,-3.09766v1.49805c0,3.65646 -2.94315,6.59961 -6.59961,6.59961h-22.80078c-3.65645,0 -6.59961,-2.94315 -6.59961,-6.59961z"></path></g></g></svg>