<svg xmlns="http://www.w3.org/2000/svg" xmlns:xlink="http://www.w3.org/1999/xlink" width="500" zoomAndPan="magnify" viewBox="0 0 375 374.999991" height="500" preserveAspectRatio="xMidYMid meet" version="1.0"><defs><clipPath id="938dd7752b"><path d="M 6.328125 0 L 368.578125 0 L 368.578125 375 L 6.328125 375 Z M 6.328125 0 " clip-rule="nonzero"/></clipPath></defs><g clip-path="url(#938dd7752b)"><path fill="#1e1e1e" d="M 187.445312 294.554688 C 174.957031 294.554688 164.796875 304.710938 164.796875 317.199219 C 164.796875 329.691406 174.957031 339.847656 187.445312 339.847656 C 199.925781 339.847656 210.085938 329.691406 210.085938 317.199219 C 210.085938 304.710938 199.925781 294.554688 187.445312 294.554688 Z M 187.445312 328.152344 C 181.402344 328.152344 176.496094 323.238281 176.496094 317.199219 C 176.496094 311.164062 181.402344 306.246094 187.445312 306.246094 C 193.480469 306.246094 198.390625 311.164062 198.390625 317.199219 C 198.390625 323.238281 193.480469 328.152344 187.445312 328.152344 Z M 187.445312 294.554688 C 174.957031 294.554688 164.796875 304.710938 164.796875 317.199219 C 164.796875 329.691406 174.957031 339.847656 187.445312 339.847656 C 199.925781 339.847656 210.085938 329.691406 210.085938 317.199219 C 210.085938 304.710938 199.925781 294.554688 187.445312 294.554688 Z M 187.445312 328.152344 C 181.402344 328.152344 176.496094 323.238281 176.496094 317.199219 C 176.496094 311.164062 181.402344 306.246094 187.445312 306.246094 C 193.480469 306.246094 198.390625 311.164062 198.390625 317.199219 C 198.390625 323.238281 193.480469 328.152344 187.445312 328.152344 Z M 187.445312 294.554688 C 174.957031 294.554688 164.796875 304.710938 164.796875 317.199219 C 164.796875 329.691406 174.957031 339.847656 187.445312 339.847656 C 199.925781 339.847656 210.085938 329.691406 210.085938 317.199219 C 210.085938 304.710938 199.925781 294.554688 187.445312 294.554688 Z M 187.445312 328.152344 C 181.402344 328.152344 176.496094 323.238281 176.496094 317.199219 C 176.496094 311.164062 181.402344 306.246094 187.445312 306.246094 C 193.480469 306.246094 198.390625 311.164062 198.390625 317.199219 C 198.390625 323.238281 193.480469 328.152344 187.445312 328.152344 Z M 187.445312 294.554688 C 174.957031 294.554688 164.796875 304.710938 164.796875 317.199219 C 164.796875 329.691406 174.957031 339.847656 187.445312 339.847656 C 199.925781 339.847656 210.085938 329.691406 210.085938 317.199219 C 210.085938 304.710938 199.925781 294.554688 187.445312 294.554688 Z M 187.445312 328.152344 C 181.402344 328.152344 176.496094 323.238281 176.496094 317.199219 C 176.496094 311.164062 181.402344 306.246094 187.445312 306.246094 C 193.480469 306.246094 198.390625 311.164062 198.390625 317.199219 C 198.390625 323.238281 193.480469 328.152344 187.445312 328.152344 Z M 187.445312 294.554688 C 174.957031 294.554688 164.796875 304.710938 164.796875 317.199219 C 164.796875 329.691406 174.957031 339.847656 187.445312 339.847656 C 199.925781 339.847656 210.085938 329.691406 210.085938 317.199219 C 210.085938 304.710938 199.925781 294.554688 187.445312 294.554688 Z M 187.445312 328.152344 C 181.402344 328.152344 176.496094 323.238281 176.496094 317.199219 C 176.496094 311.164062 181.402344 306.246094 187.445312 306.246094 C 193.480469 306.246094 198.390625 311.164062 198.390625 317.199219 C 198.390625 323.238281 193.480469 328.152344 187.445312 328.152344 Z M 301.808594 152.648438 C 304.304688 151.914062 306.015625 149.632812 306.015625 147.035156 L 306.015625 138.21875 L 328.347656 138.21875 C 330.878906 146.699219 338.734375 152.902344 348.027344 152.902344 C 359.359375 152.902344 368.574219 143.691406 368.574219 132.371094 C 368.574219 121.035156 359.359375 111.808594 348.027344 111.808594 C 338.734375 111.808594 330.871094 118.03125 328.347656 126.515625 L 306.015625 126.515625 L 306.015625 117.683594 C 306.015625 115.082031 304.300781 112.796875 301.808594 112.066406 L 283.746094 106.789062 C 281.472656 98.191406 278.078125 89.996094 273.613281 82.335938 L 282.648438 65.8125 C 283.898438 63.539062 283.496094 60.703125 281.652344 58.867188 L 275.421875 52.640625 L 301.492188 26.5625 L 328.347656 26.5625 C 330.871094 35.058594 338.734375 41.269531 348.027344 41.269531 C 359.359375 41.269531 368.574219 32.050781 368.574219 20.714844 C 368.574219 9.390625 359.359375 0.175781 348.027344 0.175781 C 338.734375 0.175781 330.878906 6.382812 328.347656 14.863281 L 299.0625 14.863281 C 297.511719 14.863281 296.027344 15.476562 294.929688 16.574219 L 267.148438 44.375 L 260.898438 38.125 C 259.0625 36.289062 256.230469 35.886719 253.957031 37.136719 L 237.460938 46.171875 C 229.800781 41.710938 221.609375 38.3125 213.011719 36.039062 L 207.738281 17.972656 C 207.007812 15.476562 204.722656 13.765625 202.125 13.765625 L 172.777344 13.765625 C 170.1875 13.765625 167.898438 15.476562 167.167969 17.972656 L 161.871094 36.046875 C 153.296875 38.3125 145.097656 41.710938 137.429688 46.179688 L 120.925781 37.136719 C 118.652344 35.886719 115.828125 36.289062 113.984375 38.125 L 107.75 44.359375 L 79.972656 16.574219 C 78.875 15.476562 77.390625 14.863281 75.839844 14.863281 L 46.550781 14.863281 C 44.027344 6.382812 36.15625 0.175781 26.855469 0.175781 C 15.539062 0.175781 6.328125 9.386719 6.328125 20.714844 C 6.328125 32.050781 15.539062 41.269531 26.855469 41.269531 C 36.152344 41.269531 44.027344 35.058594 46.558594 26.5625 L 73.414062 26.5625 L 99.476562 52.625 L 93.230469 58.867188 C 91.394531 60.707031 90.984375 63.539062 92.234375 65.8125 L 101.277344 82.34375 C 96.820312 90.011719 93.425781 98.207031 91.160156 106.789062 L 73.097656 112.066406 C 70.601562 112.796875 68.890625 115.082031 68.890625 117.6875 L 68.890625 126.519531 L 46.558594 126.519531 C 44.027344 118.03125 36.15625 111.8125 26.855469 111.8125 C 15.539062 111.8125 6.328125 121.039062 6.328125 132.371094 C 6.328125 143.691406 15.539062 152.90625 26.855469 152.90625 C 36.152344 152.90625 44.027344 146.699219 46.550781 138.21875 L 68.890625 138.21875 L 68.890625 147.035156 C 68.890625 149.632812 70.601562 151.917969 73.097656 152.648438 L 91.160156 157.925781 C 93.425781 166.5 96.820312 174.703125 101.277344 182.394531 L 92.234375 198.902344 C 90.984375 201.175781 91.386719 204.007812 93.230469 205.84375 L 99.46875 212.085938 L 73.414062 238.152344 L 46.558594 238.152344 C 44.027344 229.664062 36.15625 223.441406 26.855469 223.441406 C 15.539062 223.441406 6.328125 232.671875 6.328125 244.003906 C 6.328125 255.339844 15.539062 264.558594 26.855469 264.558594 C 36.152344 264.558594 44.027344 258.347656 46.558594 249.851562 L 75.839844 249.851562 C 77.390625 249.851562 78.875 249.238281 79.972656 248.136719 L 107.742188 220.363281 L 113.984375 226.605469 C 115.820312 228.449219 118.652344 228.851562 120.925781 227.597656 L 137.429688 218.554688 C 140.882812 220.558594 144.460938 222.34375 148.132812 223.917969 C 147.480469 224.320312 146.808594 224.703125 146.09375 225.03125 C 140.984375 227.410156 135.171875 229.457031 129.546875 231.433594 C 113.632812 237.039062 95.777344 243.332031 89.070312 259.597656 L 83.84375 259.597656 C 82.164062 259.597656 80.558594 260.320312 79.449219 261.585938 C 78.34375 262.847656 77.832031 264.527344 78.042969 266.199219 L 91.378906 369.714844 C 91.753906 372.636719 94.234375 374.824219 97.175781 374.824219 L 277.710938 374.824219 C 280.652344 374.824219 283.132812 372.636719 283.515625 369.722656 L 296.863281 266.199219 C 297.078125 264.53125 296.566406 262.847656 295.460938 261.589844 C 294.347656 260.320312 292.746094 259.597656 291.0625 259.597656 L 285.816406 259.597656 C 279.132812 243.339844 261.273438 237.039062 245.363281 231.441406 C 239.738281 229.457031 233.921875 227.417969 228.800781 225.023438 C 228.089844 224.695312 227.410156 224.320312 226.761719 223.917969 C 230.433594 222.34375 234.003906 220.558594 237.457031 218.554688 L 253.960938 227.601562 C 254.835938 228.082031 255.800781 228.324219 256.769531 228.324219 C 258.28125 228.324219 259.773438 227.730469 260.902344 226.605469 L 267.15625 220.355469 L 294.933594 248.140625 C 296.03125 249.238281 297.515625 249.851562 299.066406 249.851562 L 328.351562 249.851562 C 330.875 258.347656 338.738281 264.558594 348.027344 264.558594 C 359.359375 264.558594 368.578125 255.339844 368.578125 244.003906 C 368.578125 232.671875 359.359375 223.445312 348.027344 223.445312 C 338.738281 223.445312 330.875 229.664062 328.351562 238.152344 L 301.496094 238.152344 L 275.421875 212.078125 L 281.664062 205.847656 C 283.5 204.007812 283.902344 201.175781 282.652344 198.902344 L 273.617188 182.402344 C 278.078125 174.71875 281.472656 166.515625 283.75 157.925781 Z M 348.027344 123.511719 C 352.914062 123.511719 356.878906 127.484375 356.878906 132.371094 C 356.878906 137.238281 352.914062 141.203125 348.027344 141.203125 C 343.15625 141.203125 339.199219 137.238281 339.199219 132.371094 C 339.199219 127.484375 343.15625 123.511719 348.027344 123.511719 Z M 348.027344 11.875 C 352.914062 11.875 356.878906 15.84375 356.878906 20.714844 C 356.878906 25.597656 352.914062 29.570312 348.027344 29.570312 C 343.15625 29.570312 339.199219 25.59375 339.199219 20.714844 C 339.199219 15.84375 343.15625 11.875 348.027344 11.875 Z M 26.855469 29.570312 C 21.984375 29.570312 18.027344 25.597656 18.027344 20.714844 C 18.027344 15.84375 21.984375 11.875 26.855469 11.875 C 31.742188 11.875 35.707031 15.84375 35.707031 20.714844 C 35.707031 25.597656 31.742188 29.570312 26.855469 29.570312 Z M 26.855469 141.203125 C 21.984375 141.203125 18.027344 137.238281 18.027344 132.371094 C 18.027344 127.484375 21.984375 123.507812 26.855469 123.507812 C 31.742188 123.507812 35.707031 127.484375 35.707031 132.371094 C 35.707031 137.238281 31.742188 141.203125 26.855469 141.203125 Z M 26.855469 252.859375 C 21.984375 252.859375 18.027344 248.882812 18.027344 244.003906 C 18.027344 239.117188 21.984375 235.144531 26.855469 235.144531 C 31.742188 235.144531 35.707031 239.117188 35.707031 244.003906 C 35.707031 248.886719 31.742188 252.859375 26.855469 252.859375 Z M 348.027344 235.144531 C 352.914062 235.144531 356.878906 239.117188 356.878906 244.003906 C 356.878906 248.886719 352.914062 252.859375 348.027344 252.859375 C 343.15625 252.859375 339.199219 248.886719 339.199219 244.003906 C 339.199219 239.117188 343.15625 235.144531 348.027344 235.144531 Z M 281.609375 271.296875 C 281.609375 271.296875 281.617188 271.296875 281.625 271.296875 L 284.414062 271.296875 L 272.570312 363.125 L 102.316406 363.125 L 90.492188 271.296875 Z M 241.484375 242.476562 C 254.164062 246.9375 266.269531 251.210938 272.464844 259.597656 L 102.425781 259.597656 C 108.628906 251.207031 120.742188 246.9375 133.429688 242.476562 C 139.316406 240.398438 145.402344 238.253906 151.023438 235.640625 C 151.421875 235.449219 151.804688 235.246094 152.199219 235.039062 C 159.273438 247.640625 172.652344 255.699219 187.445312 255.699219 C 202.238281 255.699219 215.625 247.640625 222.707031 235.046875 C 223.09375 235.246094 223.472656 235.449219 223.875 235.632812 C 229.496094 238.261719 235.589844 240.402344 241.484375 242.476562 Z M 135.183594 128.699219 C 133.355469 128.699219 131.59375 128.992188 129.9375 129.53125 L 129.9375 116.523438 C 129.9375 88.050781 154.957031 73.152344 179.667969 73.152344 L 217.621094 73.152344 L 213.578125 78.890625 C 211.441406 81.890625 211.074219 85.824219 212.617188 89.15625 C 214.167969 92.5 217.410156 94.761719 221.066406 95.074219 C 242.859375 96.96875 245.070312 106.628906 244.863281 129.597656 C 243.160156 129.019531 241.332031 128.699219 239.429688 128.699219 L 236.121094 128.699219 C 233.136719 121.71875 226.195312 116.816406 218.132812 116.816406 L 217.550781 116.816406 C 212.609375 116.808594 210.570312 116.816406 207.242188 114.582031 L 201.101562 110.476562 C 196.847656 107.628906 192.078125 106.203125 187.304688 106.203125 C 182.535156 106.203125 177.765625 107.628906 173.507812 110.476562 L 167.363281 114.589844 C 164.042969 116.8125 161.996094 116.808594 157.0625 116.8125 L 156.480469 116.8125 C 148.417969 116.8125 141.476562 121.714844 138.488281 128.699219 Z M 136.925781 140.398438 L 136.925781 165.035156 L 135.183594 165.035156 C 132.34375 165.035156 129.9375 162.636719 129.9375 159.789062 L 129.9375 145.644531 C 129.9375 142.796875 132.34375 140.398438 135.183594 140.398438 Z M 244.652344 145.644531 L 244.652344 159.789062 C 244.652344 162.679688 242.3125 165.035156 239.429688 165.035156 L 237.6875 165.035156 L 237.6875 140.398438 L 239.429688 140.398438 C 242.3125 140.398438 244.652344 142.746094 244.652344 145.644531 Z M 148.621094 136.351562 C 148.621094 132.027344 152.148438 128.507812 156.480469 128.507812 L 157.058594 128.507812 C 162.71875 128.523438 167.597656 128.515625 173.875 124.308594 L 180.015625 120.203125 C 184.578125 117.144531 190.035156 117.144531 194.601562 120.203125 L 200.730469 124.300781 C 207.015625 128.515625 211.910156 128.507812 217.5625 128.507812 L 218.132812 128.507812 C 222.464844 128.507812 225.992188 132.027344 225.992188 136.351562 L 225.992188 166.132812 C 225.992188 179.078125 219.429688 190.515625 209.457031 197.289062 C 209.320312 197.378906 209.179688 197.464844 209.042969 197.558594 C 203.101562 201.488281 195.992188 203.78125 188.355469 203.78125 L 186.261719 203.78125 C 178.828125 203.78125 171.894531 201.605469 166.050781 197.867188 C 165.769531 197.648438 165.476562 197.457031 165.164062 197.289062 C 155.191406 190.515625 148.625 179.078125 148.625 166.132812 L 148.625 136.351562 Z M 213.378906 227.664062 C 208.625 237.558594 198.59375 244.003906 187.445312 244.003906 C 176.277344 244.003906 166.230469 237.527344 161.496094 227.589844 C 162.046875 226.925781 162.566406 226.230469 163.054688 225.519531 C 163.4375 225.089844 163.75 224.605469 164 224.070312 C 166.1875 220.449219 167.597656 216.359375 168.089844 211.996094 C 173.714844 214.238281 179.84375 215.480469 186.261719 215.480469 L 188.351562 215.480469 C 194.871094 215.480469 201.097656 214.199219 206.796875 211.886719 C 207.425781 217.867188 209.707031 223.273438 213.378906 227.664062 Z M 273.167969 151.960938 C 270.972656 161.613281 267.183594 170.757812 261.917969 179.136719 C 260.78125 180.9375 260.71875 183.203125 261.734375 185.0625 L 270.285156 200.671875 L 263.023438 207.945312 L 255.730469 215.234375 L 240.125 206.679688 C 238.265625 205.664062 236 205.726562 234.207031 206.855469 C 229.464844 209.828125 224.441406 212.34375 219.21875 214.371094 C 218.625 212.542969 218.300781 210.585938 218.300781 208.53125 L 218.300781 205.320312 C 227.386719 198.347656 233.988281 188.300781 236.53125 176.738281 L 239.429688 176.738281 C 248.757812 176.738281 256.351562 169.136719 256.351562 159.792969 L 256.351562 145.648438 C 256.351562 142.148438 256.417969 138.738281 256.472656 135.445312 C 256.941406 110.867188 257.382812 87.621094 224.511719 83.667969 L 228.742188 77.683594 C 230.964844 74.523438 231.242188 70.429688 229.464844 67 C 227.6875 63.582031 224.191406 61.453125 220.328125 61.453125 L 179.667969 61.453125 C 163.707031 61.453125 148.695312 66.554688 137.402344 75.816406 C 125.046875 85.945312 118.242188 100.402344 118.242188 116.523438 L 118.242188 159.792969 C 118.242188 169.136719 125.84375 176.738281 135.183594 176.738281 L 138.089844 176.738281 C 140.65625 188.421875 147.363281 198.574219 156.605469 205.546875 L 156.605469 208.53125 C 156.605469 210.585938 156.28125 212.542969 155.691406 214.378906 C 150.460938 212.351562 145.425781 209.835938 140.679688 206.855469 C 138.886719 205.730469 136.617188 205.664062 134.761719 206.679688 L 119.15625 215.234375 L 112.082031 208.164062 C 112.015625 208.09375 111.957031 208.011719 111.882812 207.945312 C 111.816406 207.871094 111.738281 207.816406 111.671875 207.75 L 104.597656 200.671875 L 113.148438 185.066406 C 114.167969 183.207031 114.101562 180.945312 112.972656 179.144531 C 107.714844 170.746094 103.933594 161.597656 101.738281 151.960938 C 101.269531 149.890625 99.710938 148.238281 97.675781 147.644531 L 80.589844 142.644531 L 80.589844 122.070312 L 97.675781 117.078125 C 99.710938 116.480469 101.269531 114.824219 101.738281 112.761719 C 103.933594 103.109375 107.714844 93.972656 112.972656 85.601562 C 114.101562 83.800781 114.167969 81.539062 113.148438 79.671875 L 104.597656 64.042969 L 111.773438 56.871094 C 111.8125 56.835938 111.847656 56.808594 111.882812 56.769531 C 111.921875 56.742188 111.949219 56.703125 111.980469 56.667969 L 119.15625 49.503906 L 134.761719 58.058594 C 136.625 59.074219 138.894531 59.007812 140.6875 57.875 C 149.0625 52.605469 158.199219 48.816406 167.839844 46.621094 C 169.902344 46.152344 171.558594 44.59375 172.148438 42.558594 L 177.160156 25.464844 L 197.738281 25.464844 L 202.734375 42.558594 C 203.328125 44.59375 204.980469 46.152344 207.050781 46.621094 C 216.707031 48.816406 225.84375 52.605469 234.191406 57.875 C 235.992188 59.007812 238.257812 59.074219 240.125 58.058594 L 255.734375 49.503906 L 270.285156 64.042969 L 261.734375 79.671875 C 260.71875 81.539062 260.785156 83.808594 261.917969 85.605469 C 267.183594 93.957031 270.972656 103.09375 273.167969 112.761719 C 273.636719 114.824219 275.195312 116.480469 277.230469 117.078125 L 294.320312 122.070312 L 294.320312 142.644531 L 277.230469 147.644531 C 275.195312 148.234375 273.636719 149.886719 273.167969 151.960938 Z M 187.445312 339.847656 C 199.925781 339.847656 210.085938 329.691406 210.085938 317.199219 C 210.085938 304.710938 199.925781 294.554688 187.445312 294.554688 C 174.957031 294.554688 164.796875 304.710938 164.796875 317.199219 C 164.796875 329.691406 174.957031 339.847656 187.445312 339.847656 Z M 187.445312 306.246094 C 193.480469 306.246094 198.390625 311.164062 198.390625 317.199219 C 198.390625 323.238281 193.480469 328.152344 187.445312 328.152344 C 181.402344 328.152344 176.496094 323.238281 176.496094 317.199219 C 176.496094 311.164062 181.402344 306.246094 187.445312 306.246094 Z M 187.445312 294.554688 C 174.957031 294.554688 164.796875 304.710938 164.796875 317.199219 C 164.796875 329.691406 174.957031 339.847656 187.445312 339.847656 C 199.925781 339.847656 210.085938 329.691406 210.085938 317.199219 C 210.085938 304.710938 199.925781 294.554688 187.445312 294.554688 Z M 187.445312 328.152344 C 181.402344 328.152344 176.496094 323.238281 176.496094 317.199219 C 176.496094 311.164062 181.402344 306.246094 187.445312 306.246094 C 193.480469 306.246094 198.390625 311.164062 198.390625 317.199219 C 198.390625 323.238281 193.480469 328.152344 187.445312 328.152344 Z M 187.445312 294.554688 C 174.957031 294.554688 164.796875 304.710938 164.796875 317.199219 C 164.796875 329.691406 174.957031 339.847656 187.445312 339.847656 C 199.925781 339.847656 210.085938 329.691406 210.085938 317.199219 C 210.085938 304.710938 199.925781 294.554688 187.445312 294.554688 Z M 187.445312 328.152344 C 181.402344 328.152344 176.496094 323.238281 176.496094 317.199219 C 176.496094 311.164062 181.402344 306.246094 187.445312 306.246094 C 193.480469 306.246094 198.390625 311.164062 198.390625 317.199219 C 198.390625 323.238281 193.480469 328.152344 187.445312 328.152344 Z M 187.445312 294.554688 C 174.957031 294.554688 164.796875 304.710938 164.796875 317.199219 C 164.796875 329.691406 174.957031 339.847656 187.445312 339.847656 C 199.925781 339.847656 210.085938 329.691406 210.085938 317.199219 C 210.085938 304.710938 199.925781 294.554688 187.445312 294.554688 Z M 187.445312 328.152344 C 181.402344 328.152344 176.496094 323.238281 176.496094 317.199219 C 176.496094 311.164062 181.402344 306.246094 187.445312 306.246094 C 193.480469 306.246094 198.390625 311.164062 198.390625 317.199219 C 198.390625 323.238281 193.480469 328.152344 187.445312 328.152344 Z M 187.445312 328.152344 " fill-opacity="1" fill-rule="nonzero"/></g></svg>