<svg xmlns="http://www.w3.org/2000/svg" xmlns:xlink="http://www.w3.org/1999/xlink" width="500" zoomAndPan="magnify" viewBox="0 0 375 374.999991" height="500" preserveAspectRatio="xMidYMid meet" version="1.0"><defs><clipPath id="296db74387"><path d="M 0 42.65625 L 375 42.65625 L 375 332.15625 L 0 332.15625 Z M 0 42.65625 " clip-rule="nonzero"/></clipPath></defs><g clip-path="url(#296db74387)"><path fill="#1a1a1a" d="M 353.613281 262.390625 L 353.613281 225.664062 L 369.566406 225.664062 C 372.5 225.664062 374.878906 223.289062 374.878906 220.355469 C 374.878906 217.425781 372.5 215.046875 369.566406 215.046875 L 353.613281 215.046875 L 353.613281 140.585938 L 369.566406 140.585938 C 372.5 140.585938 374.878906 138.207031 374.878906 135.277344 C 374.878906 132.347656 372.5 129.96875 369.566406 129.96875 L 353.613281 129.96875 L 353.613281 74.910156 C 353.613281 64.449219 345.09375 55.9375 334.625 55.9375 L 54.511719 55.9375 C 50.515625 55.9375 46.703125 57.203125 43.546875 59.441406 L 37.226562 48.5 C 35.679688 45.804688 33.167969 43.878906 30.160156 43.070312 C 27.148438 42.261719 24.007812 42.671875 21.324219 44.222656 L 5.941406 53.082031 C 3.257812 54.632812 1.335938 57.144531 0.527344 60.15625 C -0.28125 63.171875 0.128906 66.3125 1.679688 68.992188 L 35.523438 127.5625 L 35.523438 262.390625 C 35.523438 272.855469 44.042969 281.367188 54.511719 281.367188 L 175.101562 281.367188 C 174.074219 291.996094 171.160156 293.503906 162.597656 294.398438 C 152.898438 295.410156 145.582031 303.527344 145.582031 313.28125 L 145.582031 326.839844 C 145.582031 329.769531 147.960938 332.148438 150.894531 332.148438 L 238.242188 332.148438 C 241.175781 332.148438 243.554688 329.769531 243.554688 326.839844 L 243.554688 313.28125 C 243.554688 303.527344 236.238281 295.410156 226.539062 294.398438 C 217.972656 293.503906 215.058594 291.996094 214.03125 281.367188 L 334.625 281.367188 C 345.09375 281.367188 353.613281 272.855469 353.613281 262.390625 Z M 83.976562 156.558594 L 85.535156 173.109375 L 71.96875 163.484375 Z M 64.089844 155.769531 L 20.066406 79.585938 L 37.203125 69.6875 L 81.230469 145.882812 Z M 10.789062 62.90625 C 10.832031 62.746094 10.949219 62.449219 11.253906 62.277344 L 26.636719 53.417969 C 26.929688 53.246094 27.214844 53.269531 27.402344 53.320312 C 27.589844 53.371094 27.847656 53.492188 28.019531 53.796875 L 31.890625 60.492188 L 14.753906 70.390625 L 10.875 63.679688 C 10.699219 63.375 10.746094 63.066406 10.789062 62.90625 Z M 225.433594 304.957031 C 229.707031 305.402344 232.929688 308.980469 232.929688 313.28125 L 232.929688 321.53125 L 156.203125 321.53125 L 156.203125 313.28125 C 156.203125 308.980469 159.429688 305.402344 163.703125 304.957031 C 179.890625 303.265625 184.480469 295.621094 185.75 281.367188 L 203.382812 281.367188 C 204.652344 295.621094 209.242188 303.265625 225.433594 304.957031 Z M 334.625 270.75 L 54.511719 270.75 C 49.898438 270.75 46.148438 267 46.148438 262.390625 L 46.148438 145.949219 L 57.546875 165.675781 C 57.570312 165.714844 57.597656 165.746094 57.621094 165.785156 C 57.6875 165.894531 57.761719 166.003906 57.835938 166.109375 C 57.898438 166.195312 57.960938 166.28125 58.027344 166.363281 C 58.097656 166.453125 58.175781 166.535156 58.257812 166.621094 C 58.335938 166.707031 58.414062 166.792969 58.496094 166.871094 C 58.570312 166.941406 58.652344 167.007812 58.730469 167.074219 C 58.828125 167.15625 58.921875 167.238281 59.023438 167.308594 C 59.039062 167.320312 59.054688 167.335938 59.070312 167.347656 L 88.832031 188.472656 C 89.75 189.125 90.828125 189.453125 91.910156 189.453125 C 92.820312 189.453125 93.738281 189.21875 94.5625 188.742188 C 96.363281 187.707031 97.390625 185.714844 97.195312 183.648438 L 93.777344 147.332031 C 93.773438 147.3125 93.769531 147.296875 93.769531 147.28125 C 93.726562 146.875 93.636719 146.46875 93.496094 146.070312 C 93.480469 146.023438 93.460938 145.976562 93.441406 145.929688 C 93.386719 145.789062 93.328125 145.648438 93.261719 145.511719 C 93.230469 145.449219 93.199219 145.390625 93.167969 145.328125 C 93.140625 145.277344 93.117188 145.222656 93.089844 145.171875 L 48.917969 68.734375 C 50.433594 67.359375 52.410156 66.550781 54.511719 66.550781 L 334.625 66.550781 C 339.234375 66.550781 342.988281 70.300781 342.988281 74.910156 L 342.988281 129.96875 L 277.917969 129.96875 C 274.984375 129.96875 272.605469 132.347656 272.605469 135.277344 C 272.605469 138.207031 274.984375 140.585938 277.917969 140.585938 L 342.988281 140.585938 L 342.988281 215.046875 L 283.359375 215.046875 C 280.425781 215.046875 278.046875 217.425781 278.046875 220.355469 C 278.046875 223.289062 280.425781 225.664062 283.359375 225.664062 L 342.988281 225.664062 L 342.988281 262.390625 C 342.988281 267 339.234375 270.75 334.625 270.75 Z M 153.308594 177.011719 C 163.921875 187.5 178.5 193.988281 194.566406 193.988281 C 210.632812 193.988281 225.210938 187.5 235.824219 177.011719 C 236.1875 176.726562 236.507812 176.394531 236.785156 176.027344 C 246.996094 165.460938 253.296875 151.09375 253.296875 135.277344 C 253.296875 102.914062 226.949219 76.585938 194.566406 76.585938 C 162.183594 76.585938 135.839844 102.914062 135.839844 135.277344 C 135.839844 151.09375 142.140625 165.460938 152.351562 176.027344 C 152.628906 176.394531 152.949219 176.726562 153.308594 177.011719 Z M 161.902344 170.542969 L 161.902344 169.941406 C 161.902344 158.96875 170.835938 150.039062 181.816406 150.039062 L 207.320312 150.039062 C 218.300781 150.039062 227.230469 158.96875 227.230469 169.941406 L 227.230469 170.542969 C 218.648438 178.496094 207.167969 183.371094 194.566406 183.371094 C 181.96875 183.371094 170.488281 178.496094 161.902344 170.542969 Z M 184.09375 120.382812 C 184.09375 114.613281 188.792969 109.917969 194.566406 109.917969 C 200.34375 109.917969 205.039062 114.613281 205.039062 120.382812 C 205.039062 126.15625 200.34375 130.851562 194.566406 130.851562 C 188.792969 130.851562 184.09375 126.15625 184.09375 120.382812 Z M 194.566406 87.203125 C 221.09375 87.203125 242.671875 108.769531 242.671875 135.277344 C 242.671875 144.144531 240.25 152.453125 236.046875 159.59375 C 231.792969 147.84375 220.523438 139.425781 207.320312 139.425781 L 203.617188 139.425781 C 210.734375 136.035156 215.664062 128.773438 215.664062 120.382812 C 215.664062 108.761719 206.199219 99.304688 194.566406 99.304688 C 182.933594 99.304688 173.472656 108.761719 173.472656 120.382812 C 173.472656 128.773438 178.402344 136.035156 185.519531 139.425781 L 181.816406 139.425781 C 168.613281 139.425781 157.339844 147.84375 153.089844 159.59375 C 148.886719 152.453125 146.464844 144.144531 146.464844 135.277344 C 146.464844 108.769531 168.042969 87.203125 194.566406 87.203125 Z M 253.660156 204.796875 L 135.476562 204.796875 C 132.539062 204.796875 130.164062 207.175781 130.164062 210.105469 L 130.164062 230.585938 C 130.164062 233.515625 132.539062 235.894531 135.476562 235.894531 L 253.660156 235.894531 C 256.59375 235.894531 258.972656 233.515625 258.972656 230.585938 L 258.972656 210.105469 C 258.972656 207.175781 256.59375 204.796875 253.660156 204.796875 Z M 248.347656 225.277344 L 140.785156 225.277344 L 140.785156 215.414062 L 248.347656 215.414062 Z M 252.757812 251.582031 C 252.757812 254.511719 250.378906 256.890625 247.445312 256.890625 L 111.90625 256.890625 C 109.503906 256.890625 107.398438 255.277344 106.777344 252.953125 L 92.476562 199.59375 C 91.714844 196.761719 93.398438 193.851562 96.230469 193.09375 C 99.0625 192.335938 101.976562 194.015625 102.738281 196.847656 L 115.984375 246.273438 L 247.445312 246.273438 C 250.378906 246.273438 252.757812 248.648438 252.757812 251.582031 Z M 252.757812 251.582031 " fill-opacity="1" fill-rule="nonzero"/></g></svg>