<svg xmlns="http://www.w3.org/2000/svg" xmlns:xlink="http://www.w3.org/1999/xlink" width="500" zoomAndPan="magnify" viewBox="0 0 375 374.999991" height="500" preserveAspectRatio="xMidYMid meet" version="1.0"><defs><clipPath id="683cd5adc9"><path d="M 46 9.84375 L 60 9.84375 L 60 24 L 46 24 Z M 46 9.84375 " clip-rule="nonzero"/></clipPath><clipPath id="afd226dc3d"><path d="M 72 9.84375 L 86 9.84375 L 86 24 L 72 24 Z M 72 9.84375 " clip-rule="nonzero"/></clipPath><clipPath id="69a43635f4"><path d="M 98 9.84375 L 112 9.84375 L 112 24 L 98 24 Z M 98 9.84375 " clip-rule="nonzero"/></clipPath><clipPath id="a37822d562"><path d="M 125 9.84375 L 139 9.84375 L 139 24 L 125 24 Z M 125 9.84375 " clip-rule="nonzero"/></clipPath><clipPath id="114c9d3930"><path d="M 151 9.84375 L 165 9.84375 L 165 24 L 151 24 Z M 151 9.84375 " clip-rule="nonzero"/></clipPath><clipPath id="f030a223f5"><path d="M 177 9.84375 L 191 9.84375 L 191 24 L 177 24 Z M 177 9.84375 " clip-rule="nonzero"/></clipPath><clipPath id="0b5115ed94"><path d="M 203 9.84375 L 218 9.84375 L 218 24 L 203 24 Z M 203 9.84375 " clip-rule="nonzero"/></clipPath><clipPath id="253248d98f"><path d="M 230 9.84375 L 244 9.84375 L 244 24 L 230 24 Z M 230 9.84375 " clip-rule="nonzero"/></clipPath><clipPath id="7d311b9e23"><path d="M 256 9.84375 L 270 9.84375 L 270 24 L 256 24 Z M 256 9.84375 " clip-rule="nonzero"/></clipPath><clipPath id="2830b7190f"><path d="M 32 233 L 237 233 L 237 365.34375 L 32 365.34375 Z M 32 233 " clip-rule="nonzero"/></clipPath></defs><path fill="#000000" d="M 38.058594 317.316406 L 43.738281 305.4375 L 133.96875 348.632812 L 128.289062 360.511719 Z M 38.058594 317.316406 " fill-opacity="1" fill-rule="nonzero"/><path fill="#000000" d="M 348.699219 187.578125 L 335.542969 187.578125 L 335.542969 200.742188 L 348.699219 200.742188 Z M 348.699219 187.578125 " fill-opacity="1" fill-rule="nonzero"/><path fill="#000000" d="M 348.699219 213.90625 L 335.542969 213.90625 L 335.542969 227.070312 L 348.699219 227.070312 Z M 348.699219 213.90625 " fill-opacity="1" fill-rule="nonzero"/><path fill="#000000" d="M 348.699219 240.234375 L 335.542969 240.234375 L 335.542969 253.398438 L 348.699219 253.398438 Z M 348.699219 240.234375 " fill-opacity="1" fill-rule="nonzero"/><g clip-path="url(#683cd5adc9)"><path fill="#000000" d="M 59.238281 9.859375 L 46.078125 9.859375 L 46.078125 23.023438 L 59.238281 23.023438 Z M 59.238281 9.859375 " fill-opacity="1" fill-rule="nonzero"/></g><g clip-path="url(#afd226dc3d)"><path fill="#000000" d="M 85.558594 9.859375 L 72.398438 9.859375 L 72.398438 23.023438 L 85.558594 23.023438 Z M 85.558594 9.859375 " fill-opacity="1" fill-rule="nonzero"/></g><g clip-path="url(#69a43635f4)"><path fill="#000000" d="M 111.871094 9.859375 L 98.714844 9.859375 L 98.714844 23.023438 L 111.871094 23.023438 Z M 111.871094 9.859375 " fill-opacity="1" fill-rule="nonzero"/></g><g clip-path="url(#a37822d562)"><path fill="#000000" d="M 138.183594 9.859375 L 125.027344 9.859375 L 125.027344 23.023438 L 138.183594 23.023438 Z M 138.183594 9.859375 " fill-opacity="1" fill-rule="nonzero"/></g><g clip-path="url(#114c9d3930)"><path fill="#000000" d="M 164.496094 9.859375 L 151.339844 9.859375 L 151.339844 23.023438 L 164.496094 23.023438 Z M 164.496094 9.859375 " fill-opacity="1" fill-rule="nonzero"/></g><g clip-path="url(#f030a223f5)"><path fill="#000000" d="M 190.8125 9.859375 L 177.65625 9.859375 L 177.65625 23.023438 L 190.8125 23.023438 Z M 190.8125 9.859375 " fill-opacity="1" fill-rule="nonzero"/></g><g clip-path="url(#0b5115ed94)"><path fill="#000000" d="M 217.125 9.859375 L 203.96875 9.859375 L 203.96875 23.023438 L 217.125 23.023438 Z M 217.125 9.859375 " fill-opacity="1" fill-rule="nonzero"/></g><g clip-path="url(#253248d98f)"><path fill="#000000" d="M 243.445312 9.859375 L 230.28125 9.859375 L 230.28125 23.023438 L 243.445312 23.023438 Z M 243.445312 9.859375 " fill-opacity="1" fill-rule="nonzero"/></g><g clip-path="url(#7d311b9e23)"><path fill="#000000" d="M 269.757812 9.859375 L 256.601562 9.859375 L 256.601562 23.023438 L 269.757812 23.023438 Z M 269.757812 9.859375 " fill-opacity="1" fill-rule="nonzero"/></g><g clip-path="url(#2830b7190f)"><path fill="#000000" d="M 210.550781 365.292969 C 208.8125 365.292969 206.871094 364.746094 205.863281 364.417969 L 40.796875 291.78125 C 36.007812 289.671875 32.921875 284.941406 32.921875 279.71875 C 32.921875 278.042969 33.238281 276.398438 33.859375 274.839844 L 47.066406 241.800781 C 49.925781 235.066406 58.027344 231.902344 64.503906 234.746094 L 64.519531 234.746094 C 64.519531 234.746094 228.980469 307.15625 228.980469 307.15625 C 233.769531 309.265625 236.855469 313.996094 236.855469 319.21875 C 236.855469 320.894531 236.542969 322.539062 235.917969 324.097656 L 222.761719 357.019531 C 220.746094 362.050781 215.957031 365.292969 210.542969 365.292969 Z M 210.222656 351.988281 C 210.414062 352.042969 210.679688 352.117188 210.90625 352.144531 L 223.699219 319.210938 L 59.242188 246.808594 L 46.074219 279.71875 L 210.214844 351.980469 Z M 210.222656 351.988281 " fill-opacity="1" fill-rule="nonzero"/></g><path fill="#000000" d="M 282.914062 286.3125 L 150.34375 286.3125 L 150.34375 273.148438 L 282.914062 273.148438 C 293.800781 273.148438 302.65625 264.289062 302.65625 253.398438 L 302.65625 185.648438 L 315.8125 185.648438 L 315.8125 253.398438 C 315.8125 271.546875 301.054688 286.3125 282.914062 286.3125 Z M 282.914062 286.3125 " fill-opacity="1" fill-rule="nonzero"/><path fill="#000000" d="M 118.445312 227.070312 C 107.558594 227.070312 98.707031 218.214844 98.707031 207.320312 L 98.707031 102.003906 C 98.707031 91.113281 107.558594 82.257812 118.445312 82.257812 C 121.867188 82.257812 125.246094 83.152344 128.222656 84.84375 L 220.347656 137.519531 C 226.476562 141.03125 230.28125 147.597656 230.28125 154.652344 C 230.28125 161.710938 226.464844 168.304688 220.328125 171.800781 L 128.230469 224.457031 C 125.261719 226.152344 121.875 227.050781 118.445312 227.050781 Z M 118.445312 95.425781 C 114.8125 95.425781 111.863281 98.378906 111.863281 102.011719 L 111.863281 207.328125 C 111.863281 210.964844 114.8125 213.914062 118.445312 213.914062 C 119.589844 213.914062 120.710938 213.621094 121.703125 213.050781 L 213.808594 160.398438 C 215.859375 159.226562 217.125 157.035156 217.125 154.675781 C 217.125 152.3125 215.851562 150.128906 213.808594 148.953125 L 121.703125 96.296875 C 120.703125 95.722656 119.601562 95.433594 118.445312 95.433594 Z M 118.445312 95.425781 " fill-opacity="1" fill-rule="nonzero"/><path fill="#000000" d="M 141.578125 329.210938 L 151.800781 303.613281 L 164.019531 308.496094 L 153.796875 334.09375 Z M 141.578125 329.210938 " fill-opacity="1" fill-rule="nonzero"/><path fill="#000000" d="M 114.734375 317.390625 L 125.011719 291.65625 L 137.226562 296.542969 L 126.953125 322.273438 Z M 114.734375 317.390625 " fill-opacity="1" fill-rule="nonzero"/><path fill="#000000" d="M 87.882812 305.570312 L 98.328125 279.410156 L 110.546875 284.292969 L 100.101562 310.453125 Z M 87.882812 305.570312 " fill-opacity="1" fill-rule="nonzero"/><path fill="#000000" d="M 168.433594 341.023438 L 178.722656 315.261719 L 190.9375 320.144531 L 180.648438 345.910156 Z M 168.433594 341.023438 " fill-opacity="1" fill-rule="nonzero"/><path fill="#000000" d="M 61.027344 293.746094 L 71.515625 267.484375 L 83.734375 272.367188 L 73.246094 298.628906 Z M 61.027344 293.746094 " fill-opacity="1" fill-rule="nonzero"/><path fill="#000000" d="M 39.503906 286.3125 L 32.921875 286.3125 C 14.785156 286.3125 0.0273438 271.546875 0.0273438 253.398438 L 0.0273438 69.097656 C 0.0273438 50.953125 14.785156 36.1875 32.921875 36.1875 L 282.910156 36.1875 C 301.046875 36.1875 315.804688 50.953125 315.804688 69.097656 L 315.804688 123.683594 L 302.648438 123.683594 L 302.648438 69.097656 C 302.648438 58.207031 293.792969 49.351562 282.910156 49.351562 L 32.921875 49.351562 C 22.039062 49.351562 13.183594 58.207031 13.183594 69.097656 L 13.183594 253.398438 C 13.183594 264.289062 22.039062 273.148438 32.921875 273.148438 L 39.503906 273.148438 Z M 39.503906 286.3125 " fill-opacity="1" fill-rule="nonzero"/><path fill="#000000" d="M 209.113281 253.261719 L 230.835938 194.214844 C 231.199219 193 232.0625 191.5625 233.21875 190.425781 L 331.855469 91.738281 C 335.589844 88 342.125 88.007812 345.847656 91.777344 L 372.132812 118.078125 C 373.996094 119.960938 375.015625 122.433594 375.015625 125.046875 C 375.015625 127.660156 373.980469 130.1875 372.097656 132.058594 L 273.445312 230.761719 C 272.367188 231.847656 271.03125 232.671875 269.589844 233.144531 Z M 242.980469 199.273438 L 230.898438 232.136719 L 264.695312 220.898438 L 360.496094 125.046875 L 338.835938 103.375 L 242.980469 199.277344 Z M 242.515625 199.746094 L 242.472656 199.777344 C 242.472656 199.777344 242.5 199.75 242.515625 199.746094 Z M 243.296875 198.417969 L 243.171875 198.757812 C 243.21875 198.648438 243.261719 198.53125 243.296875 198.417969 Z M 362.820312 122.71875 C 362.820312 122.71875 362.800781 122.734375 362.792969 122.746094 Z M 336.523438 101.0625 C 336.523438 101.0625 336.535156 101.074219 336.542969 101.089844 Z M 336.523438 101.0625 " fill-opacity="1" fill-rule="nonzero"/><path fill="#000000" d="M 233.011719 199.875 L 242.363281 190.609375 L 273.144531 221.699219 L 263.792969 230.96875 Z M 233.011719 199.875 " fill-opacity="1" fill-rule="nonzero"/><path fill="#000000" d="M 308.855469 124.105469 L 318.207031 114.835938 L 348.980469 145.929688 L 339.625 155.195312 Z M 308.855469 124.105469 " fill-opacity="1" fill-rule="nonzero"/></svg>