<svg xmlns="http://www.w3.org/2000/svg" xmlns:xlink="http://www.w3.org/1999/xlink" width="500" zoomAndPan="magnify" viewBox="0 0 375 374.999991" height="500" preserveAspectRatio="xMidYMid meet" version="1.0"><defs><clipPath id="4912d5c53a"><path d="M 8.4375 70 L 366.9375 70 L 366.9375 320 L 8.4375 320 Z M 8.4375 70 " clip-rule="nonzero"/></clipPath><clipPath id="3dc022dab7"><path d="M 8.4375 267 L 366.9375 267 L 366.9375 276 L 8.4375 276 Z M 8.4375 267 " clip-rule="nonzero"/></clipPath></defs><path fill="#000000" d="M 93.316406 118.871094 C 92.347656 118.871094 91.375 118.53125 90.59375 117.839844 L 71.011719 100.417969 C 70.140625 99.640625 69.640625 98.53125 69.640625 97.363281 C 69.640625 96.195312 70.140625 95.082031 71.011719 94.304688 L 90.59375 76.886719 C 92.28125 75.378906 94.871094 75.53125 96.375 77.21875 C 97.882812 78.90625 97.730469 81.492188 96.042969 83 L 79.894531 97.363281 L 96.042969 111.730469 C 97.730469 113.230469 97.882812 115.8125 96.375 117.5 C 95.566406 118.414062 94.445312 118.875 93.316406 118.871094 Z M 93.316406 118.871094 " fill-opacity="1" fill-rule="evenodd"/><path fill="#000000" d="M 134.085938 118.871094 C 132.957031 118.871094 131.832031 118.414062 131.023438 117.5 C 129.519531 115.8125 129.667969 113.230469 131.359375 111.730469 L 147.507812 97.363281 L 131.359375 83 C 129.667969 81.492188 129.519531 78.910156 131.023438 77.21875 C 132.53125 75.53125 135.117188 75.378906 136.808594 76.886719 L 156.390625 94.304688 C 157.261719 95.078125 157.761719 96.195312 157.761719 97.363281 C 157.761719 98.53125 157.261719 99.640625 156.390625 100.417969 L 136.808594 117.839844 C 136.027344 118.53125 135.054688 118.875 134.085938 118.871094 Z M 134.085938 118.871094 " fill-opacity="1" fill-rule="evenodd"/><path fill="#000000" d="M 104.105469 130.738281 C 103.78125 130.738281 103.449219 130.707031 103.117188 130.621094 C 100.921875 130.074219 99.582031 127.859375 100.125 125.667969 L 113.796875 70.46875 C 114.339844 68.277344 116.5625 66.941406 118.757812 67.476562 C 120.953125 68.023438 122.292969 70.238281 121.75 72.429688 L 108.078125 127.636719 C 107.617188 129.496094 105.945312 130.738281 104.105469 130.738281 Z M 104.105469 130.738281 " fill-opacity="1" fill-rule="evenodd"/><path fill="#000000" d="M 204.757812 77.835938 L 184.597656 77.835938 C 182.335938 77.835938 180.5 76 180.5 73.742188 C 180.5 71.484375 182.335938 69.652344 184.597656 69.652344 L 204.757812 69.652344 C 207.023438 69.652344 208.855469 71.484375 208.855469 73.742188 C 208.855469 76 207.023438 77.835938 204.757812 77.835938 Z M 204.757812 77.835938 " fill-opacity="1" fill-rule="evenodd"/><path fill="#000000" d="M 247.71875 77.835938 L 227.554688 77.835938 C 225.292969 77.835938 223.460938 76 223.460938 73.742188 C 223.460938 71.484375 225.292969 69.652344 227.554688 69.652344 L 247.71875 69.652344 C 249.980469 69.652344 251.8125 71.484375 251.8125 73.742188 C 251.816406 76 249.980469 77.835938 247.71875 77.835938 Z M 247.71875 77.835938 " fill-opacity="1" fill-rule="evenodd"/><path fill="#000000" d="M 301.632812 77.835938 L 270.511719 77.835938 C 268.25 77.835938 266.414062 76 266.414062 73.742188 C 266.414062 71.484375 268.25 69.652344 270.511719 69.652344 L 301.632812 69.652344 C 303.894531 69.652344 305.730469 71.484375 305.730469 73.742188 C 305.730469 76 303.894531 77.835938 301.632812 77.835938 Z M 301.632812 77.835938 " fill-opacity="1" fill-rule="evenodd"/><path fill="#000000" d="M 204.757812 103.144531 L 184.597656 103.144531 C 182.335938 103.144531 180.5 101.3125 180.5 99.054688 C 180.5 96.792969 182.335938 94.960938 184.597656 94.960938 L 204.757812 94.960938 C 207.023438 94.960938 208.855469 96.792969 208.855469 99.054688 C 208.855469 101.3125 207.023438 103.144531 204.757812 103.144531 Z M 204.757812 103.144531 " fill-opacity="1" fill-rule="evenodd"/><path fill="#000000" d="M 301.632812 103.144531 L 227.554688 103.144531 C 225.289062 103.144531 223.457031 101.3125 223.457031 99.054688 C 223.457031 96.792969 225.289062 94.960938 227.554688 94.960938 L 301.632812 94.960938 C 303.894531 94.960938 305.730469 96.792969 305.730469 99.054688 C 305.730469 101.3125 303.894531 103.144531 301.632812 103.144531 Z M 301.632812 103.144531 " fill-opacity="1" fill-rule="evenodd"/><path fill="#000000" d="M 247.71875 128.453125 L 184.597656 128.453125 C 182.335938 128.453125 180.5 126.621094 180.5 124.363281 C 180.5 122.105469 182.335938 120.269531 184.597656 120.269531 L 247.71875 120.269531 C 249.980469 120.269531 251.816406 122.105469 251.816406 124.363281 C 251.816406 126.621094 249.980469 128.453125 247.71875 128.453125 Z M 247.71875 128.453125 " fill-opacity="1" fill-rule="evenodd"/><path fill="#000000" d="M 301.632812 128.453125 L 270.511719 128.453125 C 268.25 128.453125 266.414062 126.621094 266.414062 124.363281 C 266.414062 122.105469 268.25 120.269531 270.511719 120.269531 L 301.632812 120.269531 C 303.894531 120.269531 305.730469 122.105469 305.730469 124.363281 C 305.730469 126.621094 303.894531 128.453125 301.632812 128.453125 Z M 301.632812 128.453125 " fill-opacity="1" fill-rule="evenodd"/><path fill="#000000" d="M 88.011719 213.4375 L 81.753906 213.4375 C 76.046875 213.4375 71.402344 208.570312 71.402344 202.578125 L 71.402344 189.390625 L 64.359375 181.640625 C 62.941406 180.082031 62.941406 177.703125 64.359375 176.144531 L 71.402344 168.394531 L 71.402344 155.207031 C 71.402344 149.214844 76.046875 144.34375 81.753906 144.34375 L 88.011719 144.34375 C 90.273438 144.34375 92.109375 146.179688 92.109375 148.4375 C 92.109375 150.695312 90.273438 152.53125 88.011719 152.53125 L 81.753906 152.527344 C 80.582031 152.527344 79.59375 153.75 79.59375 155.207031 L 79.59375 169.972656 C 79.59375 170.992188 79.214844 171.972656 78.53125 172.726562 L 72.925781 178.886719 L 78.53125 185.058594 C 79.214844 185.808594 79.59375 186.789062 79.59375 187.8125 L 79.59375 202.578125 C 79.59375 204.027344 80.582031 205.253906 81.753906 205.253906 L 88.011719 205.253906 C 90.273438 205.253906 92.109375 207.089844 92.109375 209.347656 C 92.109375 211.605469 90.273438 213.4375 88.011719 213.4375 Z M 88.011719 213.4375 " fill-opacity="1" fill-rule="evenodd"/><path fill="#000000" d="M 293.613281 213.4375 L 287.359375 213.4375 C 285.097656 213.4375 283.261719 211.605469 283.261719 209.347656 C 283.261719 207.089844 285.097656 205.253906 287.355469 205.253906 L 293.613281 205.253906 C 294.785156 205.253906 295.773438 204.027344 295.773438 202.578125 L 295.773438 187.8125 C 295.773438 186.789062 296.152344 185.808594 296.839844 185.058594 L 302.445312 178.886719 L 296.839844 172.722656 C 296.152344 171.972656 295.773438 170.992188 295.773438 169.972656 L 295.773438 155.207031 C 295.773438 153.75 294.785156 152.53125 293.613281 152.53125 L 287.359375 152.527344 C 285.097656 152.527344 283.261719 150.695312 283.261719 148.4375 C 283.261719 146.179688 285.097656 144.34375 287.355469 144.34375 L 293.613281 144.34375 C 299.324219 144.34375 303.96875 149.214844 303.96875 155.207031 L 303.96875 168.394531 L 311.011719 176.144531 C 312.429688 177.703125 312.429688 180.082031 311.011719 181.640625 L 303.96875 189.390625 L 303.96875 202.578125 C 303.96875 208.570312 299.324219 213.4375 293.613281 213.4375 Z M 293.613281 213.4375 " fill-opacity="1" fill-rule="evenodd"/><path fill="#000000" d="M 160.8125 170.96875 L 104.921875 170.96875 C 102.660156 170.96875 100.824219 169.144531 100.824219 166.875 C 100.824219 164.617188 102.660156 162.785156 104.921875 162.785156 L 160.8125 162.785156 C 163.074219 162.785156 164.910156 164.617188 164.910156 166.875 C 164.910156 169.144531 163.074219 170.96875 160.8125 170.96875 Z M 160.8125 170.96875 " fill-opacity="1" fill-rule="evenodd"/><path fill="#000000" d="M 197.359375 170.96875 L 178.011719 170.96875 C 175.75 170.96875 173.914062 169.144531 173.914062 166.875 C 173.914062 164.617188 175.75 162.785156 178.011719 162.785156 L 197.359375 162.785156 C 199.621094 162.785156 201.453125 164.617188 201.453125 166.875 C 201.453125 169.144531 199.621094 170.96875 197.359375 170.96875 Z M 197.359375 170.96875 " fill-opacity="1" fill-rule="evenodd"/><path fill="#000000" d="M 270.449219 170.96875 L 214.554688 170.96875 C 212.292969 170.96875 210.457031 169.144531 210.457031 166.875 C 210.460938 164.617188 212.292969 162.785156 214.554688 162.785156 L 270.449219 162.785156 C 272.710938 162.785156 274.542969 164.617188 274.542969 166.875 C 274.542969 169.144531 272.710938 170.96875 270.449219 170.96875 Z M 270.449219 170.96875 " fill-opacity="1" fill-rule="evenodd"/><path fill="#000000" d="M 160.8125 195 L 104.921875 195 C 102.660156 195 100.824219 193.167969 100.824219 190.910156 C 100.824219 188.640625 102.660156 186.816406 104.921875 186.816406 L 160.8125 186.816406 C 163.074219 186.816406 164.910156 188.640625 164.910156 190.910156 C 164.910156 193.167969 163.074219 195 160.8125 195 Z M 160.8125 195 " fill-opacity="1" fill-rule="evenodd"/><path fill="#000000" d="M 197.359375 195 L 178.011719 195 C 175.75 195 173.914062 193.167969 173.914062 190.910156 C 173.914062 188.640625 175.75 186.816406 178.011719 186.816406 L 197.359375 186.816406 C 199.621094 186.816406 201.453125 188.640625 201.453125 190.910156 C 201.453125 193.167969 199.621094 195 197.359375 195 Z M 197.359375 195 " fill-opacity="1" fill-rule="evenodd"/><path fill="#000000" d="M 270.449219 195 L 214.554688 195 C 212.292969 195 210.457031 193.167969 210.457031 190.910156 C 210.460938 188.640625 212.292969 186.816406 214.554688 186.816406 L 270.449219 186.816406 C 272.710938 186.816406 274.542969 188.640625 274.542969 190.910156 C 274.542969 193.167969 272.710938 195 270.449219 195 Z M 270.449219 195 " fill-opacity="1" fill-rule="evenodd"/><path fill="#000000" d="M 155.667969 375.039062 C 153.40625 375.039062 151.574219 373.214844 151.574219 370.945312 L 151.574219 315.578125 C 151.574219 313.316406 153.40625 311.484375 155.667969 311.484375 C 157.929688 311.484375 159.765625 313.316406 159.765625 315.578125 L 159.765625 370.945312 C 159.765625 373.210938 157.929688 375.039062 155.667969 375.039062 Z M 219.699219 375.039062 C 217.4375 375.039062 215.601562 373.214844 215.601562 370.945312 L 215.601562 315.578125 C 215.601562 313.316406 217.4375 311.484375 219.699219 311.484375 C 221.960938 311.484375 223.792969 313.316406 223.792969 315.578125 L 223.796875 370.945312 C 223.796875 373.210938 221.960938 375.039062 219.699219 375.039062 Z M 219.699219 375.039062 " fill-opacity="1" fill-rule="evenodd"/><g clip-path="url(#4912d5c53a)"><path fill="#000000" d="M 342.570312 319.667969 L 32.800781 319.667969 C 19.339844 319.667969 8.390625 308.933594 8.390625 295.738281 L 8.390625 93.980469 C 8.390625 80.792969 19.339844 70.058594 32.800781 70.058594 L 46.136719 70.058594 C 48.398438 70.058594 50.234375 71.882812 50.234375 74.152344 C 50.234375 76.410156 48.398438 78.242188 46.136719 78.242188 L 32.800781 78.242188 C 23.859375 78.242188 16.582031 85.300781 16.582031 93.980469 L 16.582031 295.738281 C 16.582031 304.425781 23.859375 311.484375 32.800781 311.484375 L 342.570312 311.484375 C 351.511719 311.484375 358.789062 304.425781 358.789062 295.738281 L 358.789062 93.980469 C 358.789062 85.300781 351.511719 78.242188 342.570312 78.242188 L 329.234375 78.242188 C 326.972656 78.242188 325.136719 76.410156 325.136719 74.152344 C 325.136719 71.882812 326.972656 70.058594 329.234375 70.058594 L 342.570312 70.058594 C 356.03125 70.058594 366.980469 80.792969 366.980469 93.980469 L 366.980469 295.738281 C 366.980469 308.933594 356.03125 319.667969 342.570312 319.667969 Z M 342.570312 319.667969 " fill-opacity="1" fill-rule="evenodd"/></g><g clip-path="url(#3dc022dab7)"><path fill="#000000" d="M 362.882812 275.75 L 12.484375 275.75 C 10.222656 275.75 8.386719 273.925781 8.386719 271.65625 C 8.386719 269.398438 10.222656 267.574219 12.484375 267.574219 L 362.882812 267.574219 C 365.144531 267.574219 366.980469 269.398438 366.980469 271.65625 C 366.980469 273.925781 365.144531 275.75 362.882812 275.75 Z M 362.882812 275.75 " fill-opacity="1" fill-rule="evenodd"/></g><path fill="#000000" d="M 58.5 8.382812 C 53.941406 8.382812 50.234375 12.089844 50.234375 16.644531 L 50.234375 222.78125 C 50.234375 227.34375 53.941406 231.042969 58.5 231.042969 L 316.867188 231.042969 C 321.425781 231.042969 325.136719 227.34375 325.136719 222.78125 L 325.136719 23.394531 C 325.136719 18.84375 321.425781 15.132812 316.867188 15.132812 L 175.035156 15.132812 L 175.035156 45.660156 C 175.035156 47.921875 173.203125 49.753906 170.941406 49.753906 C 168.679688 49.753906 166.84375 47.921875 166.84375 45.660156 L 166.84375 11.042969 C 166.84375 9.574219 165.652344 8.382812 164.183594 8.382812 Z M 316.867188 239.226562 L 58.5 239.226562 C 49.425781 239.226562 42.039062 231.851562 42.039062 222.78125 L 42.039062 16.644531 C 42.039062 7.574219 49.425781 0.199219 58.5 0.199219 L 164.183594 0.199219 C 168.71875 0.199219 172.613281 2.996094 174.234375 6.949219 L 316.867188 6.949219 C 325.945312 6.949219 333.328125 14.324219 333.328125 23.394531 L 333.328125 222.78125 C 333.328125 231.851562 325.945312 239.226562 316.867188 239.226562 Z M 316.867188 239.226562 " fill-opacity="1" fill-rule="evenodd"/><path fill="#000000" d="M 329.230469 49.753906 L 46.136719 49.753906 C 43.875 49.753906 42.039062 47.921875 42.039062 45.660156 C 42.039062 43.402344 43.875 41.570312 46.136719 41.570312 L 329.230469 41.570312 C 331.496094 41.570312 333.328125 43.402344 333.328125 45.660156 C 333.328125 47.921875 331.492188 49.753906 329.230469 49.753906 Z M 329.230469 49.753906 " fill-opacity="1" fill-rule="evenodd"/><path fill="#000000" d="M 114.765625 29.070312 L 102.3125 29.070312 C 100.050781 29.070312 98.214844 27.238281 98.214844 24.980469 C 98.214844 22.722656 100.050781 20.886719 102.3125 20.886719 L 114.765625 20.886719 C 117.027344 20.886719 118.863281 22.722656 118.863281 24.980469 C 118.863281 27.238281 117.027344 29.070312 114.765625 29.070312 Z M 114.765625 29.070312 " fill-opacity="1" fill-rule="evenodd"/><path fill="#000000" d="M 81.449219 29.070312 L 68.992188 29.070312 C 66.730469 29.070312 64.894531 27.238281 64.894531 24.980469 C 64.894531 22.722656 66.730469 20.886719 68.992188 20.886719 L 81.449219 20.886719 C 83.710938 20.886719 85.542969 22.722656 85.542969 24.980469 C 85.542969 27.238281 83.710938 29.070312 81.449219 29.070312 Z M 81.449219 29.070312 " fill-opacity="1" fill-rule="evenodd"/><path fill="#000000" d="M 148.085938 29.070312 L 135.628906 29.070312 C 133.367188 29.070312 131.535156 27.238281 131.535156 24.980469 C 131.535156 22.722656 133.367188 20.886719 135.628906 20.886719 L 148.085938 20.886719 C 150.347656 20.886719 152.183594 22.722656 152.183594 24.980469 C 152.183594 27.238281 150.347656 29.070312 148.085938 29.070312 Z M 148.085938 29.070312 " fill-opacity="1" fill-rule="evenodd"/><path fill="#000000" d="M 251.308594 375.039062 L 124.058594 375.039062 C 121.796875 375.039062 119.960938 373.203125 119.960938 370.945312 C 119.960938 368.6875 121.796875 366.851562 124.058594 366.851562 L 251.308594 366.851562 C 253.574219 366.851562 255.40625 368.6875 255.40625 370.945312 C 255.40625 373.203125 253.574219 375.039062 251.308594 375.035156 Z M 251.308594 375.039062 " fill-opacity="1" fill-rule="evenodd"/></svg>