<svg xmlns="http://www.w3.org/2000/svg" xmlns:xlink="http://www.w3.org/1999/xlink" width="500" zoomAndPan="magnify" viewBox="0 0 375 374.999991" height="500" preserveAspectRatio="xMidYMid meet" version="1.0"><defs><clipPath id="23293f2eee"><path d="M 181 16 L 366 16 L 366 360 L 181 360 Z M 181 16 " clip-rule="nonzero"/></clipPath></defs><path fill="#000000" d="M 98.390625 311.492188 C 97.710938 311.492188 97.019531 311.40625 96.339844 311.199219 C 93.316406 310.3125 91.164062 307.617188 91.03125 304.460938 L 88.835938 257.164062 C 88.792969 256.351562 88.894531 255.554688 89.117188 254.773438 L 118.25 153.914062 C 121.667969 142.121094 134.246094 135.175781 146.171875 138.550781 C 152.027344 140.171875 156.890625 143.976562 159.839844 149.253906 C 162.746094 154.472656 163.4375 160.476562 161.789062 166.179688 L 132.652344 267.027344 C 132.417969 267.808594 132.078125 268.53125 131.636719 269.179688 L 104.480469 308.308594 C 103.035156 310.34375 100.761719 311.492188 98.390625 311.492188 Z M 103.59375 257.695312 L 104.730469 282.019531 L 118.78125 261.761719 L 147.574219 162.082031 C 148.121094 160.179688 147.882812 158.160156 146.925781 156.433594 C 145.921875 154.636719 144.242188 153.324219 142.191406 152.75 C 138.003906 151.628906 133.582031 153.929688 132.402344 158.011719 Z M 103.59375 257.695312 " fill-opacity="1" fill-rule="nonzero"/><path fill="#000000" d="M 211.382812 204.601562 C 209.085938 204.601562 206.800781 203.527344 205.382812 201.492188 L 152.378906 126.195312 C 149.816406 122.582031 148.429688 118.207031 148.429688 113.632812 C 148.429688 106.234375 152.1875 99.304688 158.5 95.117188 C 168.761719 88.320312 182.753906 91.019531 189.710938 101 L 229.34375 157.15625 C 231.6875 160.488281 230.890625 165.074219 227.574219 167.417969 C 224.285156 169.777344 219.671875 168.996094 217.3125 165.648438 L 177.652344 109.460938 C 175.1875 105.9375 170.265625 104.964844 166.652344 107.398438 C 164.484375 108.84375 163.171875 111.1875 163.171875 113.632812 C 163.171875 115.152344 163.617188 116.582031 164.46875 117.777344 L 177.355469 136.589844 L 217.386719 192.957031 C 219.746094 196.273438 218.960938 200.871094 215.644531 203.214844 C 214.347656 204.144531 212.875 204.601562 211.382812 204.601562 Z M 211.382812 204.601562 " fill-opacity="1" fill-rule="nonzero"/><path fill="#000000" d="M 295.867188 283.480469 C 293.183594 283.480469 290.660156 282.019531 289.378906 279.589844 C 289.378906 279.601562 289.378906 279.601562 289.378906 279.601562 C 289.246094 279.601562 285.25 275.460938 271.214844 273.691406 C 269.339844 273.527344 267.25 273.128906 265.289062 272.542969 C 261.394531 271.375 259.183594 267.261719 260.363281 263.355469 C 261.527344 259.464844 265.613281 257.25 269.546875 258.429688 C 270.519531 258.726562 271.65625 258.933594 272.792969 259.035156 C 277.496094 259.625 281.492188 260.464844 284.851562 261.453125 C 281.5625 254.316406 276.167969 246.105469 268.988281 237.480469 C 266.378906 234.339844 266.804688 229.710938 269.917969 227.101562 C 273.027344 224.492188 277.671875 224.90625 280.296875 228.03125 C 291.117188 241.035156 303.886719 259.964844 303.25 276.390625 C 303.121094 279.722656 300.773438 282.550781 297.515625 283.289062 C 296.972656 283.421875 296.425781 283.480469 295.867188 283.480469 Z M 295.867188 283.480469 " fill-opacity="1" fill-rule="nonzero"/><path fill="#000000" d="M 281.992188 209.320312 C 278.378906 209.320312 275.222656 206.652344 274.707031 202.980469 C 274.132812 198.957031 276.933594 195.226562 280.972656 194.652344 L 298.710938 192.144531 L 294.332031 162.289062 C 290.75 162.273438 287.609375 159.621094 287.09375 155.949219 C 286.519531 151.921875 289.320312 148.195312 293.359375 147.617188 L 299.550781 146.734375 C 303.472656 146.21875 307.277344 148.945312 307.882812 152.96875 L 314.367188 197.347656 C 314.648438 199.292969 314.148438 201.269531 312.96875 202.832031 C 311.789062 204.394531 310.046875 205.441406 308.101562 205.707031 L 283.039062 209.246094 C 282.683594 209.289062 282.332031 209.320312 281.992188 209.320312 Z M 281.992188 209.320312 " fill-opacity="1" fill-rule="nonzero"/><path fill="#000000" d="M 162.640625 226.363281 C 159.042969 226.363281 155.890625 223.710938 155.359375 220.023438 C 154.785156 216 157.585938 212.269531 161.625 211.695312 L 194.679688 206.992188 C 198.585938 206.546875 202.421875 209.203125 203.011719 213.257812 C 203.585938 217.28125 200.785156 221.011719 196.746094 221.585938 L 163.6875 226.289062 C 163.351562 226.335938 162.996094 226.363281 162.640625 226.363281 Z M 162.640625 226.363281 " fill-opacity="1" fill-rule="nonzero"/><path fill="#000000" d="M 166.34375 180.453125 C 162.746094 180.453125 159.589844 177.796875 159.058594 174.128906 C 158.484375 170.101562 161.285156 166.359375 165.3125 165.78125 L 175.277344 164.351562 C 179.347656 163.792969 183.03125 166.578125 183.621094 170.605469 C 184.199219 174.628906 181.394531 178.375 177.371094 178.949219 L 167.40625 180.378906 C 167.050781 180.421875 166.695312 180.453125 166.34375 180.453125 Z M 166.34375 180.453125 " fill-opacity="1" fill-rule="nonzero"/><path fill="#000000" d="M 65.570312 240.179688 C 61.988281 240.179688 58.832031 237.539062 58.289062 233.882812 L 51.726562 189.417969 C 51.445312 187.46875 51.949219 185.496094 53.125 183.933594 C 54.292969 182.371094 56.046875 181.308594 57.992188 181.042969 L 92.566406 176.117188 C 96.515625 175.632812 100.320312 178.328125 100.894531 182.382812 C 101.472656 186.410156 98.667969 190.140625 94.628906 190.714844 L 67.398438 194.589844 L 71.808594 224.460938 L 78.882812 223.460938 C 82.863281 222.972656 86.625 225.671875 87.214844 229.726562 C 87.789062 233.75 84.988281 237.480469 80.949219 238.054688 L 66.601562 240.105469 C 66.277344 240.148438 65.925781 240.179688 65.570312 240.179688 Z M 65.570312 240.179688 " fill-opacity="1" fill-rule="nonzero"/><path fill="#000000" d="M 257.664062 318.867188 C 254.066406 318.867188 250.914062 316.210938 250.382812 312.527344 C 249.804688 308.5 252.609375 304.769531 256.648438 304.195312 L 344.253906 291.679688 L 317.300781 109.417969 C 316.710938 105.394531 319.484375 101.648438 323.523438 101.042969 C 327.636719 100.644531 331.292969 103.242188 331.882812 107.265625 L 359.898438 296.851562 C 360.191406 298.800781 359.691406 300.773438 358.511719 302.335938 C 357.347656 303.902344 355.589844 304.960938 353.644531 305.226562 L 258.695312 318.792969 C 258.359375 318.835938 258.003906 318.867188 257.664062 318.867188 Z M 257.664062 318.867188 " fill-opacity="1" fill-rule="nonzero"/><path fill="#000000" d="M 50.664062 348.207031 C 47.082031 348.207031 43.925781 345.566406 43.382812 341.910156 L 6.226562 89.941406 C 5.949219 88.011719 6.449219 86.035156 7.628906 84.457031 C 8.792969 82.878906 10.546875 81.832031 12.492188 81.566406 L 185.140625 57.09375 C 189.253906 56.5625 192.894531 59.332031 193.472656 63.359375 C 194.046875 67.382812 191.246094 71.113281 187.207031 71.6875 L 21.898438 95.132812 L 56.886719 332.503906 L 167.433594 316.742188 C 171.386719 316.183594 175.1875 318.96875 175.765625 323.007812 C 176.339844 327.046875 173.539062 330.761719 169.5 331.339844 L 51.695312 348.144531 C 51.359375 348.175781 51.003906 348.207031 50.664062 348.207031 Z M 50.664062 348.207031 " fill-opacity="1" fill-rule="nonzero"/><g clip-path="url(#23293f2eee)"><path fill="#000000" d="M 215.085938 361.148438 C 211.121094 361.148438 206.695312 360.488281 201.785156 359.144531 C 179.140625 352.96875 180.214844 339.078125 183.253906 325.367188 C 184.226562 320.957031 190.316406 303.382812 201.933594 270.078125 C 222.292969 211.5625 256.367188 113.632812 258.296875 93.332031 C 258.402344 87.125 258.710938 70.332031 248.15625 57.402344 C 239.648438 48.953125 229.636719 47.289062 216.457031 49.765625 C 212.460938 50.53125 208.703125 51.253906 205.207031 51.253906 C 204.203125 51.253906 201.742188 51.828125 200.164062 52.359375 C 195.300781 53.953125 188.972656 50.445312 188.972656 43.882812 C 188.972656 43.5 189.003906 43.117188 189.046875 42.761719 C 188.8125 42.4375 188.648438 42.082031 188.503906 41.746094 C 187.058594 38.292969 188.058594 34.386719 191.140625 31.304688 C 192.527344 29.921875 194.398438 29.152344 196.359375 29.152344 C 196.539062 29.066406 198.320312 28.429688 198.910156 28.046875 C 199.457031 27.503906 199.738281 27.339844 200.445312 27 C 207.210938 23.609375 212.253906 22.019531 218.167969 20.542969 C 230.066406 16.5625 244.632812 15.515625 262.042969 17.417969 C 270.328125 17.433594 281.578125 17.375 291.589844 20.707031 C 300.671875 23.742188 310.933594 27.164062 319.542969 35.757812 C 323.761719 39.992188 327.753906 42.421875 330.511719 42.421875 C 334.507812 42.421875 335.671875 41.582031 335.6875 41.566406 C 337.074219 40.183594 338.886719 39.460938 340.847656 39.460938 C 343.398438 39.460938 358.347656 42.113281 362.269531 46.035156 C 368.316406 52.082031 364.054688 69.800781 362.578125 74.226562 C 355.871094 94.320312 350.800781 98.449219 345.257812 98.449219 C 339.609375 98.449219 326.398438 95.234375 321.429688 87.789062 C 320.945312 86.949219 319.191406 83.707031 314.292969 83.707031 C 313.335938 83.707031 312.023438 84.457031 309.621094 85.871094 C 308.074219 86.785156 306.347656 87.804688 304.328125 88.820312 C 283.980469 104.816406 240.207031 318.421875 236.082031 347.171875 C 235.960938 347.953125 235.742188 348.707031 235.371094 349.398438 C 231.480469 357.226562 224.683594 361.148438 215.085938 361.148438 Z M 227.308594 33.578125 C 239.292969 33.578125 249.6875 38.148438 259.050781 47.523438 C 273.558594 65.1875 273.144531 86.0625 273.011719 92.917969 C 273.011719 93.113281 272.984375 94.527344 272.96875 94.703125 C 271.023438 115.09375 244.835938 191.582031 215.835938 274.929688 C 206.519531 301.675781 198.46875 324.808594 197.644531 328.566406 C 195.003906 340.421875 195.285156 342.101562 205.664062 344.917969 C 217.503906 348.144531 220.511719 345.609375 221.71875 343.679688 C 225.289062 323.730469 266.921875 99.40625 296.5 76.40625 C 299.402344 74.800781 300.804688 73.945312 302.085938 73.191406 C 305.609375 71.113281 309.238281 68.960938 314.292969 68.960938 C 324.746094 68.960938 331.53125 75.140625 334.15625 80.417969 C 334.832031 81.050781 339.328125 82.730469 342.808594 83.410156 C 344.136719 81.140625 346.257812 76.539062 348.589844 69.582031 C 350.3125 64.40625 350.742188 59.097656 350.667969 56.222656 C 348.78125 55.808594 345.199219 54.957031 342.792969 54.511719 C 339.59375 56.265625 335.496094 57.167969 330.511719 57.167969 C 323.597656 57.167969 316.386719 53.464844 309.089844 46.167969 C 302.957031 40.035156 295.171875 37.425781 286.929688 34.683594 C 279.191406 32.101562 269.636719 32.101562 261.21875 32.101562 C 246.902344 30.570312 235.476562 31.085938 225.832031 33.621094 C 226.320312 33.589844 226.820312 33.578125 227.308594 33.578125 Z M 227.308594 33.578125 " fill-opacity="1" fill-rule="nonzero"/></g></svg>